<?xml version="1.0" encoding="UTF-8" standalone="no"?>
<!DOCTYPE svg PUBLIC "-//W3C//DTD SVG 1.1//EN"
 "http://www.w3.org/Graphics/SVG/1.1/DTD/svg11.dtd">
<!-- Generated by graphviz version 9.0.0 (0)
 -->
<!-- Title: git_no_ff Pages: 1 -->
<svg width="254pt" height="382pt"
 viewBox="0.00 0.00 253.70 381.99" xmlns="http://www.w3.org/2000/svg" xmlns:xlink="http://www.w3.org/1999/xlink">
<g id="graph0" class="graph" transform="scale(1 1) rotate(0) translate(4 377.99)">
<title>git_no_ff</title>
<polygon fill="white" stroke="none" points="-4,4 -4,-377.99 249.7,-377.99 249.7,4 -4,4"/>
<!-- me -->
<g id="node1" class="node">
<title>me</title>
<polygon fill="none" stroke="none" stroke-width="0" points="122.45,-22.95 61.25,-22.95 61.25,0 122.45,0 122.45,-22.95"/>
<text text-anchor="middle" x="91.85" y="-6.05" font-family="Inconsolata" font-size="14.00">dev/gfdl</text>
</g>
<!-- ae -->
<g id="node2" class="node">
<title>ae</title>
<polygon fill="none" stroke="none" stroke-width="0" points="183.7,-22.95 136,-22.95 136,0 183.7,0 183.7,-22.95"/>
<text text-anchor="middle" x="159.85" y="-6.05" font-family="Inconsolata" font-size="14.00">user/a</text>
</g>
<!-- be -->
<g id="node3" class="node">
<title>be</title>
<polygon fill="none" stroke="none" stroke-width="0" points="47.7,-22.95 0,-22.95 0,0 47.7,0 47.7,-22.95"/>
<text text-anchor="middle" x="23.85" y="-6.05" font-family="Inconsolata" font-size="14.00">user/b</text>
</g>
<!-- ce -->
<g id="node4" class="node">
<title>ce</title>
<polygon fill="none" stroke="none" stroke-width="0" points="245.7,-22.95 198,-22.95 198,0 245.7,0 245.7,-22.95"/>
<text text-anchor="middle" x="221.85" y="-6.05" font-family="Inconsolata" font-size="14.00">user/c</text>
</g>
<!-- m1 -->
<g id="node5" class="node">
<title>m1</title>
<ellipse fill="#56b4e9" stroke="black" stroke-width="2" cx="91.85" cy="-343.35" rx="7.2" ry="7.2"/>
</g>
<!-- mb1 -->
<g id="node6" class="node">
<title>mb1</title>
<ellipse fill="#f0e442" stroke="black" stroke-width="2" cx="91.85" cy="-270.55" rx="7.2" ry="7.2"/>
</g>
<!-- m1&#45;&gt;mb1 -->
<g id="edge1" class="edge">
<title>m1&#45;&gt;mb1</title>
<path fill="none" stroke="black" stroke-width="2" d="M91.85,-335.3C91.85,-325.02 91.85,-305.52 91.85,-290.78"/>
<polygon fill="black" stroke="black" stroke-width="2" points="91.85,-281.01 96.35,-291.01 92.35,-283.57 92.35,-291.01 91.85,-291.01 91.35,-291.01 91.35,-283.57 87.35,-291.01 91.85,-281.01"/>
</g>
<!-- a1 -->
<g id="node13" class="node">
<title>a1</title>
<ellipse fill="#cc79a7" stroke="black" stroke-width="2" cx="159.85" cy="-306.95" rx="7.2" ry="7.2"/>
</g>
<!-- m1&#45;&gt;a1 -->
<g id="edge16" class="edge">
<title>m1&#45;&gt;a1</title>
<path fill="none" stroke="black" stroke-width="2" d="M98.62,-338.93C108.7,-333.83 128,-324.06 142.25,-316.86"/>
<polygon fill="black" stroke="black" stroke-width="2" points="150.93,-312.46 144.04,-320.99 148.87,-314.06 142.24,-317.42 142.01,-316.97 141.79,-316.53 148.42,-313.17 139.98,-312.96 150.93,-312.46"/>
</g>
<!-- b1 -->
<g id="node19" class="node">
<title>b1</title>
<ellipse fill="#f0e442" stroke="black" stroke-width="2" cx="23.85" cy="-306.95" rx="7.2" ry="7.2"/>
</g>
<!-- m1&#45;&gt;b1 -->
<g id="edge17" class="edge">
<title>m1&#45;&gt;b1</title>
<path fill="none" stroke="black" stroke-width="2" d="M85.08,-338.93C75,-333.83 55.7,-324.06 41.45,-316.86"/>
<polygon fill="black" stroke="black" stroke-width="2" points="32.77,-312.46 43.72,-312.96 35.28,-313.17 41.91,-316.53 41.69,-316.97 41.46,-317.42 34.83,-314.06 39.66,-320.99 32.77,-312.46"/>
</g>
<!-- ma1 -->
<g id="node7" class="node">
<title>ma1</title>
<ellipse fill="#cc79a7" stroke="black" stroke-width="2" cx="91.85" cy="-234.15" rx="7.2" ry="7.2"/>
</g>
<!-- mb1&#45;&gt;ma1 -->
<g id="edge2" class="edge">
<title>mb1&#45;&gt;ma1</title>
<path fill="none" stroke="black" stroke-width="2" d="M91.85,-262.59C91.85,-260.16 91.85,-257.31 91.85,-254.38"/>
<polygon fill="black" stroke="black" stroke-width="2" points="91.85,-244.54 96.35,-254.54 92.35,-247.1 92.35,-254.54 91.85,-254.54 91.35,-254.54 91.35,-247.1 87.35,-254.54 91.85,-244.54"/>
</g>
<!-- ma2 -->
<g id="node8" class="node">
<title>ma2</title>
<ellipse fill="#cc79a7" stroke="black" stroke-width="2" cx="91.85" cy="-197.75" rx="7.2" ry="7.2"/>
</g>
<!-- ma1&#45;&gt;ma2 -->
<g id="edge3" class="edge">
<title>ma1&#45;&gt;ma2</title>
<path fill="none" stroke="black" stroke-width="2" d="M91.85,-226.19C91.85,-223.76 91.85,-220.91 91.85,-217.98"/>
<polygon fill="black" stroke="black" stroke-width="2" points="91.85,-208.14 96.35,-218.14 92.35,-210.7 92.35,-218.14 91.85,-218.14 91.35,-218.14 91.35,-210.7 87.35,-218.14 91.85,-208.14"/>
</g>
<!-- ma3 -->
<g id="node9" class="node">
<title>ma3</title>
<ellipse fill="#cc79a7" stroke="black" stroke-width="2" cx="91.85" cy="-124.95" rx="7.2" ry="7.2"/>
</g>
<!-- ma2&#45;&gt;ma3 -->
<g id="edge4" class="edge">
<title>ma2&#45;&gt;ma3</title>
<path fill="none" stroke="black" stroke-width="2" d="M91.85,-189.7C91.85,-179.42 91.85,-159.92 91.85,-145.18"/>
<polygon fill="black" stroke="black" stroke-width="2" points="91.85,-135.41 96.35,-145.41 92.35,-137.97 92.35,-145.41 91.85,-145.41 91.35,-145.41 91.35,-137.97 87.35,-145.41 91.85,-135.41"/>
</g>
<!-- a3 -->
<g id="node15" class="node">
<title>a3</title>
<ellipse fill="#cc79a7" stroke="black" stroke-width="2" cx="159.85" cy="-161.35" rx="7.2" ry="7.2"/>
</g>
<!-- ma2&#45;&gt;a3 -->
<g id="edge20" class="edge">
<title>ma2&#45;&gt;a3</title>
<path fill="none" stroke="black" stroke-width="2" d="M98.62,-193.33C108.7,-188.23 128,-178.46 142.25,-171.26"/>
<polygon fill="black" stroke="black" stroke-width="2" points="150.93,-166.86 144.04,-175.39 148.87,-168.46 142.24,-171.82 142.01,-171.37 141.79,-170.93 148.42,-167.57 139.98,-167.36 150.93,-166.86"/>
</g>
<!-- ma4 -->
<g id="node10" class="node">
<title>ma4</title>
<ellipse fill="#cc79a7" stroke="black" stroke-width="2" cx="91.85" cy="-88.55" rx="7.2" ry="7.2"/>
</g>
<!-- ma3&#45;&gt;ma4 -->
<g id="edge5" class="edge">
<title>ma3&#45;&gt;ma4</title>
<path fill="none" stroke="black" stroke-width="2" d="M91.85,-116.99C91.85,-114.56 91.85,-111.71 91.85,-108.78"/>
<polygon fill="black" stroke="black" stroke-width="2" points="91.85,-98.94 96.35,-108.94 92.35,-101.5 92.35,-108.94 91.85,-108.94 91.35,-108.94 91.35,-101.5 87.35,-108.94 91.85,-98.94"/>
</g>
<!-- mc1 -->
<g id="node11" class="node">
<title>mc1</title>
<ellipse fill="#009e73" stroke="black" stroke-width="2" cx="91.85" cy="-52.15" rx="7.2" ry="7.2"/>
</g>
<!-- ma4&#45;&gt;mc1 -->
<g id="edge6" class="edge">
<title>ma4&#45;&gt;mc1</title>
<path fill="none" stroke="black" stroke-width="2" d="M91.85,-80.59C91.85,-78.16 91.85,-75.31 91.85,-72.38"/>
<polygon fill="black" stroke="black" stroke-width="2" points="91.85,-62.54 96.35,-72.54 92.35,-65.1 92.35,-72.54 91.85,-72.54 91.35,-72.54 91.35,-65.1 87.35,-72.54 91.85,-62.54"/>
</g>
<!-- mc1&#45;&gt;me -->
<g id="edge8" class="edge">
<title>mc1&#45;&gt;me</title>
<path fill="none" stroke="gray" stroke-width="2" stroke-dasharray="5,2" d="M91.85,-44.06C91.85,-38.12 91.85,-29.58 91.85,-22.88"/>
</g>
<!-- ms -->
<g id="node12" class="node">
<title>ms</title>
<ellipse fill="#56b4e9" stroke="black" stroke-width="0" cx="91.85" cy="-373.27" rx="0.72" ry="0.72"/>
</g>
<!-- ms&#45;&gt;m1 -->
<g id="edge7" class="edge">
<title>ms&#45;&gt;m1</title>
<path fill="none" stroke="black" stroke-width="2" d="M91.85,-372.47C91.85,-371.89 91.85,-368.21 91.85,-363.71"/>
<polygon fill="black" stroke="black" stroke-width="2" points="91.85,-353.8 96.35,-363.8 92.35,-356.37 92.35,-363.8 91.85,-363.8 91.35,-363.8 91.35,-356.37 87.35,-363.8 91.85,-353.8"/>
</g>
<!-- a2 -->
<g id="node14" class="node">
<title>a2</title>
<ellipse fill="#cc79a7" stroke="black" stroke-width="2" cx="159.85" cy="-234.15" rx="7.2" ry="7.2"/>
</g>
<!-- a1&#45;&gt;a2 -->
<g id="edge9" class="edge">
<title>a1&#45;&gt;a2</title>
<path fill="none" stroke="black" stroke-width="2" d="M159.85,-298.9C159.85,-288.62 159.85,-269.12 159.85,-254.38"/>
<polygon fill="black" stroke="black" stroke-width="2" points="159.85,-244.61 164.35,-254.61 160.35,-247.17 160.35,-254.61 159.85,-254.61 159.35,-254.61 159.35,-247.17 155.35,-254.61 159.85,-244.61"/>
</g>
<!-- a2&#45;&gt;ma2 -->
<g id="edge18" class="edge">
<title>a2&#45;&gt;ma2</title>
<path fill="none" stroke="black" stroke-width="2" d="M153.08,-229.73C143,-224.63 123.7,-214.86 109.45,-207.66"/>
<polygon fill="black" stroke="black" stroke-width="2" points="100.77,-203.26 111.72,-203.76 103.28,-203.97 109.91,-207.33 109.69,-207.77 109.46,-208.22 102.83,-204.86 107.66,-211.79 100.77,-203.26"/>
</g>
<!-- a2&#45;&gt;a3 -->
<g id="edge12" class="edge">
<title>a2&#45;&gt;a3</title>
<path fill="none" stroke="gray" stroke-width="2" stroke-dasharray="5,2" d="M159.85,-226.1C159.85,-212.53 159.85,-182.92 159.85,-169.37"/>
</g>
<!-- a4 -->
<g id="node16" class="node">
<title>a4</title>
<ellipse fill="#cc79a7" stroke="black" stroke-width="2" cx="159.85" cy="-124.95" rx="7.2" ry="7.2"/>
</g>
<!-- a3&#45;&gt;a4 -->
<g id="edge10" class="edge">
<title>a3&#45;&gt;a4</title>
<path fill="none" stroke="black" stroke-width="2" d="M159.85,-153.39C159.85,-150.96 159.85,-148.11 159.85,-145.18"/>
<polygon fill="black" stroke="black" stroke-width="2" points="159.85,-135.34 164.35,-145.34 160.35,-137.9 160.35,-145.34 159.85,-145.34 159.35,-145.34 159.35,-137.9 155.35,-145.34 159.85,-135.34"/>
</g>
<!-- a4&#45;&gt;ae -->
<g id="edge13" class="edge">
<title>a4&#45;&gt;ae</title>
<path fill="none" stroke="gray" stroke-width="2" stroke-dasharray="5,2" d="M159.85,-116.98C159.85,-98.01 159.85,-45.38 159.85,-22.89"/>
</g>
<!-- a4&#45;&gt;ma4 -->
<g id="edge19" class="edge">
<title>a4&#45;&gt;ma4</title>
<path fill="none" stroke="black" stroke-width="2" d="M153.08,-120.53C143,-115.43 123.7,-105.66 109.45,-98.46"/>
<polygon fill="black" stroke="black" stroke-width="2" points="100.77,-94.06 111.72,-94.56 103.28,-94.77 109.91,-98.13 109.69,-98.57 109.46,-99.02 102.83,-95.66 107.66,-102.59 100.77,-94.06"/>
</g>
<!-- as -->
<g id="node17" class="node">
<title>as</title>
<ellipse fill="#cc79a7" stroke="black" stroke-width="0" cx="159.85" cy="-373.27" rx="0.72" ry="0.72"/>
</g>
<!-- as&#45;&gt;a1 -->
<g id="edge11" class="edge">
<title>as&#45;&gt;a1</title>
<path fill="none" stroke="gray" stroke-width="2" stroke-dasharray="5,2" d="M159.85,-372.5C159.85,-370.96 159.85,-331.66 159.85,-315.15"/>
</g>
<!-- bs -->
<g id="node18" class="node">
<title>bs</title>
<ellipse fill="#f0e442" stroke="black" stroke-width="0" cx="23.85" cy="-373.27" rx="0.72" ry="0.72"/>
</g>
<!-- bs&#45;&gt;b1 -->
<g id="edge14" class="edge">
<title>bs&#45;&gt;b1</title>
<path fill="none" stroke="gray" stroke-width="2" stroke-dasharray="5,2" d="M23.85,-372.5C23.85,-370.96 23.85,-331.66 23.85,-315.15"/>
</g>
<!-- b1&#45;&gt;be -->
<g id="edge15" class="edge">
<title>b1&#45;&gt;be</title>
<path fill="none" stroke="gray" stroke-width="2" stroke-dasharray="5,2" d="M23.85,-298.92C23.85,-286.19 23.85,-258.5 23.85,-235.15 23.85,-235.15 23.85,-235.15 23.85,-87.55 23.85,-64.35 23.85,-37.12 23.85,-22.68"/>
</g>
<!-- b1&#45;&gt;mb1 -->
<g id="edge21" class="edge">
<title>b1&#45;&gt;mb1</title>
<path fill="none" stroke="black" stroke-width="2" d="M30.62,-302.53C40.7,-297.43 60,-287.66 74.25,-280.46"/>
<polygon fill="black" stroke="black" stroke-width="2" points="82.93,-276.06 76.04,-284.59 80.87,-277.66 74.24,-281.02 74.01,-280.57 73.79,-280.13 80.42,-276.77 71.98,-276.56 82.93,-276.06"/>
</g>
<!-- cs -->
<g id="node20" class="node">
<title>cs</title>
<ellipse fill="#009e73" stroke="black" stroke-width="0" cx="221.85" cy="-373.27" rx="0.72" ry="0.72"/>
</g>
<!-- c1 -->
<g id="node21" class="node">
<title>c1</title>
<ellipse fill="#009e73" stroke="black" stroke-width="2" cx="221.85" cy="-270.55" rx="7.2" ry="7.2"/>
</g>
<!-- cs&#45;&gt;c1 -->
<g id="edge22" class="edge">
<title>cs&#45;&gt;c1</title>
<path fill="none" stroke="gray" stroke-width="2" stroke-dasharray="5,2" d="M221.85,-372.48C221.85,-369.92 221.85,-301.11 221.85,-278.6"/>
</g>
<!-- c1&#45;&gt;ce -->
<g id="edge23" class="edge">
<title>c1&#45;&gt;ce</title>
<path fill="none" stroke="gray" stroke-width="2" stroke-dasharray="5,2" d="M221.85,-262.52C221.85,-249.79 221.85,-222.1 221.85,-198.75 221.85,-198.75 221.85,-198.75 221.85,-87.55 221.85,-64.35 221.85,-37.12 221.85,-22.68"/>
</g>
</g>
</svg>
