<?xml version="1.0" encoding="UTF-8" standalone="no"?>
<!DOCTYPE svg PUBLIC "-//W3C//DTD SVG 1.1//EN"
 "http://www.w3.org/Graphics/SVG/1.1/DTD/svg11.dtd">
<!-- Generated by graphviz version 9.0.0 (0)
 -->
<!-- Title: GitRepos Pages: 1 -->
<svg width="999pt" height="786pt"
 viewBox="0.00 0.00 998.71 786.17" xmlns="http://www.w3.org/2000/svg" xmlns:xlink="http://www.w3.org/1999/xlink">
<g id="graph0" class="graph" transform="scale(1 1) rotate(0) translate(4 782.17)">
<title>GitRepos</title>
<!-- main -->
<g id="node1" class="node">
<title>main</title>
<ellipse fill="lightgrey" stroke="black" cx="407.08" cy="-407.08" rx="54" ry="54"/>
<text text-anchor="start" x="368.83" y="-408.78" font-family="Helvetica,sans-Serif" font-size="14.00">MOM&#45;ocean</text>
<text text-anchor="start" x="393.58" y="-394.78" font-family="Inconsolata" font-size="14.00">main</text>
</g>
<!-- gfdl -->
<g id="node2" class="node">
<title>gfdl</title>
<ellipse fill="deepskyblue" stroke="black" cx="573.38" cy="-475.97" rx="54" ry="54"/>
<text text-anchor="start" x="533.26" y="-484.67" font-family="Helvetica,sans-Serif" font-size="14.00">NOAA&#45;GFDL</text>
<text text-anchor="start" x="559.88" y="-470.67" font-family="Inconsolata" font-size="14.00">main</text>
<text text-anchor="start" x="546.38" y="-456.67" font-family="Inconsolata" font-size="14.00">dev/gfdl</text>
</g>
<!-- gfdl&#45;&gt;main -->
<g id="edge1" class="edge">
<title>gfdl&#45;&gt;main</title>
<path fill="none" stroke="white" d="M512.54,-450.77C497.92,-444.71 482.3,-438.24 467.69,-432.19"/>
<polygon fill="white" stroke="white" points="511.06,-453.94 521.64,-454.53 513.74,-447.47 511.06,-453.94"/>
<polygon fill="white" stroke="white" points="469.23,-429.04 458.66,-428.45 466.56,-435.51 469.23,-429.04"/>
</g>
<!-- ncar -->
<g id="node3" class="node">
<title>ncar</title>
<ellipse fill="mediumaquamarine" stroke="black" cx="475.97" cy="-573.38" rx="54" ry="54"/>
<text text-anchor="start" x="456.84" y="-582.08" font-family="Helvetica,sans-Serif" font-size="14.00">NCAR</text>
<text text-anchor="start" x="462.47" y="-568.08" font-family="Inconsolata" font-size="14.00">main</text>
<text text-anchor="start" x="448.97" y="-554.08" font-family="Inconsolata" font-size="14.00">dev/ncar</text>
</g>
<!-- gfdl&#45;&gt;ncar -->
<g id="edge9" class="edge">
<title>gfdl&#45;&gt;ncar</title>
<path fill="none" stroke="white" d="M526.81,-522.54C525.22,-524.12 523.63,-525.71 522.05,-527.3"/>
<polygon fill="white" stroke="white" points="529.21,-525.08 533.81,-515.54 524.26,-520.13 529.21,-525.08"/>
<polygon fill="white" stroke="white" points="519.85,-524.54 515.26,-534.09 524.8,-529.49 519.85,-524.54"/>
</g>
<!-- ncar&#45;&gt;main -->
<g id="edge2" class="edge">
<title>ncar&#45;&gt;main</title>
<path fill="none" stroke="white" d="M450.77,-512.54C444.71,-497.92 438.24,-482.3 432.19,-467.69"/>
<polygon fill="white" stroke="white" points="447.47,-513.74 454.53,-521.64 453.94,-511.06 447.47,-513.74"/>
<polygon fill="white" stroke="white" points="435.51,-466.56 428.45,-458.66 429.04,-469.23 435.51,-466.56"/>
</g>
<!-- fsu -->
<g id="node4" class="node">
<title>fsu</title>
<ellipse fill="orange" stroke="black" cx="338.2" cy="-573.38" rx="54" ry="54"/>
<text text-anchor="start" x="324.7" y="-582.08" font-family="Helvetica,sans-Serif" font-size="14.00">FSU</text>
<text text-anchor="start" x="324.7" y="-568.08" font-family="Inconsolata" font-size="14.00">main</text>
<text text-anchor="start" x="314.57" y="-554.08" font-family="Inconsolata" font-size="14.00">dev/fsu</text>
</g>
<!-- ncar&#45;&gt;fsu -->
<g id="edge10" class="edge">
<title>ncar&#45;&gt;fsu</title>
<path fill="none" stroke="white" d="M410.1,-573.38C407.95,-573.38 405.8,-573.38 403.65,-573.38"/>
<polygon fill="white" stroke="white" points="410,-576.88 420,-573.38 410,-569.88 410,-576.88"/>
<polygon fill="white" stroke="white" points="403.77,-569.88 393.77,-573.38 403.77,-576.88 403.77,-569.88"/>
</g>
<!-- fsu&#45;&gt;main -->
<g id="edge3" class="edge">
<title>fsu&#45;&gt;main</title>
<path fill="none" stroke="white" d="M363.4,-512.54C369.46,-497.92 375.93,-482.3 381.98,-467.69"/>
<polygon fill="white" stroke="white" points="360.23,-511.06 359.63,-521.64 366.69,-513.74 360.23,-511.06"/>
<polygon fill="white" stroke="white" points="385.13,-469.23 385.72,-458.66 378.66,-466.56 385.13,-469.23"/>
</g>
<!-- nasa -->
<g id="node5" class="node">
<title>nasa</title>
<ellipse fill="white" stroke="black" cx="240.78" cy="-475.97" rx="54" ry="54"/>
<text text-anchor="start" x="198.41" y="-484.67" font-family="Helvetica,sans-Serif" font-size="14.00">NASA&#45;GMAO</text>
<text text-anchor="start" x="227.28" y="-470.67" font-family="Inconsolata" font-size="14.00">main</text>
<text text-anchor="start" x="213.78" y="-456.67" font-family="Inconsolata" font-size="14.00">dev/gmao</text>
</g>
<!-- fsu&#45;&gt;nasa -->
<g id="edge11" class="edge">
<title>fsu&#45;&gt;nasa</title>
<path fill="none" stroke="white" d="M291.63,-526.81C290.04,-525.22 288.45,-523.63 286.87,-522.05"/>
<polygon fill="white" stroke="white" points="289.08,-529.21 298.63,-533.81 294.03,-524.26 289.08,-529.21"/>
<polygon fill="white" stroke="white" points="289.62,-519.85 280.08,-515.26 284.67,-524.8 289.62,-519.85"/>
</g>
<!-- nasa&#45;&gt;main -->
<g id="edge4" class="edge">
<title>nasa&#45;&gt;main</title>
<path fill="none" stroke="white" d="M301.62,-450.77C316.25,-444.71 331.86,-438.24 346.47,-432.19"/>
<polygon fill="white" stroke="white" points="300.43,-447.47 292.53,-454.53 303.11,-453.94 300.43,-447.47"/>
<polygon fill="white" stroke="white" points="347.61,-435.51 355.51,-428.45 344.93,-429.04 347.61,-435.51"/>
</g>
<!-- ncep -->
<g id="node6" class="node">
<title>ncep</title>
<ellipse fill="cornflowerblue" stroke="black" cx="240.78" cy="-338.2" rx="54" ry="54"/>
<text text-anchor="start" x="200.28" y="-346.9" font-family="Helvetica,sans-Serif" font-size="14.00">NOAA&#45;NCEP</text>
<text text-anchor="start" x="227.28" y="-332.9" font-family="Inconsolata" font-size="14.00">main</text>
<text text-anchor="start" x="213.78" y="-318.9" font-family="Inconsolata" font-size="14.00">dev/ncep</text>
</g>
<!-- nasa&#45;&gt;ncep -->
<g id="edge12" class="edge">
<title>nasa&#45;&gt;ncep</title>
<path fill="none" stroke="white" d="M240.78,-410.1C240.78,-407.95 240.78,-405.8 240.78,-403.65"/>
<polygon fill="white" stroke="white" points="237.28,-410 240.78,-420 244.28,-410 237.28,-410"/>
<polygon fill="white" stroke="white" points="244.28,-403.77 240.78,-393.77 237.28,-403.77 244.28,-403.77"/>
</g>
<!-- ncep&#45;&gt;main -->
<g id="edge5" class="edge">
<title>ncep&#45;&gt;main</title>
<path fill="none" stroke="white" d="M301.62,-363.4C316.25,-369.46 331.86,-375.93 346.47,-381.98"/>
<polygon fill="white" stroke="white" points="303.11,-360.23 292.53,-359.63 300.43,-366.69 303.11,-360.23"/>
<polygon fill="white" stroke="white" points="344.93,-385.13 355.51,-385.72 347.61,-378.66 344.93,-385.13"/>
</g>
<!-- esmg -->
<g id="node7" class="node">
<title>esmg</title>
<ellipse fill="salmon" stroke="black" cx="338.2" cy="-240.78" rx="54" ry="54"/>
<text text-anchor="start" x="314.57" y="-256.48" font-family="Helvetica,sans-Serif" font-size="14.00">Rutgers</text>
<text text-anchor="start" x="317.57" y="-242.48" font-family="Helvetica,sans-Serif" font-size="14.00">ESMG</text>
<text text-anchor="start" x="324.7" y="-228.48" font-family="Inconsolata" font-size="14.00">main</text>
<text text-anchor="start" x="311.2" y="-214.48" font-family="Inconsolata" font-size="14.00">dev/esmg</text>
</g>
<!-- ncep&#45;&gt;esmg -->
<g id="edge13" class="edge">
<title>ncep&#45;&gt;esmg</title>
<path fill="none" stroke="white" d="M287.36,-291.63C288.94,-290.04 290.53,-288.45 292.12,-286.87"/>
<polygon fill="white" stroke="white" points="284.95,-289.08 280.36,-298.63 289.9,-294.03 284.95,-289.08"/>
<polygon fill="white" stroke="white" points="294.31,-289.62 298.91,-280.08 289.36,-284.67 294.31,-289.62"/>
</g>
<!-- esmg&#45;&gt;main -->
<g id="edge6" class="edge">
<title>esmg&#45;&gt;main</title>
<path fill="none" stroke="white" d="M363.4,-301.62C369.46,-316.25 375.93,-331.86 381.98,-346.47"/>
<polygon fill="white" stroke="white" points="366.69,-300.43 359.63,-292.53 360.23,-303.11 366.69,-300.43"/>
<polygon fill="white" stroke="white" points="378.66,-347.61 385.72,-355.51 385.13,-344.93 378.66,-347.61"/>
</g>
<!-- access -->
<g id="node8" class="node">
<title>access</title>
<ellipse fill="gold" stroke="black" cx="475.97" cy="-240.78" rx="54" ry="54"/>
<text text-anchor="start" x="448.22" y="-249.48" font-family="Helvetica,sans-Serif" font-size="14.00">ACCESS</text>
<text text-anchor="start" x="462.47" y="-235.48" font-family="Inconsolata" font-size="14.00">main</text>
<text text-anchor="start" x="442.22" y="-221.48" font-family="Inconsolata" font-size="14.00">dev/access</text>
</g>
<!-- esmg&#45;&gt;access -->
<g id="edge14" class="edge">
<title>esmg&#45;&gt;access</title>
<path fill="none" stroke="white" d="M404.06,-240.78C406.21,-240.78 408.36,-240.78 410.51,-240.78"/>
<polygon fill="white" stroke="white" points="404.16,-237.28 394.16,-240.78 404.16,-244.28 404.16,-237.28"/>
<polygon fill="white" stroke="white" points="410.4,-244.28 420.4,-240.78 410.4,-237.28 410.4,-244.28"/>
</g>
<!-- access&#45;&gt;main -->
<g id="edge7" class="edge">
<title>access&#45;&gt;main</title>
<path fill="none" stroke="white" d="M450.77,-301.62C444.71,-316.25 438.24,-331.86 432.19,-346.47"/>
<polygon fill="white" stroke="white" points="453.94,-303.11 454.53,-292.53 447.47,-300.43 453.94,-303.11"/>
<polygon fill="white" stroke="white" points="429.04,-344.93 428.45,-355.51 435.51,-347.61 429.04,-344.93"/>
</g>
<!-- kiost -->
<g id="node9" class="node">
<title>kiost</title>
<ellipse fill="salmon" stroke="black" cx="573.38" cy="-338.2" rx="54" ry="54"/>
<text text-anchor="start" x="552.76" y="-346.9" font-family="Helvetica,sans-Serif" font-size="14.00">KIOST</text>
<text text-anchor="start" x="559.88" y="-332.9" font-family="Inconsolata" font-size="14.00">main</text>
<text text-anchor="start" x="543.01" y="-318.9" font-family="Inconsolata" font-size="14.00">dev/kiost</text>
</g>
<!-- access&#45;&gt;kiost -->
<g id="edge15" class="edge">
<title>access&#45;&gt;kiost</title>
<path fill="none" stroke="white" d="M522.54,-287.36C524.12,-288.94 525.71,-290.53 527.3,-292.12"/>
<polygon fill="white" stroke="white" points="525.08,-284.95 515.54,-280.36 520.13,-289.9 525.08,-284.95"/>
<polygon fill="white" stroke="white" points="524.54,-294.31 534.09,-298.91 529.49,-289.36 524.54,-294.31"/>
</g>
<!-- kiost&#45;&gt;main -->
<g id="edge8" class="edge">
<title>kiost&#45;&gt;main</title>
<path fill="none" stroke="white" d="M512.54,-363.4C497.92,-369.46 482.3,-375.93 467.69,-381.98"/>
<polygon fill="white" stroke="white" points="513.74,-366.69 521.64,-359.63 511.06,-360.23 513.74,-366.69"/>
<polygon fill="white" stroke="white" points="466.56,-378.66 458.66,-385.72 469.23,-385.13 466.56,-378.66"/>
</g>
<!-- kiost&#45;&gt;gfdl -->
<g id="edge16" class="edge">
<title>kiost&#45;&gt;gfdl</title>
<path fill="none" stroke="white" d="M573.38,-404.06C573.38,-406.21 573.38,-408.36 573.38,-410.51"/>
<polygon fill="white" stroke="white" points="576.88,-404.16 573.38,-394.16 569.88,-404.16 576.88,-404.16"/>
<polygon fill="white" stroke="white" points="569.88,-410.4 573.38,-420.4 576.88,-410.4 569.88,-410.4"/>
</g>
<!-- u1_gfdl -->
<g id="node10" class="node">
<title>u1_gfdl</title>
<ellipse fill="deepskyblue" stroke="black" cx="760.17" cy="-477.32" rx="18" ry="18"/>
<text text-anchor="middle" x="760.17" y="-471.89" font-family="Helvetica,sans-Serif" font-size="14.00">user</text>
</g>
<!-- u1_gfdl&#45;&gt;gfdl -->
<g id="edge17" class="edge">
<title>u1_gfdl&#45;&gt;gfdl</title>
<path fill="none" stroke="white" d="M741.92,-477.18C718.12,-477.01 675.23,-476.7 638.67,-476.44"/>
<polygon fill="white" stroke="white" points="639.1,-472.94 629.07,-476.37 639.05,-479.94 639.1,-472.94"/>
</g>
<!-- u2_gfdl -->
<g id="node11" class="node">
<title>u2_gfdl</title>
<ellipse fill="deepskyblue" stroke="black" cx="706.41" cy="-607.09" rx="18" ry="18"/>
<text text-anchor="middle" x="706.41" y="-601.66" font-family="Helvetica,sans-Serif" font-size="14.00">user</text>
</g>
<!-- u2_gfdl&#45;&gt;gfdl -->
<g id="edge18" class="edge">
<title>u2_gfdl&#45;&gt;gfdl</title>
<path fill="none" stroke="white" d="M693.66,-594.52C676.8,-577.9 646.19,-547.73 620.07,-521.98"/>
<polygon fill="white" stroke="white" points="622.78,-519.74 613.2,-515.22 617.87,-524.73 622.78,-519.74"/>
</g>
<!-- u1_ncar -->
<g id="node12" class="node">
<title>u1_ncar</title>
<ellipse fill="mediumaquamarine" stroke="black" cx="607.09" cy="-706.41" rx="18" ry="18"/>
<text text-anchor="middle" x="607.09" y="-700.99" font-family="Helvetica,sans-Serif" font-size="14.00">user</text>
</g>
<!-- u1_ncar&#45;&gt;ncar -->
<g id="edge19" class="edge">
<title>u1_ncar&#45;&gt;ncar</title>
<path fill="none" stroke="white" d="M594.52,-693.66C577.9,-676.8 547.73,-646.19 521.98,-620.07"/>
<polygon fill="white" stroke="white" points="524.73,-617.87 515.22,-613.2 519.74,-622.78 524.73,-617.87"/>
</g>
<!-- u2_ncar -->
<g id="node13" class="node">
<title>u2_ncar</title>
<ellipse fill="mediumaquamarine" stroke="black" cx="477.32" cy="-760.17" rx="18" ry="18"/>
<text text-anchor="middle" x="477.32" y="-754.74" font-family="Helvetica,sans-Serif" font-size="14.00">user</text>
</g>
<!-- u2_ncar&#45;&gt;ncar -->
<g id="edge20" class="edge">
<title>u2_ncar&#45;&gt;ncar</title>
<path fill="none" stroke="white" d="M477.18,-741.92C477.01,-718.12 476.7,-675.23 476.44,-638.67"/>
<polygon fill="white" stroke="white" points="479.94,-639.05 476.37,-629.07 472.94,-639.1 479.94,-639.05"/>
</g>
<!-- u2_fsu -->
<!-- u2_fsu&#45;&gt;fsu -->
<g id="edge22" class="edge">
<title>u2_fsu&#45;&gt;fsu</title>
</g>
<!-- u1_fsu -->
<g id="node15" class="node">
<title>u1_fsu</title>
<ellipse fill="orange" stroke="black" cx="207.08" cy="-706.41" rx="18" ry="18"/>
<text text-anchor="middle" x="207.08" y="-700.99" font-family="Helvetica,sans-Serif" font-size="14.00">user</text>
</g>
<!-- u1_fsu&#45;&gt;fsu -->
<g id="edge21" class="edge">
<title>u1_fsu&#45;&gt;fsu</title>
<path fill="none" stroke="white" d="M219.65,-693.66C236.26,-676.8 266.44,-646.19 292.18,-620.07"/>
<polygon fill="white" stroke="white" points="294.42,-622.78 298.95,-613.2 289.44,-617.87 294.42,-622.78"/>
</g>
<!-- u1_nasa -->
<g id="node16" class="node">
<title>u1_nasa</title>
<ellipse fill="white" stroke="black" cx="107.75" cy="-607.09" rx="18" ry="18"/>
<text text-anchor="middle" x="107.75" y="-601.66" font-family="Helvetica,sans-Serif" font-size="14.00">user</text>
</g>
<!-- u1_nasa&#45;&gt;nasa -->
<g id="edge23" class="edge">
<title>u1_nasa&#45;&gt;nasa</title>
<path fill="none" stroke="white" d="M120.51,-594.52C137.36,-577.9 167.98,-547.73 194.1,-521.98"/>
<polygon fill="white" stroke="white" points="196.3,-524.73 200.96,-515.22 191.38,-519.74 196.3,-524.73"/>
</g>
<!-- u2_nasa -->
<!-- u2_nasa&#45;&gt;nasa -->
<g id="edge24" class="edge">
<title>u2_nasa&#45;&gt;nasa</title>
</g>
<!-- note_ncep -->
<g id="node18" class="node">
<title>note_ncep</title>
<polygon fill="none" stroke="none" points="108,-354.85 0,-354.85 0,-318.85 108,-318.85 108,-354.85"/>
<text text-anchor="middle" x="54" y="-339.3" font-family="Helvetica,sans-Serif" font-size="14.00" fill="white">GitHub</text>
<text text-anchor="middle" x="54" y="-323.55" font-family="Helvetica,sans-Serif" font-size="14.00" fill="white">organizations</text>
</g>
<!-- note_ncep&#45;&gt;ncep -->
<g id="edge26" class="edge">
<title>note_ncep&#45;&gt;ncep</title>
<path fill="none" stroke="white" d="M107.78,-337.24C128.79,-337.39 153.09,-337.57 175.13,-337.73"/>
<polygon fill="white" stroke="white" points="174.88,-341.22 184.9,-337.8 174.93,-334.22 174.88,-341.22"/>
</g>
<!-- u1_ncep -->
<g id="node19" class="node">
<title>u1_ncep</title>
<ellipse fill="cornflowerblue" stroke="black" cx="107.75" cy="-207.08" rx="18" ry="18"/>
<text text-anchor="middle" x="107.75" y="-201.65" font-family="Helvetica,sans-Serif" font-size="14.00">user</text>
</g>
<!-- u1_ncep&#45;&gt;ncep -->
<g id="edge25" class="edge">
<title>u1_ncep&#45;&gt;ncep</title>
<path fill="none" stroke="white" d="M120.51,-219.65C137.36,-236.26 167.98,-266.44 194.1,-292.18"/>
<polygon fill="white" stroke="white" points="191.38,-294.42 200.96,-298.95 196.3,-289.44 191.38,-294.42"/>
</g>
<!-- u1_esmg -->
<g id="node20" class="node">
<title>u1_esmg</title>
<ellipse fill="salmon" stroke="black" cx="207.08" cy="-107.75" rx="18" ry="18"/>
<text text-anchor="middle" x="207.08" y="-102.33" font-family="Helvetica,sans-Serif" font-size="14.00">user</text>
</g>
<!-- u1_esmg&#45;&gt;esmg -->
<g id="edge27" class="edge">
<title>u1_esmg&#45;&gt;esmg</title>
<path fill="none" stroke="white" d="M219.65,-120.51C236.26,-137.36 266.44,-167.98 292.18,-194.1"/>
<polygon fill="white" stroke="white" points="289.44,-196.3 298.95,-200.96 294.42,-191.38 289.44,-196.3"/>
</g>
<!-- u2_esmg -->
<!-- u2_esmg&#45;&gt;esmg -->
<g id="edge28" class="edge">
<title>u2_esmg&#45;&gt;esmg</title>
</g>
<!-- u1_access -->
<g id="node22" class="node">
<title>u1_access</title>
<ellipse fill="gold" stroke="black" cx="477.32" cy="-54" rx="18" ry="18"/>
<text text-anchor="middle" x="477.32" y="-48.57" font-family="Helvetica,sans-Serif" font-size="14.00">user</text>
</g>
<!-- u1_access&#45;&gt;access -->
<g id="edge29" class="edge">
<title>u1_access&#45;&gt;access</title>
<path fill="none" stroke="white" d="M477.18,-72.25C477.01,-96.04 476.7,-138.94 476.44,-175.49"/>
<polygon fill="white" stroke="white" points="472.94,-175.07 476.37,-185.09 479.94,-175.12 472.94,-175.07"/>
</g>
<!-- u2_access -->
<!-- u2_access&#45;&gt;access -->
<g id="edge30" class="edge">
<title>u2_access&#45;&gt;access</title>
</g>
<!-- u1_kiost -->
<g id="node24" class="node">
<title>u1_kiost</title>
<ellipse fill="salmon" stroke="black" cx="706.41" cy="-207.08" rx="18" ry="18"/>
<text text-anchor="middle" x="706.41" y="-201.65" font-family="Helvetica,sans-Serif" font-size="14.00">user</text>
</g>
<!-- u1_kiost&#45;&gt;kiost -->
<g id="edge31" class="edge">
<title>u1_kiost&#45;&gt;kiost</title>
<path fill="none" stroke="white" d="M693.66,-219.65C676.8,-236.26 646.19,-266.44 620.07,-292.18"/>
<polygon fill="white" stroke="white" points="617.87,-289.44 613.2,-298.95 622.78,-294.42 617.87,-289.44"/>
</g>
<!-- u2_kiost -->
<!-- u2_kiost&#45;&gt;kiost -->
<g id="edge32" class="edge">
<title>u2_kiost&#45;&gt;kiost</title>
</g>
<!-- forks -->
<g id="node26" class="node">
<title>forks</title>
<polygon fill="none" stroke="none" points="990.71,-530.43 882.71,-530.43 882.71,-494.43 990.71,-494.43 990.71,-530.43"/>
<text text-anchor="middle" x="936.71" y="-514.88" font-family="Helvetica,sans-Serif" font-size="14.00" fill="white">GitHub</text>
<text text-anchor="middle" x="936.71" y="-499.13" font-family="Helvetica,sans-Serif" font-size="14.00" fill="white">forks</text>
</g>
<!-- forks&#45;&gt;u1_gfdl -->
<g id="edge33" class="edge">
<title>forks&#45;&gt;u1_gfdl</title>
<path fill="none" stroke="white" d="M882.78,-501.7C851.97,-495.58 814.54,-488.13 789.2,-483.09"/>
<polygon fill="white" stroke="white" points="790.12,-479.71 779.63,-481.19 788.76,-486.57 790.12,-479.71"/>
</g>
<!-- forks&#45;&gt;u1_ncar -->
<g id="edge34" class="edge">
<title>forks&#45;&gt;u1_ncar</title>
<path fill="none" stroke="white" d="M906.29,-530.33C841.79,-568.29 692.32,-656.25 632.5,-691.45"/>
<polygon fill="white" stroke="white" points="630.88,-688.35 624.04,-696.43 634.43,-694.38 630.88,-688.35"/>
</g>
</g>
</svg>
