<?xml version="1.0" encoding="UTF-8" standalone="no"?>
<!DOCTYPE svg PUBLIC "-//W3C//DTD SVG 1.1//EN"
 "http://www.w3.org/Graphics/SVG/1.1/DTD/svg11.dtd">
<!-- Generated by graphviz version 9.0.0 (0)
 -->
<!-- Title: git_no_ff Pages: 1 -->
<svg width="254pt" height="455pt"
 viewBox="0.00 0.00 253.70 454.79" xmlns="http://www.w3.org/2000/svg" xmlns:xlink="http://www.w3.org/1999/xlink">
<g id="graph0" class="graph" transform="scale(1 1) rotate(0) translate(4 450.79)">
<title>git_no_ff</title>
<!-- me -->
<g id="node1" class="node">
<title>me</title>
<polygon fill="none" stroke="none" stroke-width="0" points="122.45,-22.95 61.25,-22.95 61.25,0 122.45,0 122.45,-22.95"/>
<text text-anchor="middle" x="91.85" y="-6.05" font-family="Inconsolata" font-size="14.00" fill="white">dev/gfdl</text>
</g>
<!-- ae -->
<g id="node2" class="node">
<title>ae</title>
<polygon fill="none" stroke="none" stroke-width="0" points="245.7,-22.95 198,-22.95 198,0 245.7,0 245.7,-22.95"/>
<text text-anchor="middle" x="221.85" y="-6.05" font-family="Inconsolata" font-size="14.00" fill="white">user/a</text>
</g>
<!-- be -->
<g id="node3" class="node">
<title>be</title>
<polygon fill="none" stroke="none" stroke-width="0" points="47.7,-22.95 0,-22.95 0,0 47.7,0 47.7,-22.95"/>
<text text-anchor="middle" x="23.85" y="-6.05" font-family="Inconsolata" font-size="14.00" fill="white">user/b</text>
</g>
<!-- ce -->
<g id="node4" class="node">
<title>ce</title>
<polygon fill="none" stroke="none" stroke-width="0" points="183.7,-22.95 136,-22.95 136,0 183.7,0 183.7,-22.95"/>
<text text-anchor="middle" x="159.85" y="-6.05" font-family="Inconsolata" font-size="14.00" fill="white">user/c</text>
</g>
<!-- m1 -->
<g id="node5" class="node">
<title>m1</title>
<ellipse fill="#56b4e9" stroke="black" stroke-width="2" cx="91.85" cy="-416.15" rx="7.2" ry="7.2"/>
</g>
<!-- mb1 -->
<g id="node6" class="node">
<title>mb1</title>
<ellipse fill="#f0e442" stroke="black" stroke-width="2" cx="91.85" cy="-343.35" rx="7.2" ry="7.2"/>
</g>
<!-- m1&#45;&gt;mb1 -->
<g id="edge1" class="edge">
<title>m1&#45;&gt;mb1</title>
<path fill="none" stroke="white" stroke-width="2" d="M91.85,-408.1C91.85,-397.82 91.85,-378.32 91.85,-363.58"/>
<polygon fill="white" stroke="white" stroke-width="2" points="91.85,-353.81 96.35,-363.81 92.35,-356.37 92.35,-363.81 91.85,-363.81 91.35,-363.81 91.35,-356.37 87.35,-363.81 91.85,-353.81"/>
</g>
<!-- b1 -->
<g id="node20" class="node">
<title>b1</title>
<ellipse fill="#f0e442" fill-opacity="0.501961" stroke="#000000" stroke-width="2" stroke-opacity="0.501961" cx="23.85" cy="-379.75" rx="7.2" ry="7.2"/>
</g>
<!-- m1&#45;&gt;b1 -->
<g id="edge17" class="edge">
<title>m1&#45;&gt;b1</title>
<path fill="none" stroke="white" stroke-width="2" d="M85.08,-411.73C75,-406.63 55.7,-396.86 41.45,-389.66"/>
<polygon fill="white" stroke="white" stroke-width="2" points="32.77,-385.26 43.72,-385.76 35.28,-385.97 41.91,-389.33 41.69,-389.77 41.46,-390.22 34.83,-386.86 39.66,-393.79 32.77,-385.26"/>
</g>
<!-- ma1 -->
<g id="node7" class="node">
<title>ma1</title>
<ellipse fill="#cc79a7" stroke="black" stroke-width="2" cx="91.85" cy="-270.55" rx="7.2" ry="7.2"/>
</g>
<!-- mb1&#45;&gt;ma1 -->
<g id="edge2" class="edge">
<title>mb1&#45;&gt;ma1</title>
<path fill="none" stroke="white" stroke-width="2" d="M91.85,-335.3C91.85,-325.02 91.85,-305.52 91.85,-290.78"/>
<polygon fill="white" stroke="white" stroke-width="2" points="91.85,-281.01 96.35,-291.01 92.35,-283.57 92.35,-291.01 91.85,-291.01 91.35,-291.01 91.35,-283.57 87.35,-291.01 91.85,-281.01"/>
</g>
<!-- a1 -->
<g id="node14" class="node">
<title>a1</title>
<ellipse fill="#cc79a7" fill-opacity="0.501961" stroke="#000000" stroke-width="2" stroke-opacity="0.501961" cx="221.85" cy="-306.95" rx="7.2" ry="7.2"/>
</g>
<!-- mb1&#45;&gt;a1 -->
<g id="edge18" class="edge">
<title>mb1&#45;&gt;a1</title>
<path fill="none" stroke="white" stroke-width="2" d="M99.21,-340.4C118.87,-335.2 173.1,-320.85 202.42,-313.09"/>
<polygon fill="white" stroke="white" stroke-width="2" points="211.89,-310.59 203.37,-317.49 209.54,-311.72 202.35,-313.63 202.22,-313.14 202.09,-312.66 209.28,-310.76 201.07,-308.79 211.89,-310.59"/>
</g>
<!-- ma2 -->
<g id="node8" class="node">
<title>ma2</title>
<ellipse fill="#cc79a7" stroke="black" stroke-width="2" cx="91.85" cy="-234.15" rx="7.2" ry="7.2"/>
</g>
<!-- ma1&#45;&gt;ma2 -->
<g id="edge3" class="edge">
<title>ma1&#45;&gt;ma2</title>
<path fill="none" stroke="white" stroke-width="2" d="M91.85,-262.59C91.85,-260.16 91.85,-257.31 91.85,-254.38"/>
<polygon fill="white" stroke="white" stroke-width="2" points="91.85,-244.54 96.35,-254.54 92.35,-247.1 92.35,-254.54 91.85,-254.54 91.35,-254.54 91.35,-247.1 87.35,-254.54 91.85,-244.54"/>
</g>
<!-- ma3 -->
<g id="node9" class="node">
<title>ma3</title>
<ellipse fill="#cc79a7" stroke="black" stroke-width="2" cx="91.85" cy="-161.35" rx="7.2" ry="7.2"/>
</g>
<!-- ma2&#45;&gt;ma3 -->
<g id="edge4" class="edge">
<title>ma2&#45;&gt;ma3</title>
<path fill="none" stroke="white" stroke-width="2" d="M91.85,-226.1C91.85,-215.82 91.85,-196.32 91.85,-181.58"/>
<polygon fill="white" stroke="white" stroke-width="2" points="91.85,-171.81 96.35,-181.81 92.35,-174.37 92.35,-181.81 91.85,-181.81 91.35,-181.81 91.35,-174.37 87.35,-181.81 91.85,-171.81"/>
</g>
<!-- a3 -->
<g id="node16" class="node">
<title>a3</title>
<ellipse fill="#cc79a7" fill-opacity="0.501961" stroke="#000000" stroke-width="2" stroke-opacity="0.501961" cx="221.85" cy="-197.75" rx="7.2" ry="7.2"/>
</g>
<!-- ma2&#45;&gt;a3 -->
<g id="edge19" class="edge">
<title>ma2&#45;&gt;a3</title>
<path fill="none" stroke="white" stroke-width="2" d="M99.21,-231.2C118.87,-226 173.1,-211.65 202.42,-203.89"/>
<polygon fill="white" stroke="white" stroke-width="2" points="211.89,-201.39 203.37,-208.29 209.54,-202.52 202.35,-204.43 202.22,-203.94 202.09,-203.46 209.28,-201.56 201.07,-199.59 211.89,-201.39"/>
</g>
<!-- ma4 -->
<g id="node10" class="node">
<title>ma4</title>
<ellipse fill="#cc79a7" stroke="black" stroke-width="2" cx="91.85" cy="-124.95" rx="7.2" ry="7.2"/>
</g>
<!-- ma3&#45;&gt;ma4 -->
<g id="edge5" class="edge">
<title>ma3&#45;&gt;ma4</title>
<path fill="none" stroke="white" stroke-width="2" d="M91.85,-153.39C91.85,-150.96 91.85,-148.11 91.85,-145.18"/>
<polygon fill="white" stroke="white" stroke-width="2" points="91.85,-135.34 96.35,-145.34 92.35,-137.9 92.35,-145.34 91.85,-145.34 91.35,-145.34 91.35,-137.9 87.35,-145.34 91.85,-135.34"/>
</g>
<!-- mc1 -->
<g id="node11" class="node">
<title>mc1</title>
<ellipse fill="#009e73" stroke="black" stroke-width="2" cx="91.85" cy="-52.15" rx="7.2" ry="7.2"/>
</g>
<!-- ma4&#45;&gt;mc1 -->
<g id="edge6" class="edge">
<title>ma4&#45;&gt;mc1</title>
<path fill="none" stroke="white" stroke-width="2" d="M91.85,-116.9C91.85,-106.62 91.85,-87.12 91.85,-72.38"/>
<polygon fill="white" stroke="white" stroke-width="2" points="91.85,-62.61 96.35,-72.61 92.35,-65.17 92.35,-72.61 91.85,-72.61 91.35,-72.61 91.35,-65.17 87.35,-72.61 91.85,-62.61"/>
</g>
<!-- c1 -->
<g id="node13" class="node">
<title>c1</title>
<ellipse fill="#009e73" fill-opacity="0.501961" stroke="#000000" stroke-width="2" stroke-opacity="0.501961" cx="159.85" cy="-88.55" rx="7.2" ry="7.2"/>
</g>
<!-- ma4&#45;&gt;c1 -->
<g id="edge20" class="edge">
<title>ma4&#45;&gt;c1</title>
<path fill="none" stroke="white" stroke-width="2" d="M98.62,-120.53C108.7,-115.43 128,-105.66 142.25,-98.46"/>
<polygon fill="white" stroke="white" stroke-width="2" points="150.93,-94.06 144.04,-102.59 148.87,-95.66 142.24,-99.02 142.01,-98.57 141.79,-98.13 148.42,-94.77 139.98,-94.56 150.93,-94.06"/>
</g>
<!-- mc1&#45;&gt;me -->
<g id="edge8" class="edge">
<title>mc1&#45;&gt;me</title>
<path fill="none" stroke="lightgray" stroke-width="2" stroke-dasharray="5,2" d="M91.85,-44.06C91.85,-38.12 91.85,-29.58 91.85,-22.88"/>
</g>
<!-- ms -->
<g id="node12" class="node">
<title>ms</title>
<ellipse fill="#56b4e9" stroke="black" stroke-width="0" cx="91.85" cy="-446.07" rx="0.72" ry="0.72"/>
</g>
<!-- ms&#45;&gt;m1 -->
<g id="edge7" class="edge">
<title>ms&#45;&gt;m1</title>
<path fill="none" stroke="white" stroke-width="2" d="M91.85,-445.27C91.85,-444.69 91.85,-441.01 91.85,-436.51"/>
<polygon fill="white" stroke="white" stroke-width="2" points="91.85,-426.6 96.35,-436.6 92.35,-429.17 92.35,-436.6 91.85,-436.6 91.35,-436.6 91.35,-429.17 87.35,-436.6 91.85,-426.6"/>
</g>
<!-- c1&#45;&gt;ce -->
<g id="edge9" class="edge">
<title>c1&#45;&gt;ce</title>
<path fill="none" stroke="lightgray" stroke-width="2" stroke-dasharray="5,2" d="M159.85,-80.35C159.85,-66.99 159.85,-38.32 159.85,-22.86"/>
</g>
<!-- c1&#45;&gt;mc1 -->
<g id="edge26" class="edge">
<title>c1&#45;&gt;mc1</title>
<path fill="none" stroke="lightgray" stroke-width="2" stroke-dasharray="1,5" d="M153.08,-84.13C143,-79.03 123.7,-69.26 109.45,-62.06"/>
<polygon fill="lightgray" stroke="lightgray" stroke-width="2" points="100.77,-57.66 111.72,-58.16 103.28,-58.37 109.91,-61.73 109.69,-62.17 109.46,-62.62 102.83,-59.26 107.66,-66.19 100.77,-57.66"/>
</g>
<!-- a1&#45;&gt;ma1 -->
<g id="edge21" class="edge">
<title>a1&#45;&gt;ma1</title>
<path fill="none" stroke="lightgray" stroke-width="2" stroke-dasharray="1,5" d="M214.49,-304C194.83,-298.8 140.6,-284.45 111.28,-276.69"/>
<polygon fill="lightgray" stroke="lightgray" stroke-width="2" points="101.81,-274.19 112.63,-272.39 104.42,-274.36 111.61,-276.26 111.48,-276.74 111.35,-277.23 104.16,-275.32 110.33,-281.09 101.81,-274.19"/>
</g>
<!-- a2 -->
<g id="node15" class="node">
<title>a2</title>
<ellipse fill="#cc79a7" fill-opacity="0.501961" stroke="#000000" stroke-width="2" stroke-opacity="0.501961" cx="221.85" cy="-270.55" rx="7.2" ry="7.2"/>
</g>
<!-- a1&#45;&gt;a2 -->
<g id="edge10" class="edge">
<title>a1&#45;&gt;a2</title>
<path fill="none" stroke="white" stroke-width="2" d="M221.85,-298.99C221.85,-296.56 221.85,-293.71 221.85,-290.78"/>
<polygon fill="white" stroke="white" stroke-width="2" points="221.85,-280.94 226.35,-290.94 222.35,-283.5 222.35,-290.94 221.85,-290.94 221.35,-290.94 221.35,-283.5 217.35,-290.94 221.85,-280.94"/>
</g>
<!-- a2&#45;&gt;ma2 -->
<g id="edge22" class="edge">
<title>a2&#45;&gt;ma2</title>
<path fill="none" stroke="lightgray" stroke-width="2" stroke-dasharray="1,5" d="M214.49,-267.6C194.83,-262.4 140.6,-248.05 111.28,-240.29"/>
<polygon fill="lightgray" stroke="lightgray" stroke-width="2" points="101.81,-237.79 112.63,-235.99 104.42,-237.96 111.61,-239.86 111.48,-240.34 111.35,-240.83 104.16,-238.92 110.33,-244.69 101.81,-237.79"/>
</g>
<!-- a2&#45;&gt;a3 -->
<g id="edge13" class="edge">
<title>a2&#45;&gt;a3</title>
<path fill="none" stroke="lightgray" stroke-width="2" stroke-dasharray="5,2" d="M221.85,-262.5C221.85,-248.93 221.85,-219.32 221.85,-205.77"/>
</g>
<!-- a3&#45;&gt;ma3 -->
<g id="edge23" class="edge">
<title>a3&#45;&gt;ma3</title>
<path fill="none" stroke="lightgray" stroke-width="2" stroke-dasharray="1,5" d="M214.49,-194.8C194.83,-189.6 140.6,-175.25 111.28,-167.49"/>
<polygon fill="lightgray" stroke="lightgray" stroke-width="2" points="101.81,-164.99 112.63,-163.19 104.42,-165.16 111.61,-167.06 111.48,-167.54 111.35,-168.03 104.16,-166.12 110.33,-171.89 101.81,-164.99"/>
</g>
<!-- a4 -->
<g id="node17" class="node">
<title>a4</title>
<ellipse fill="#cc79a7" fill-opacity="0.501961" stroke="#000000" stroke-width="2" stroke-opacity="0.501961" cx="221.85" cy="-161.35" rx="7.2" ry="7.2"/>
</g>
<!-- a3&#45;&gt;a4 -->
<g id="edge11" class="edge">
<title>a3&#45;&gt;a4</title>
<path fill="none" stroke="white" stroke-width="2" d="M221.85,-189.79C221.85,-187.36 221.85,-184.51 221.85,-181.58"/>
<polygon fill="white" stroke="white" stroke-width="2" points="221.85,-171.74 226.35,-181.74 222.35,-174.3 222.35,-181.74 221.85,-181.74 221.35,-181.74 221.35,-174.3 217.35,-181.74 221.85,-171.74"/>
</g>
<!-- a4&#45;&gt;ae -->
<g id="edge14" class="edge">
<title>a4&#45;&gt;ae</title>
<path fill="none" stroke="lightgray" stroke-width="2" stroke-dasharray="5,2" d="M221.85,-153.22C221.85,-129.22 221.85,-51.31 221.85,-22.93"/>
</g>
<!-- a4&#45;&gt;ma4 -->
<g id="edge24" class="edge">
<title>a4&#45;&gt;ma4</title>
<path fill="none" stroke="lightgray" stroke-width="2" stroke-dasharray="1,5" d="M214.49,-158.4C194.83,-153.2 140.6,-138.85 111.28,-131.09"/>
<polygon fill="lightgray" stroke="lightgray" stroke-width="2" points="101.81,-128.59 112.63,-126.79 104.42,-128.76 111.61,-130.66 111.48,-131.14 111.35,-131.63 104.16,-129.72 110.33,-135.49 101.81,-128.59"/>
</g>
<!-- as -->
<g id="node18" class="node">
<title>as</title>
<ellipse fill="#cc79a7" fill-opacity="0.501961" stroke="#000000" stroke-width="0" stroke-opacity="0.501961" cx="221.85" cy="-446.07" rx="0.72" ry="0.72"/>
</g>
<!-- as&#45;&gt;a1 -->
<g id="edge12" class="edge">
<title>as&#45;&gt;a1</title>
<path fill="none" stroke="lightgray" stroke-width="2" stroke-dasharray="5,2" d="M221.85,-445.25C221.85,-441.67 221.85,-342.84 221.85,-315.12"/>
</g>
<!-- bs -->
<g id="node19" class="node">
<title>bs</title>
<ellipse fill="#f0e442" fill-opacity="0.501961" stroke="#000000" stroke-width="0" stroke-opacity="0.501961" cx="23.85" cy="-446.07" rx="0.72" ry="0.72"/>
</g>
<!-- bs&#45;&gt;b1 -->
<g id="edge15" class="edge">
<title>bs&#45;&gt;b1</title>
<path fill="none" stroke="lightgray" stroke-width="2" stroke-dasharray="5,2" d="M23.85,-445.3C23.85,-443.76 23.85,-404.46 23.85,-387.95"/>
</g>
<!-- b1&#45;&gt;be -->
<g id="edge16" class="edge">
<title>b1&#45;&gt;be</title>
<path fill="none" stroke="lightgray" stroke-width="2" stroke-dasharray="5,2" d="M23.85,-371.72C23.85,-358.99 23.85,-331.3 23.85,-307.95 23.85,-307.95 23.85,-307.95 23.85,-87.55 23.85,-64.35 23.85,-37.12 23.85,-22.68"/>
</g>
<!-- b1&#45;&gt;mb1 -->
<g id="edge25" class="edge">
<title>b1&#45;&gt;mb1</title>
<path fill="none" stroke="lightgray" stroke-width="2" stroke-dasharray="1,5" d="M30.62,-375.33C40.7,-370.23 60,-360.46 74.25,-353.26"/>
<polygon fill="lightgray" stroke="lightgray" stroke-width="2" points="82.93,-348.86 76.04,-357.39 80.87,-350.46 74.24,-353.82 74.01,-353.37 73.79,-352.93 80.42,-349.57 71.98,-349.36 82.93,-348.86"/>
</g>
</g>
</svg>
