<?xml version="1.0" encoding="UTF-8" standalone="no"?>
<!DOCTYPE svg PUBLIC "-//W3C//DTD SVG 1.1//EN"
 "http://www.w3.org/Graphics/SVG/1.1/DTD/svg11.dtd">
<!-- Generated by graphviz version 9.0.0 (0)
 -->
<!-- Title: git_ff Pages: 1 -->
<svg width="140pt" height="212pt"
 viewBox="0.00 0.00 139.70 212.39" xmlns="http://www.w3.org/2000/svg" xmlns:xlink="http://www.w3.org/1999/xlink">
<g id="graph0" class="graph" transform="scale(1 1) rotate(0) translate(4 208.39)">
<title>git_ff</title>
<polygon fill="white" stroke="none" points="-4,4 -4,-208.39 135.7,-208.39 135.7,4 -4,4"/>
<!-- m1&#45;&gt;m2 -->
<g id="edge1" class="edge">
<title>m1&#45;&gt;m2</title>
<path fill="none" stroke="black" stroke-width="2" d="M114.6,-169.7C114.6,-168.47 114.6,-167.14 114.6,-165.76"/>
<polygon fill="black" stroke="black" stroke-width="2" points="114.6,-155.8 119.1,-165.8 115.1,-158.36 115.1,-165.8 114.6,-165.8 114.1,-165.8 114.1,-158.36 110.1,-165.8 114.6,-155.8"/>
</g>
<!-- m2&#45;&gt;m3ff -->
<g id="edge2" class="edge">
<title>m2&#45;&gt;m3ff</title>
<path fill="none" stroke="black" stroke-width="2" d="M114.6,-137.63C114.6,-128.89 114.6,-113.27 114.6,-100.73"/>
<polygon fill="black" stroke="black" stroke-width="2" points="114.6,-90.85 119.1,-100.85 115.1,-93.41 115.1,-100.85 114.6,-100.85 114.1,-100.85 114.1,-93.41 110.1,-100.85 114.6,-90.85"/>
</g>
<!-- m2&#45;&gt;d1 -->
<g id="edge9" class="edge">
<title>m2&#45;&gt;d1</title>
<path fill="none" stroke="#666666" stroke-width="2" d="M107.44,-141.76C94.67,-137.14 67.59,-127.34 49.23,-120.69"/>
<polygon fill="#666666" stroke="#666666" stroke-width="2" points="40.04,-117.36 50.97,-116.54 42.62,-117.77 49.61,-120.3 49.44,-120.77 49.27,-121.24 42.28,-118.71 47.91,-125 40.04,-117.36"/>
</g>
<!-- m3ff&#45;&gt;m4ff -->
<g id="edge3" class="edge">
<title>m3ff&#45;&gt;m4ff</title>
<path fill="none" stroke="black" stroke-width="2" d="M114.6,-72.5C114.6,-71.27 114.6,-69.94 114.6,-68.56"/>
<polygon fill="black" stroke="black" stroke-width="2" points="114.6,-58.6 119.1,-68.6 115.1,-61.16 115.1,-68.6 114.6,-68.6 114.1,-68.6 114.1,-61.16 110.1,-68.6 114.6,-58.6"/>
</g>
<!-- m4ff&#45;&gt;me -->
<g id="edge5" class="edge">
<title>m4ff&#45;&gt;me</title>
<path fill="none" stroke="gray" stroke-width="2" stroke-dasharray="5,2" d="M114.6,-40.13C114.6,-35.15 114.6,-28.37 114.6,-22.77"/>
</g>
<!-- ms&#45;&gt;m1 -->
<g id="edge4" class="edge">
<title>ms&#45;&gt;m1</title>
<path fill="none" stroke="gray" stroke-width="2" stroke-dasharray="5,2" d="M114.6,-202.88C114.6,-201.97 114.6,-192.32 114.6,-185.51"/>
</g>
<!-- d1&#45;&gt;m3ff -->
<g id="edge10" class="edge">
<title>d1&#45;&gt;m3ff</title>
<path fill="none" stroke="gray" stroke-width="2" stroke-dasharray="5,2" d="M37.76,-109.36C50.53,-104.74 77.61,-94.94 95.97,-88.29"/>
<polygon fill="gray" stroke="gray" stroke-width="2" points="105.16,-84.96 97.29,-92.6 102.92,-86.31 95.93,-88.84 95.76,-88.37 95.59,-87.9 102.58,-85.37 94.23,-84.14 105.16,-84.96"/>
</g>
<!-- d1&#45;&gt;d2 -->
<g id="edge6" class="edge">
<title>d1&#45;&gt;d2</title>
<path fill="none" stroke="black" stroke-width="2" d="M30.6,-104.9C30.6,-103.67 30.6,-102.34 30.6,-100.96"/>
<polygon fill="black" stroke="black" stroke-width="2" points="30.6,-91 35.1,-101 31.1,-93.56 31.1,-101 30.6,-101 30.1,-101 30.1,-93.56 26.1,-101 30.6,-91"/>
</g>
<!-- d2&#45;&gt;de -->
<g id="edge8" class="edge">
<title>d2&#45;&gt;de</title>
<path fill="none" stroke="gray" stroke-width="2" stroke-dasharray="5,2" d="M30.6,-72.37C30.6,-60.48 30.6,-36.63 30.6,-22.88"/>
</g>
<!-- d2&#45;&gt;m4ff -->
<g id="edge11" class="edge">
<title>d2&#45;&gt;m4ff</title>
<path fill="none" stroke="gray" stroke-width="2" stroke-dasharray="5,2" d="M37.76,-76.96C50.53,-72.34 77.61,-62.54 95.97,-55.89"/>
<polygon fill="gray" stroke="gray" stroke-width="2" points="105.16,-52.56 97.29,-60.2 102.92,-53.91 95.93,-56.44 95.76,-55.97 95.59,-55.5 102.58,-52.97 94.23,-51.74 105.16,-52.56"/>
</g>
<!-- ds&#45;&gt;d1 -->
<g id="edge7" class="edge">
<title>ds&#45;&gt;d1</title>
<path fill="none" stroke="gray" stroke-width="2" stroke-dasharray="5,2" d="M30.6,-202.89C30.6,-200.66 30.6,-141.69 30.6,-121.02"/>
</g>
<!-- me -->
<g id="node1" class="node">
<title>me</title>
<polygon fill="none" stroke="none" stroke-width="0" points="131.7,-22.95 97.5,-22.95 97.5,0 131.7,0 131.7,-22.95"/>
<text text-anchor="middle" x="114.6" y="-6.05" font-family="Inconsolata" font-size="14.00">main</text>
</g>
<!-- de -->
<g id="node2" class="node">
<title>de</title>
<polygon fill="none" stroke="none" stroke-width="0" points="61.2,-22.95 0,-22.95 0,0 61.2,0 61.2,-22.95"/>
<text text-anchor="middle" x="30.6" y="-6.05" font-family="Inconsolata" font-size="14.00">dev/gfdl</text>
</g>
<!-- m1 -->
<g id="node3" class="node">
<title>m1</title>
<ellipse fill="#27e4f9" stroke="black" stroke-width="2" cx="114.6" cy="-177.75" rx="7.2" ry="7.2"/>
</g>
<!-- m2 -->
<g id="node4" class="node">
<title>m2</title>
<ellipse fill="#27e4f9" stroke="black" stroke-width="2" cx="114.6" cy="-145.35" rx="7.2" ry="7.2"/>
</g>
<!-- m3ff -->
<g id="node5" class="node">
<title>m3ff</title>
<ellipse fill="#27e4f9" stroke="black" stroke-width="2" cx="114.6" cy="-80.55" rx="7.2" ry="7.2"/>
</g>
<!-- m4ff -->
<g id="node6" class="node">
<title>m4ff</title>
<ellipse fill="#27e4f9" stroke="black" stroke-width="2" cx="114.6" cy="-48.15" rx="7.2" ry="7.2"/>
</g>
<!-- ms -->
<g id="node7" class="node">
<title>ms</title>
<ellipse fill="#27e4f9" stroke="black" stroke-width="0" cx="114.6" cy="-203.67" rx="0.72" ry="0.72"/>
</g>
<!-- d1 -->
<g id="node8" class="node">
<title>d1</title>
<ellipse fill="magenta" stroke="#666666" stroke-width="2" cx="30.6" cy="-112.95" rx="7.2" ry="7.2"/>
</g>
<!-- d2 -->
<g id="node9" class="node">
<title>d2</title>
<ellipse fill="magenta" stroke="#666666" stroke-width="2" cx="30.6" cy="-80.55" rx="7.2" ry="7.2"/>
</g>
<!-- ds -->
<g id="node10" class="node">
<title>ds</title>
<ellipse fill="magenta" stroke="#666666" stroke-width="0" cx="30.6" cy="-203.67" rx="0.72" ry="0.72"/>
</g>
</g>
</svg>
