<?xml version="1.0" encoding="UTF-8" standalone="no"?>
<!DOCTYPE svg PUBLIC "-//W3C//DTD SVG 1.1//EN"
 "http://www.w3.org/Graphics/SVG/1.1/DTD/svg11.dtd">
<!-- Generated by graphviz version 9.0.0 (0)
 -->
<!-- Title: git_no_ff Pages: 1 -->
<svg width="254pt" height="310pt"
 viewBox="0.00 0.00 253.70 309.59" xmlns="http://www.w3.org/2000/svg" xmlns:xlink="http://www.w3.org/1999/xlink">
<g id="graph0" class="graph" transform="scale(1 1) rotate(0) translate(4 305.59)">
<title>git_no_ff</title>
<!-- m1&#45;&gt;m2 -->
<g id="edge1" class="edge">
<title>m1&#45;&gt;m2</title>
<path fill="none" stroke="white" stroke-width="2" d="M153.85,-267.23C153.85,-258.49 153.85,-242.87 153.85,-230.33"/>
<polygon fill="white" stroke="white" stroke-width="2" points="153.85,-220.45 158.35,-230.45 154.35,-223.01 154.35,-230.45 153.85,-230.45 153.35,-230.45 153.35,-223.01 149.35,-230.45 153.85,-220.45"/>
</g>
<!-- m1&#45;&gt;a1 -->
<g id="edge16" class="edge">
<title>m1&#45;&gt;a1</title>
<path fill="none" stroke="white" stroke-width="2" d="M160.87,-270.81C170.95,-266.3 189.86,-257.85 203.96,-251.55"/>
<polygon fill="white" stroke="white" stroke-width="2" points="212.94,-247.53 205.65,-255.72 210.81,-249.03 204.02,-252.07 203.82,-251.61 203.61,-251.16 210.4,-248.12 201.98,-247.5 212.94,-247.53"/>
</g>
<!-- m1&#45;&gt;b1 -->
<g id="edge17" class="edge">
<title>m1&#45;&gt;b1</title>
<path fill="none" stroke="white" stroke-width="2" d="M146.49,-272.23C126.83,-267.63 72.6,-254.95 43.28,-248.09"/>
<polygon fill="white" stroke="white" stroke-width="2" points="33.83,-245.88 44.59,-243.78 36.44,-245.98 43.68,-247.67 43.57,-248.16 43.45,-248.65 36.21,-246.95 42.54,-252.54 33.83,-245.88"/>
</g>
<!-- m2&#45;&gt;m3 -->
<g id="edge2" class="edge">
<title>m2&#45;&gt;m3</title>
<path fill="none" stroke="white" stroke-width="2" d="M153.85,-202.1C153.85,-200.87 153.85,-199.54 153.85,-198.16"/>
<polygon fill="white" stroke="white" stroke-width="2" points="153.85,-188.2 158.35,-198.2 154.35,-190.76 154.35,-198.2 153.85,-198.2 153.35,-198.2 153.35,-190.76 149.35,-198.2 153.85,-188.2"/>
</g>
<!-- m2&#45;&gt;c1 -->
<g id="edge20" class="edge">
<title>m2&#45;&gt;c1</title>
<path fill="none" stroke="white" stroke-width="2" d="M148.51,-204.22C138.24,-194.73 115.38,-173.62 100.3,-159.69"/>
<polygon fill="white" stroke="white" stroke-width="2" points="93.14,-153.08 103.54,-156.56 95.36,-154.45 100.83,-159.5 100.49,-159.87 100.15,-160.23 94.68,-155.19 97.43,-163.17 93.14,-153.08"/>
</g>
<!-- m3&#45;&gt;m4 -->
<g id="edge3" class="edge">
<title>m3&#45;&gt;m4</title>
<path fill="none" stroke="white" stroke-width="2" d="M153.85,-169.59C153.85,-155.12 153.85,-121.94 153.85,-100.7"/>
<polygon fill="white" stroke="white" stroke-width="2" points="153.85,-90.97 158.35,-100.97 154.35,-93.53 154.35,-100.97 153.85,-100.97 153.35,-100.97 153.35,-93.53 149.35,-100.97 153.85,-90.97"/>
</g>
<!-- m3&#45;&gt;a3 -->
<g id="edge21" class="edge">
<title>m3&#45;&gt;a3</title>
<path fill="none" stroke="white" stroke-width="2" d="M160.87,-173.61C170.95,-169.1 189.86,-160.65 203.96,-154.35"/>
<polygon fill="white" stroke="white" stroke-width="2" points="212.94,-150.33 205.65,-158.52 210.81,-151.83 204.02,-154.87 203.82,-154.41 203.61,-153.96 210.4,-150.92 201.98,-150.3 212.94,-150.33"/>
</g>
<!-- m4&#45;&gt;m5 -->
<g id="edge4" class="edge">
<title>m4&#45;&gt;m5</title>
<path fill="none" stroke="white" stroke-width="2" d="M153.85,-72.5C153.85,-71.27 153.85,-69.94 153.85,-68.56"/>
<polygon fill="white" stroke="white" stroke-width="2" points="153.85,-58.6 158.35,-68.6 154.35,-61.16 154.35,-68.6 153.85,-68.6 153.35,-68.6 153.35,-61.16 149.35,-68.6 153.85,-58.6"/>
</g>
<!-- m5&#45;&gt;me -->
<g id="edge6" class="edge">
<title>m5&#45;&gt;me</title>
<path fill="none" stroke="lightgray" stroke-width="2" stroke-dasharray="5,2" d="M153.85,-40.13C153.85,-35.15 153.85,-28.37 153.85,-22.77"/>
</g>
<!-- ms&#45;&gt;m1 -->
<g id="edge5" class="edge">
<title>ms&#45;&gt;m1</title>
<path fill="none" stroke="white" stroke-width="2" d="M153.85,-300.08C153.85,-299.7 153.85,-297.76 153.85,-295.13"/>
<polygon fill="white" stroke="white" stroke-width="2" points="153.85,-285.14 158.35,-295.14 154.35,-287.71 154.35,-295.14 153.85,-295.14 153.35,-295.14 153.35,-287.71 149.35,-295.14 153.85,-285.14"/>
</g>
<!-- a1&#45;&gt;a2 -->
<g id="edge7" class="edge">
<title>a1&#45;&gt;a2</title>
<path fill="none" stroke="white" stroke-width="2" d="M221.85,-234.5C221.85,-233.27 221.85,-231.94 221.85,-230.56"/>
<polygon fill="white" stroke="white" stroke-width="2" points="221.85,-220.6 226.35,-230.6 222.35,-223.16 222.35,-230.6 221.85,-230.6 221.35,-230.6 221.35,-223.16 217.35,-230.6 221.85,-220.6"/>
</g>
<!-- a2&#45;&gt;m3 -->
<g id="edge18" class="edge">
<title>a2&#45;&gt;m3</title>
<path fill="none" stroke="white" stroke-width="2" d="M214.83,-206.01C204.75,-201.5 185.84,-193.05 171.74,-186.75"/>
<polygon fill="white" stroke="white" stroke-width="2" points="162.76,-182.73 173.72,-182.7 165.3,-183.32 172.09,-186.36 171.88,-186.81 171.68,-187.27 164.89,-184.23 170.05,-190.92 162.76,-182.73"/>
</g>
<!-- a2&#45;&gt;a3 -->
<g id="edge10" class="edge">
<title>a2&#45;&gt;a3</title>
<path fill="none" stroke="lightgray" stroke-width="2" stroke-dasharray="5,2" d="M221.85,-202.43C221.85,-190.41 221.85,-165.34 221.85,-153.21"/>
</g>
<!-- a3&#45;&gt;a4 -->
<g id="edge8" class="edge">
<title>a3&#45;&gt;a4</title>
<path fill="none" stroke="white" stroke-width="2" d="M221.85,-137.3C221.85,-136.07 221.85,-134.74 221.85,-133.36"/>
<polygon fill="white" stroke="white" stroke-width="2" points="221.85,-123.4 226.35,-133.4 222.35,-125.96 222.35,-133.4 221.85,-133.4 221.35,-133.4 221.35,-125.96 217.35,-133.4 221.85,-123.4"/>
</g>
<!-- a4&#45;&gt;ae -->
<g id="edge11" class="edge">
<title>a4&#45;&gt;ae</title>
<path fill="none" stroke="lightgray" stroke-width="2" stroke-dasharray="5,2" d="M221.85,-104.8C221.85,-87.42 221.85,-42.95 221.85,-22.74"/>
</g>
<!-- a4&#45;&gt;m4 -->
<g id="edge19" class="edge">
<title>a4&#45;&gt;m4</title>
<path fill="none" stroke="white" stroke-width="2" d="M214.83,-108.81C204.75,-104.3 185.84,-95.85 171.74,-89.55"/>
<polygon fill="white" stroke="white" stroke-width="2" points="162.76,-85.53 173.72,-85.5 165.3,-86.12 172.09,-89.16 171.88,-89.61 171.68,-90.07 164.89,-87.03 170.05,-93.72 162.76,-85.53"/>
</g>
<!-- as&#45;&gt;a1 -->
<g id="edge9" class="edge">
<title>as&#45;&gt;a1</title>
<path fill="none" stroke="lightgray" stroke-width="2" stroke-dasharray="5,2" d="M221.85,-299.99C221.85,-297.42 221.85,-265.06 221.85,-250.53"/>
</g>
<!-- b1&#45;&gt;be -->
<g id="edge13" class="edge">
<title>b1&#45;&gt;be</title>
<path fill="none" stroke="lightgray" stroke-width="2" stroke-dasharray="5,2" d="M23.85,-234.58C23.85,-222.99 23.85,-199.03 23.85,-178.75 23.85,-178.75 23.85,-178.75 23.85,-79.55 23.85,-59.52 23.85,-36.13 23.85,-22.93"/>
</g>
<!-- b1&#45;&gt;m2 -->
<g id="edge22" class="edge">
<title>b1&#45;&gt;m2</title>
<path fill="none" stroke="white" stroke-width="2" d="M31.21,-239.83C50.87,-235.23 105.1,-222.55 134.42,-215.69"/>
<polygon fill="white" stroke="white" stroke-width="2" points="143.87,-213.48 135.16,-220.14 141.49,-214.55 134.25,-216.25 134.13,-215.76 134.02,-215.27 141.26,-213.58 133.11,-211.38 143.87,-213.48"/>
</g>
<!-- bs&#45;&gt;b1 -->
<g id="edge12" class="edge">
<title>bs&#45;&gt;b1</title>
<path fill="none" stroke="lightgray" stroke-width="2" stroke-dasharray="5,2" d="M23.85,-299.99C23.85,-297.42 23.85,-265.06 23.85,-250.53"/>
</g>
<!-- c1&#45;&gt;ce -->
<g id="edge15" class="edge">
<title>c1&#45;&gt;ce</title>
<path fill="none" stroke="lightgray" stroke-width="2" stroke-dasharray="5,2" d="M85.85,-137.26C85.85,-115.32 85.85,-48.5 85.85,-22.75"/>
</g>
<!-- c1&#45;&gt;m5 -->
<g id="edge23" class="edge">
<title>c1&#45;&gt;m5</title>
<path fill="none" stroke="white" stroke-width="2" d="M90.1,-138.39C100.41,-123.97 126.99,-86.76 142.37,-65.22"/>
<polygon fill="white" stroke="white" stroke-width="2" points="148.18,-57.09 146.03,-67.84 147.1,-59.46 142.78,-65.51 142.37,-65.22 141.96,-64.93 146.28,-58.88 138.71,-62.61 148.18,-57.09"/>
</g>
<!-- cs&#45;&gt;c1 -->
<g id="edge14" class="edge">
<title>cs&#45;&gt;c1</title>
<path fill="none" stroke="lightgray" stroke-width="2" stroke-dasharray="5,2" d="M85.85,-300.06C85.85,-298.19 85.85,-267.92 85.85,-243.55 85.85,-243.55 85.85,-243.55 85.85,-209.15 85.85,-188.87 85.85,-164.91 85.85,-153.32"/>
</g>
<!-- me -->
<g id="node1" class="node">
<title>me</title>
<polygon fill="none" stroke="none" stroke-width="0" points="184.45,-22.95 123.25,-22.95 123.25,0 184.45,0 184.45,-22.95"/>
<text text-anchor="middle" x="153.85" y="-6.05" font-family="Inconsolata" font-size="14.00" fill="white">dev/gfdl</text>
</g>
<!-- ae -->
<g id="node2" class="node">
<title>ae</title>
<polygon fill="none" stroke="none" stroke-width="0" points="245.7,-22.95 198,-22.95 198,0 245.7,0 245.7,-22.95"/>
<text text-anchor="middle" x="221.85" y="-6.05" font-family="Inconsolata" font-size="14.00" fill="white">user/a</text>
</g>
<!-- be -->
<g id="node3" class="node">
<title>be</title>
<polygon fill="none" stroke="none" stroke-width="0" points="47.7,-22.95 0,-22.95 0,0 47.7,0 47.7,-22.95"/>
<text text-anchor="middle" x="23.85" y="-6.05" font-family="Inconsolata" font-size="14.00" fill="white">user/b</text>
</g>
<!-- ce -->
<g id="node4" class="node">
<title>ce</title>
<polygon fill="none" stroke="none" stroke-width="0" points="109.7,-22.95 62,-22.95 62,0 109.7,0 109.7,-22.95"/>
<text text-anchor="middle" x="85.85" y="-6.05" font-family="Inconsolata" font-size="14.00" fill="white">user/c</text>
</g>
<!-- m1 -->
<g id="node5" class="node">
<title>m1</title>
<ellipse fill="#56b4e9" stroke="black" stroke-width="2" cx="153.85" cy="-274.95" rx="7.2" ry="7.2"/>
</g>
<!-- m2 -->
<g id="node6" class="node">
<title>m2</title>
<ellipse fill="#56b4e9" stroke="black" stroke-width="2" cx="153.85" cy="-210.15" rx="7.2" ry="7.2"/>
</g>
<!-- m3 -->
<g id="node7" class="node">
<title>m3</title>
<ellipse fill="#56b4e9" stroke="black" stroke-width="2" cx="153.85" cy="-177.75" rx="7.2" ry="7.2"/>
</g>
<!-- m4 -->
<g id="node8" class="node">
<title>m4</title>
<ellipse fill="#56b4e9" stroke="black" stroke-width="2" cx="153.85" cy="-80.55" rx="7.2" ry="7.2"/>
</g>
<!-- m5 -->
<g id="node9" class="node">
<title>m5</title>
<ellipse fill="#56b4e9" stroke="black" stroke-width="2" cx="153.85" cy="-48.15" rx="7.2" ry="7.2"/>
</g>
<!-- ms -->
<g id="node10" class="node">
<title>ms</title>
<ellipse fill="#56b4e9" stroke="black" stroke-width="0" cx="153.85" cy="-300.87" rx="0.72" ry="0.72"/>
</g>
<!-- a1 -->
<g id="node11" class="node">
<title>a1</title>
<ellipse fill="#cc79a7" stroke="black" stroke-width="2" cx="221.85" cy="-242.55" rx="7.2" ry="7.2"/>
</g>
<!-- a2 -->
<g id="node12" class="node">
<title>a2</title>
<ellipse fill="#cc79a7" stroke="black" stroke-width="2" cx="221.85" cy="-210.15" rx="7.2" ry="7.2"/>
</g>
<!-- a3 -->
<g id="node13" class="node">
<title>a3</title>
<ellipse fill="#cc79a7" stroke="black" stroke-width="2" cx="221.85" cy="-145.35" rx="7.2" ry="7.2"/>
</g>
<!-- a4 -->
<g id="node14" class="node">
<title>a4</title>
<ellipse fill="#cc79a7" stroke="black" stroke-width="2" cx="221.85" cy="-112.95" rx="7.2" ry="7.2"/>
</g>
<!-- as -->
<g id="node15" class="node">
<title>as</title>
<ellipse fill="#cc79a7" stroke="black" stroke-width="0" cx="221.85" cy="-300.87" rx="0.72" ry="0.72"/>
</g>
<!-- b1 -->
<g id="node16" class="node">
<title>b1</title>
<ellipse fill="#f0e442" stroke="black" stroke-width="2" cx="23.85" cy="-242.55" rx="7.2" ry="7.2"/>
</g>
<!-- bs -->
<g id="node17" class="node">
<title>bs</title>
<ellipse fill="#f0e442" stroke="black" stroke-width="0" cx="23.85" cy="-300.87" rx="0.72" ry="0.72"/>
</g>
<!-- c1 -->
<g id="node18" class="node">
<title>c1</title>
<ellipse fill="#009e73" stroke="black" stroke-width="2" cx="85.85" cy="-145.35" rx="7.2" ry="7.2"/>
</g>
<!-- cs -->
<g id="node19" class="node">
<title>cs</title>
<ellipse fill="#009e73" stroke="black" stroke-width="0" cx="85.85" cy="-300.87" rx="0.72" ry="0.72"/>
</g>
</g>
</svg>
