<?xml version="1.0" encoding="UTF-8" standalone="no"?>
<!DOCTYPE svg PUBLIC "-//W3C//DTD SVG 1.1//EN"
 "http://www.w3.org/Graphics/SVG/1.1/DTD/svg11.dtd">
<!-- Generated by graphviz version 9.0.0 (0)
 -->
<!-- Title: testing Pages: 1 -->
<svg width="728pt" height="178pt"
 viewBox="0.00 0.00 727.68 178.02" xmlns="http://www.w3.org/2000/svg" xmlns:xlink="http://www.w3.org/1999/xlink">
<g id="graph0" class="graph" transform="scale(1 1) rotate(0) translate(4 174.02)">
<title>testing</title>
<!-- submit -->
<g id="node1" class="node">
<title>submit</title>
<ellipse fill="lightgrey" stroke="black" cx="52.15" cy="-106.44" rx="52.15" ry="52.15"/>
<text text-anchor="middle" x="52.15" y="-108.89" font-family="Helvetica,sans-Serif" font-size="14.00">Submit to</text>
<text text-anchor="middle" x="52.15" y="-93.14" font-family="Helvetica,sans-Serif" font-size="14.00">dev/gfdl</text>
</g>
<!-- ci -->
<g id="node2" class="node">
<title>ci</title>
<ellipse fill="lightgrey" stroke="black" cx="202.81" cy="-106.44" rx="58.51" ry="58.51"/>
<ellipse fill="none" stroke="black" cx="202.81" cy="-106.44" rx="62.51" ry="62.51"/>
<text text-anchor="middle" x="202.81" y="-108.89" font-family="Helvetica,sans-Serif" font-size="14.00">CI</text>
<text text-anchor="middle" x="202.81" y="-93.14" font-family="Helvetica,sans-Serif" font-size="14.00">Verification</text>
</g>
<!-- submit&#45;&gt;ci -->
<g id="edge1" class="edge">
<title>submit:e&#45;&gt;ci</title>
<path fill="none" stroke="white" d="M104.3,-106.44C112.12,-106.44 120.3,-106.44 128.45,-106.44"/>
<polygon fill="white" stroke="white" points="128.4,-109.94 138.4,-106.44 128.4,-102.94 128.4,-109.94"/>
</g>
<!-- ci&#45;&gt;submit -->
<g id="edge5" class="edge">
<title>ci:sw&#45;&gt;submit</title>
<path fill="none" stroke="white" d="M159.81,-62.44C156.9,-59.53 161.8,-46.76 158.81,-43.93 152.84,-38.27 148.13,-41.41 140.3,-43.93 126.17,-48.47 112.4,-56.24 100.12,-64.79"/>
<polygon fill="white" stroke="white" points="98.27,-61.81 92.27,-70.55 102.4,-67.46 98.27,-61.81"/>
</g>
<!-- review -->
<g id="node3" class="node">
<title>review</title>
<ellipse fill="lightgrey" stroke="black" cx="348.7" cy="-106.44" rx="47.38" ry="47.38"/>
<text text-anchor="middle" x="348.7" y="-108.89" font-family="Helvetica,sans-Serif" font-size="14.00">Review</text>
<text text-anchor="middle" x="348.7" y="-93.14" font-family="Helvetica,sans-Serif" font-size="14.00">changes</text>
</g>
<!-- ci&#45;&gt;review -->
<g id="edge2" class="edge">
<title>ci&#45;&gt;review</title>
<path fill="none" stroke="white" d="M265.67,-106.44C273.65,-106.44 281.8,-106.44 289.72,-106.44"/>
<polygon fill="white" stroke="white" points="289.59,-109.94 299.59,-106.44 289.59,-102.94 289.59,-109.94"/>
</g>
<!-- review&#45;&gt;submit -->
<g id="edge6" class="edge">
<title>review&#45;&gt;submit</title>
<path fill="none" stroke="white" d="M317.35,-70.44C303.17,-56.37 285.06,-41.85 265.32,-34.44 213.3,-14.91 192.59,-15.64 140.3,-34.44 124.54,-40.11 109.61,-49.99 96.7,-60.66"/>
<polygon fill="white" stroke="white" points="94.5,-57.93 89.25,-67.13 99.09,-63.22 94.5,-57.93"/>
</g>
<!-- regression -->
<g id="node4" class="node">
<title>regression</title>
<ellipse fill="lightgrey" stroke="black" cx="495.65" cy="-106.44" rx="59.57" ry="59.57"/>
<ellipse fill="none" stroke="black" cx="495.65" cy="-106.44" rx="63.57" ry="63.57"/>
<text text-anchor="middle" x="495.65" y="-108.89" font-family="Helvetica,sans-Serif" font-size="14.00">Regression</text>
<text text-anchor="middle" x="495.65" y="-93.14" font-family="Helvetica,sans-Serif" font-size="14.00">testing</text>
</g>
<!-- review&#45;&gt;regression -->
<g id="edge3" class="edge">
<title>review&#45;&gt;regression</title>
<path fill="none" stroke="white" d="M396.36,-106.44C404.01,-106.44 412.1,-106.44 420.23,-106.44"/>
<polygon fill="white" stroke="white" points="420.18,-109.94 430.18,-106.44 420.18,-102.94 420.18,-109.94"/>
</g>
<!-- regression&#45;&gt;submit -->
<g id="edge7" class="edge">
<title>regression&#45;&gt;submit</title>
<path fill="none" stroke="white" d="M441.68,-71.95C370.94,-30.52 242.67,28.26 140.3,-15.44 120.61,-23.85 103.23,-39.13 89.29,-54.8"/>
<polygon fill="white" stroke="white" points="86.68,-52.46 82.87,-62.35 92.02,-56.99 86.68,-52.46"/>
</g>
<!-- merge -->
<g id="node5" class="node">
<title>merge</title>
<ellipse fill="lightgrey" stroke="black" cx="657.45" cy="-106.44" rx="62.23" ry="62.23"/>
<text text-anchor="middle" x="657.45" y="-108.89" font-family="Helvetica,sans-Serif" font-size="14.00">Rebase into</text>
<text text-anchor="middle" x="657.45" y="-93.14" font-family="Helvetica,sans-Serif" font-size="14.00">dev/gfdl</text>
</g>
<!-- regression&#45;&gt;merge -->
<g id="edge4" class="edge">
<title>regression&#45;&gt;merge</title>
<path fill="none" stroke="white" d="M559.35,-106.44C567.31,-106.44 575.52,-106.44 583.62,-106.44"/>
<polygon fill="white" stroke="white" points="583.47,-109.94 593.47,-106.44 583.47,-102.94 583.47,-109.94"/>
</g>
</g>
</svg>
