<?xml version="1.0" encoding="UTF-8" standalone="no"?>
<!DOCTYPE svg PUBLIC "-//W3C//DTD SVG 1.1//EN"
 "http://www.w3.org/Graphics/SVG/1.1/DTD/svg11.dtd">
<!-- Generated by graphviz version 2.40.1 (0)
 -->
<!-- Title: testing Pages: 1 -->
<svg width="813pt" height="202pt"
 viewBox="0.00 0.00 812.88 202.20" xmlns="http://www.w3.org/2000/svg" xmlns:xlink="http://www.w3.org/1999/xlink">
<g id="graph0" class="graph" transform="scale(1 1) rotate(0) translate(4 198.1996)">
<title>testing</title>
<!-- submit -->
<g id="node1" class="node">
<title>submit</title>
<ellipse fill="#d3d3d3" stroke="#000000" cx="60.8112" cy="-121.6102" rx="60.623" ry="60.623"/>
<text text-anchor="middle" x="60.8112" y="-125.4102" font-family="Helvetica,sans-Serif" font-size="14.00" fill="#000000">Submit to</text>
<text text-anchor="middle" x="60.8112" y="-110.4102" font-family="Helvetica,sans-Serif" font-size="14.00" fill="#000000">dev/gfdl</text>
</g>
<!-- ci -->
<g id="node2" class="node">
<title>ci</title>
<ellipse fill="#d3d3d3" stroke="#000000" cx="230.2117" cy="-121.6102" rx="68.6739" ry="68.6739"/>
<ellipse fill="none" stroke="#000000" cx="230.2117" cy="-121.6102" rx="72.6788" ry="72.6788"/>
<text text-anchor="middle" x="230.2117" y="-125.4102" font-family="Helvetica,sans-Serif" font-size="14.00" fill="#000000">CI</text>
<text text-anchor="middle" x="230.2117" y="-110.4102" font-family="Helvetica,sans-Serif" font-size="14.00" fill="#000000">Verification</text>
</g>
<!-- submit&#45;&gt;ci -->
<g id="edge1" class="edge">
<title>submit:e&#45;&gt;ci</title>
<path fill="none" stroke="#ffffff" d="M121.6224,-121.6102C129.9557,-121.6102 138.6487,-121.6102 147.3288,-121.6102"/>
<polygon fill="#ffffff" stroke="#ffffff" points="147.4902,-125.1103 157.4902,-121.6102 147.4902,-118.1103 147.4902,-125.1103"/>
</g>
<!-- ci&#45;&gt;submit -->
<g id="edge5" class="edge">
<title>ci:sw&#45;&gt;submit</title>
<path fill="none" stroke="#ffffff" d="M178.2117,-69.6102C177.9258,-69.3242 158.006,-48.893 157.6224,-49.0208 141.9432,-54.2461 126.758,-63.1152 113.2438,-72.895"/>
<polygon fill="#ffffff" stroke="#ffffff" points="110.9272,-70.2585 105.0557,-79.0776 115.1453,-75.8449 110.9272,-70.2585"/>
</g>
<!-- review -->
<g id="node3" class="node">
<title>review</title>
<ellipse fill="#d3d3d3" stroke="#000000" cx="393.2483" cy="-121.6102" rx="54.3945" ry="54.3945"/>
<text text-anchor="middle" x="393.2483" y="-125.4102" font-family="Helvetica,sans-Serif" font-size="14.00" fill="#000000">Review</text>
<text text-anchor="middle" x="393.2483" y="-110.4102" font-family="Helvetica,sans-Serif" font-size="14.00" fill="#000000">changes</text>
</g>
<!-- ci&#45;&gt;review -->
<g id="edge2" class="edge">
<title>ci&#45;&gt;review</title>
<path fill="none" stroke="#ffffff" d="M303.1466,-121.6102C311.5852,-121.6102 320.1479,-121.6102 328.4676,-121.6102"/>
<polygon fill="#ffffff" stroke="#ffffff" points="328.4705,-125.1103 338.4705,-121.6102 328.4704,-118.1103 328.4705,-125.1103"/>
</g>
<!-- review&#45;&gt;submit -->
<g id="edge6" class="edge">
<title>review&#45;&gt;submit</title>
<path fill="none" stroke="#ffffff" d="M358.9255,-79.341C343.5922,-63.7317 324.1575,-47.85 302.8011,-39.6102 242.6024,-16.3841 218.2038,-17.4016 157.6224,-39.6102 139.9987,-46.0709 123.3804,-57.3169 109.0511,-69.4463"/>
<polygon fill="#ffffff" stroke="#ffffff" points="106.5198,-67.012 101.3341,-76.251 111.1495,-72.2624 106.5198,-67.012"/>
</g>
<!-- regression -->
<g id="node4" class="node">
<title>regression</title>
<ellipse fill="#d3d3d3" stroke="#000000" cx="554.8707" cy="-121.6102" rx="67.3409" ry="67.3409"/>
<ellipse fill="none" stroke="#000000" cx="554.8707" cy="-121.6102" rx="71.3507" ry="71.3507"/>
<text text-anchor="middle" x="554.8707" y="-125.4102" font-family="Helvetica,sans-Serif" font-size="14.00" fill="#000000">Regression</text>
<text text-anchor="middle" x="554.8707" y="-110.4102" font-family="Helvetica,sans-Serif" font-size="14.00" fill="#000000">testing</text>
</g>
<!-- review&#45;&gt;regression -->
<g id="edge3" class="edge">
<title>review&#45;&gt;regression</title>
<path fill="none" stroke="#ffffff" d="M447.9663,-121.6102C456.194,-121.6102 464.8259,-121.6102 473.4669,-121.6102"/>
<polygon fill="#ffffff" stroke="#ffffff" points="473.5912,-125.1103 483.5912,-121.6102 473.5911,-118.1103 473.5912,-125.1103"/>
</g>
<!-- regression&#45;&gt;submit -->
<g id="edge7" class="edge">
<title>regression&#45;&gt;submit</title>
<path fill="none" stroke="#ffffff" d="M495.4242,-82.2101C416.0545,-34.8881 272.1757,32.2588 157.6224,-17.6102 135.6552,-27.1733 116.4214,-44.4498 101.009,-62.2103"/>
<polygon fill="#ffffff" stroke="#ffffff" points="97.9147,-60.4562 94.2004,-70.3786 103.2917,-64.9381 97.9147,-60.4562"/>
</g>
<!-- merge -->
<g id="node5" class="node">
<title>merge</title>
<ellipse fill="#d3d3d3" stroke="#000000" cx="733.4636" cy="-121.6102" rx="71.3357" ry="71.3357"/>
<text text-anchor="middle" x="733.4636" y="-125.4102" font-family="Helvetica,sans-Serif" font-size="14.00" fill="#000000">Rebase into</text>
<text text-anchor="middle" x="733.4636" y="-110.4102" font-family="Helvetica,sans-Serif" font-size="14.00" fill="#000000">dev/gfdl</text>
</g>
<!-- regression&#45;&gt;merge -->
<g id="edge4" class="edge">
<title>regression&#45;&gt;merge</title>
<path fill="none" stroke="#ffffff" d="M626.2253,-121.6102C634.675,-121.6102 643.3483,-121.6102 651.9254,-121.6102"/>
<polygon fill="#ffffff" stroke="#ffffff" points="651.9309,-125.1103 661.9309,-121.6102 651.9308,-118.1103 651.9309,-125.1103"/>
</g>
</g>
</svg>
