<?xml version="1.0" encoding="UTF-8" standalone="no"?>
<!DOCTYPE svg PUBLIC "-//W3C//DTD SVG 1.1//EN"
 "http://www.w3.org/Graphics/SVG/1.1/DTD/svg11.dtd">
<!-- Generated by graphviz version 9.0.0 (0)
 -->
<!-- Title: testing Pages: 1 -->
<svg width="1213pt" height="647pt"
 viewBox="0.00 0.00 1213.00 647.36" xmlns="http://www.w3.org/2000/svg" xmlns:xlink="http://www.w3.org/1999/xlink">
<g id="graph0" class="graph" transform="scale(1 1) rotate(0) translate(4 643.36)">
<title>testing</title>
<g id="clust11" class="cluster">
<title>cluster_build</title>
<polygon fill="grey" stroke="black" points="77,-355.75 77,-503.5 804,-503.5 804,-355.75 77,-355.75"/>
<text text-anchor="middle" x="770.88" y="-486.2" font-family="Helvetica,sans-Serif" font-size="14.00" fill="white">Compile</text>
</g>
<g id="clust12" class="cluster">
<title>cluster_test</title>
<polygon fill="grey" stroke="black" points="8,-136 8,-283.75 1197,-283.75 1197,-136 8,-136"/>
<text text-anchor="middle" x="1160.5" y="-266.45" font-family="Helvetica,sans-Serif" font-size="14.00" fill="white">Run tests</text>
</g>
<!-- review -->
<g id="node1" class="node">
<title>review</title>
<ellipse fill="lightgrey" stroke="black" cx="436" cy="-621.36" rx="60.54" ry="18"/>
<text text-anchor="middle" x="436" y="-615.94" font-family="Helvetica,sans-Serif" font-size="14.00">Code review</text>
</g>
<!-- submit -->
<g id="node2" class="node">
<title>submit</title>
<ellipse fill="lightgrey" stroke="black" cx="436" cy="-539.43" rx="77.6" ry="27.93"/>
<text text-anchor="middle" x="436" y="-541.88" font-family="Helvetica,sans-Serif" font-size="14.00">Submit to Local</text>
<text text-anchor="middle" x="436" y="-526.13" font-family="Helvetica,sans-Serif" font-size="14.00">(Gaea)</text>
</g>
<!-- review&#45;&gt;submit -->
<g id="edge1" class="edge">
<title>review&#45;&gt;submit</title>
<path fill="none" stroke="black" d="M436,-603.02C436,-595.95 436,-587.47 436,-579.07"/>
<polygon fill="black" stroke="black" points="439.5,-579.31 436,-569.31 432.5,-579.31 439.5,-579.31"/>
</g>
<!-- build1 -->
<g id="node3" class="node">
<title>build1</title>
<ellipse fill="lightgrey" stroke="black" cx="640" cy="-453.75" rx="56.55" ry="18"/>
<text text-anchor="middle" x="640" y="-448.32" font-family="Helvetica,sans-Serif" font-size="14.00">Ocean only</text>
</g>
<!-- submit&#45;&gt;build1 -->
<g id="edge2" class="edge">
<title>submit&#45;&gt;build1</title>
<path fill="none" stroke="black" d="M486.43,-517.75C520.03,-503.96 563.77,-486.02 595.97,-472.81"/>
<polygon fill="black" stroke="black" points="597.09,-476.13 605.02,-469.1 594.43,-469.66 597.09,-476.13"/>
</g>
<!-- build2 -->
<g id="node4" class="node">
<title>build2</title>
<ellipse fill="lightgrey" stroke="black" cx="436" cy="-453.75" rx="52.56" ry="18"/>
<text text-anchor="middle" x="436" y="-448.32" font-family="Helvetica,sans-Serif" font-size="14.00">Ice&#45;Ocean</text>
</g>
<!-- submit&#45;&gt;build2 -->
<g id="edge3" class="edge">
<title>submit&#45;&gt;build2</title>
<path fill="none" stroke="black" d="M436,-511.03C436,-502.25 436,-492.5 436,-483.61"/>
<polygon fill="black" stroke="black" points="439.5,-483.72 436,-473.72 432.5,-483.72 439.5,-483.72"/>
</g>
<!-- build3 -->
<g id="node5" class="node">
<title>build3</title>
<ellipse fill="lightgrey" stroke="black" cx="234" cy="-453.75" rx="44.08" ry="18"/>
<text text-anchor="middle" x="234" y="-448.32" font-family="Helvetica,sans-Serif" font-size="14.00">Coupled</text>
</g>
<!-- submit&#45;&gt;build3 -->
<g id="edge4" class="edge">
<title>submit&#45;&gt;build3</title>
<path fill="none" stroke="black" d="M386.07,-517.75C351.74,-503.53 306.74,-484.88 274.62,-471.58"/>
<polygon fill="black" stroke="black" points="276.23,-468.45 265.65,-467.86 273.55,-474.92 276.23,-468.45"/>
</g>
<!-- b1c1 -->
<g id="node6" class="node">
<title>b1c1</title>
<ellipse fill="lightgrey" stroke="black" cx="602" cy="-381.75" rx="31.1" ry="18"/>
<text text-anchor="middle" x="602" y="-376.32" font-family="Helvetica,sans-Serif" font-size="14.00">GNU</text>
</g>
<!-- build1&#45;&gt;b1c1 -->
<g id="edge5" class="edge">
<title>build1&#45;&gt;b1c1</title>
<path fill="none" stroke="black" d="M630.8,-435.8C626.44,-427.78 621.14,-418.01 616.28,-409.05"/>
<polygon fill="black" stroke="black" points="619.42,-407.51 611.57,-400.39 613.27,-410.85 619.42,-407.51"/>
</g>
<!-- b1c2 -->
<g id="node7" class="node">
<title>b1c2</title>
<ellipse fill="lightgrey" stroke="black" cx="679" cy="-381.75" rx="27.61" ry="18"/>
<text text-anchor="middle" x="679" y="-376.32" font-family="Helvetica,sans-Serif" font-size="14.00">Intel</text>
</g>
<!-- build1&#45;&gt;b1c2 -->
<g id="edge6" class="edge">
<title>build1&#45;&gt;b1c2</title>
<path fill="none" stroke="black" d="M649.44,-435.8C653.91,-427.78 659.36,-418.01 664.35,-409.05"/>
<polygon fill="black" stroke="black" points="667.37,-410.82 669.18,-400.38 661.25,-407.41 667.37,-410.82"/>
</g>
<!-- b1c3 -->
<g id="node8" class="node">
<title>b1c3</title>
<ellipse fill="lightgrey" stroke="black" cx="760" cy="-381.75" rx="35.6" ry="18"/>
<text text-anchor="middle" x="760" y="-376.32" font-family="Helvetica,sans-Serif" font-size="14.00">Nvidia</text>
</g>
<!-- build1&#45;&gt;b1c3 -->
<g id="edge7" class="edge">
<title>build1&#45;&gt;b1c3</title>
<path fill="none" stroke="black" d="M666.33,-437.39C684.35,-426.88 708.34,-412.88 727.54,-401.69"/>
<polygon fill="black" stroke="black" points="729.18,-404.78 736.05,-396.72 725.65,-398.73 729.18,-404.78"/>
</g>
<!-- b2c1 -->
<g id="node9" class="node">
<title>b2c1</title>
<ellipse fill="lightgrey" stroke="black" cx="359" cy="-381.75" rx="31.1" ry="18"/>
<text text-anchor="middle" x="359" y="-376.32" font-family="Helvetica,sans-Serif" font-size="14.00">GNU</text>
</g>
<!-- build2&#45;&gt;b2c1 -->
<g id="edge8" class="edge">
<title>build2&#45;&gt;b2c1</title>
<path fill="none" stroke="black" d="M418.14,-436.51C407.9,-427.21 394.9,-415.39 383.7,-405.21"/>
<polygon fill="black" stroke="black" points="386.06,-402.62 376.31,-398.49 381.35,-407.8 386.06,-402.62"/>
</g>
<!-- b2c2 -->
<g id="node10" class="node">
<title>b2c2</title>
<ellipse fill="lightgrey" stroke="black" cx="436" cy="-381.75" rx="27.61" ry="18"/>
<text text-anchor="middle" x="436" y="-376.32" font-family="Helvetica,sans-Serif" font-size="14.00">Intel</text>
</g>
<!-- build2&#45;&gt;b2c2 -->
<g id="edge9" class="edge">
<title>build2&#45;&gt;b2c2</title>
<path fill="none" stroke="black" d="M436,-435.45C436,-428.16 436,-419.48 436,-411.29"/>
<polygon fill="black" stroke="black" points="439.5,-411.37 436,-401.37 432.5,-411.37 439.5,-411.37"/>
</g>
<!-- b2c3 -->
<g id="node11" class="node">
<title>b2c3</title>
<ellipse fill="lightgrey" stroke="black" cx="517" cy="-381.75" rx="35.6" ry="18"/>
<text text-anchor="middle" x="517" y="-376.32" font-family="Helvetica,sans-Serif" font-size="14.00">Nvidia</text>
</g>
<!-- build2&#45;&gt;b2c3 -->
<g id="edge10" class="edge">
<title>build2&#45;&gt;b2c3</title>
<path fill="none" stroke="black" d="M454.79,-436.51C465.59,-427.18 479.31,-415.32 491.12,-405.11"/>
<polygon fill="black" stroke="black" points="493.28,-407.88 498.55,-398.69 488.7,-402.58 493.28,-407.88"/>
</g>
<!-- b3c1 -->
<g id="node12" class="node">
<title>b3c1</title>
<ellipse fill="lightgrey" stroke="black" cx="116" cy="-381.75" rx="31.1" ry="18"/>
<text text-anchor="middle" x="116" y="-376.32" font-family="Helvetica,sans-Serif" font-size="14.00">GNU</text>
</g>
<!-- build3&#45;&gt;b3c1 -->
<g id="edge11" class="edge">
<title>build3&#45;&gt;b3c1</title>
<path fill="none" stroke="black" d="M209.84,-438.42C191.58,-427.58 166.38,-412.64 146.7,-400.96"/>
<polygon fill="black" stroke="black" points="148.66,-398.05 138.27,-395.96 145.09,-404.08 148.66,-398.05"/>
</g>
<!-- b3c2 -->
<g id="node13" class="node">
<title>b3c2</title>
<ellipse fill="lightgrey" stroke="black" cx="193" cy="-381.75" rx="27.61" ry="18"/>
<text text-anchor="middle" x="193" y="-376.32" font-family="Helvetica,sans-Serif" font-size="14.00">Intel</text>
</g>
<!-- build3&#45;&gt;b3c2 -->
<g id="edge12" class="edge">
<title>build3&#45;&gt;b3c2</title>
<path fill="none" stroke="black" d="M224.08,-435.8C219.32,-427.69 213.53,-417.79 208.23,-408.76"/>
<polygon fill="black" stroke="black" points="211.39,-407.22 203.32,-400.36 205.35,-410.76 211.39,-407.22"/>
</g>
<!-- b3c3 -->
<g id="node14" class="node">
<title>b3c3</title>
<ellipse fill="lightgrey" stroke="black" cx="274" cy="-381.75" rx="35.6" ry="18"/>
<text text-anchor="middle" x="274" y="-376.32" font-family="Helvetica,sans-Serif" font-size="14.00">Nvidia</text>
</g>
<!-- build3&#45;&gt;b3c3 -->
<g id="edge13" class="edge">
<title>build3&#45;&gt;b3c3</title>
<path fill="none" stroke="black" d="M243.68,-435.8C248.2,-427.89 253.69,-418.29 258.75,-409.44"/>
<polygon fill="black" stroke="black" points="261.73,-411.27 263.66,-400.85 255.66,-407.8 261.73,-411.27"/>
</g>
<!-- build_verify -->
<g id="node15" class="node">
<title>build_verify</title>
<polygon fill="lightgrey" stroke="black" points="480.75,-327.75 391.25,-327.75 391.25,-291.75 480.75,-291.75 480.75,-327.75"/>
<text text-anchor="middle" x="436" y="-304.32" font-family="Helvetica,sans-Serif" font-size="14.00">Verify builds</text>
</g>
<!-- b1c1&#45;&gt;build_verify -->
<g id="edge14" class="edge">
<title>b1c1&#45;&gt;build_verify</title>
<path fill="none" stroke="black" d="M582.54,-367.42C576.16,-363.37 568.93,-359.1 562,-355.75 539.63,-344.92 513.95,-335.28 491.63,-327.73"/>
<polygon fill="black" stroke="black" points="493.01,-324.5 482.42,-324.68 490.8,-331.15 493.01,-324.5"/>
</g>
<!-- b1c2&#45;&gt;build_verify -->
<g id="edge15" class="edge">
<title>b1c2&#45;&gt;build_verify</title>
<path fill="none" stroke="black" d="M662.1,-367.35C656.04,-363.11 648.98,-358.74 642,-355.75 593.61,-335.02 534.57,-323.38 492.13,-317.16"/>
<polygon fill="black" stroke="black" points="492.78,-313.72 482.39,-315.79 491.81,-320.65 492.78,-313.72"/>
</g>
<!-- b1c3&#45;&gt;build_verify -->
<g id="edge16" class="edge">
<title>b1c3&#45;&gt;build_verify</title>
<path fill="none" stroke="black" d="M739.25,-366.94C732.13,-362.76 723.96,-358.55 716,-355.75 641.26,-329.48 549.85,-318.45 492.26,-313.89"/>
<polygon fill="black" stroke="black" points="492.59,-310.4 482.36,-313.15 492.07,-317.38 492.59,-310.4"/>
</g>
<!-- b2c1&#45;&gt;build_verify -->
<g id="edge17" class="edge">
<title>b2c1&#45;&gt;build_verify</title>
<path fill="none" stroke="black" d="M374.95,-366.25C384.64,-357.44 397.27,-345.96 408.53,-335.72"/>
<polygon fill="black" stroke="black" points="410.63,-338.54 415.68,-329.23 405.92,-333.36 410.63,-338.54"/>
</g>
<!-- b2c2&#45;&gt;build_verify -->
<g id="edge18" class="edge">
<title>b2c2&#45;&gt;build_verify</title>
<path fill="none" stroke="black" d="M436,-363.45C436,-356.16 436,-347.48 436,-339.29"/>
<polygon fill="black" stroke="black" points="439.5,-339.37 436,-329.37 432.5,-339.37 439.5,-339.37"/>
</g>
<!-- b2c3&#45;&gt;build_verify -->
<g id="edge19" class="edge">
<title>b2c3&#45;&gt;build_verify</title>
<path fill="none" stroke="black" d="M499.82,-365.9C489.61,-357.08 476.39,-345.66 464.64,-335.5"/>
<polygon fill="black" stroke="black" points="467.01,-332.92 457.15,-329.03 462.43,-338.22 467.01,-332.92"/>
</g>
<!-- b3c1&#45;&gt;build_verify -->
<g id="edge20" class="edge">
<title>b3c1&#45;&gt;build_verify</title>
<path fill="none" stroke="black" d="M134.72,-366.9C141.17,-362.72 148.64,-358.51 156,-355.75 230.18,-327.92 321.73,-317.29 379.51,-313.24"/>
<polygon fill="black" stroke="black" points="379.69,-316.74 389.44,-312.59 379.24,-309.75 379.69,-316.74"/>
</g>
<!-- b3c2&#45;&gt;build_verify -->
<g id="edge21" class="edge">
<title>b3c2&#45;&gt;build_verify</title>
<path fill="none" stroke="black" d="M209.76,-367.08C215.57,-362.91 222.3,-358.67 229,-355.75 277.5,-334.64 336.83,-323.05 379.52,-316.94"/>
<polygon fill="black" stroke="black" points="379.89,-320.42 389.33,-315.6 378.94,-313.49 379.89,-320.42"/>
</g>
<!-- b3c3&#45;&gt;build_verify -->
<g id="edge22" class="edge">
<title>b3c3&#45;&gt;build_verify</title>
<path fill="none" stroke="black" d="M296.57,-367.4C303.64,-363.44 311.55,-359.23 319,-355.75 338.63,-346.58 360.69,-337.73 380.32,-330.35"/>
<polygon fill="black" stroke="black" points="381.37,-333.69 389.52,-326.93 378.93,-327.13 381.37,-333.69"/>
</g>
<!-- test1 -->
<g id="node16" class="node">
<title>test1</title>
<ellipse fill="lightgrey" stroke="black" cx="808" cy="-234" rx="56.55" ry="18"/>
<text text-anchor="middle" x="808" y="-228.57" font-family="Helvetica,sans-Serif" font-size="14.00">Ocean only</text>
</g>
<!-- build_verify&#45;&gt;test1 -->
<g id="edge23" class="edge">
<title>build_verify&#45;&gt;test1</title>
<path fill="none" stroke="black" d="M481.24,-299.78C548.74,-286.4 675.8,-261.21 750.03,-246.49"/>
<polygon fill="black" stroke="black" points="750.41,-249.98 759.54,-244.61 749.05,-243.12 750.41,-249.98"/>
</g>
<!-- test2 -->
<g id="node17" class="node">
<title>test2</title>
<ellipse fill="lightgrey" stroke="black" cx="436" cy="-234" rx="44.08" ry="18"/>
<text text-anchor="middle" x="436" y="-228.57" font-family="Helvetica,sans-Serif" font-size="14.00">Coupled</text>
</g>
<!-- build_verify&#45;&gt;test2 -->
<g id="edge24" class="edge">
<title>build_verify&#45;&gt;test2</title>
<path fill="none" stroke="black" d="M436,-291.27C436,-283.01 436,-272.92 436,-263.59"/>
<polygon fill="black" stroke="black" points="439.5,-263.87 436,-253.87 432.5,-263.87 439.5,-263.87"/>
</g>
<!-- test3 -->
<g id="node18" class="node">
<title>test3</title>
<ellipse fill="lightgrey" stroke="black" cx="228" cy="-234" rx="52.56" ry="18"/>
<text text-anchor="middle" x="228" y="-228.57" font-family="Helvetica,sans-Serif" font-size="14.00">Ice&#45;Ocean</text>
</g>
<!-- build_verify&#45;&gt;test3 -->
<g id="edge25" class="edge">
<title>build_verify&#45;&gt;test3</title>
<path fill="none" stroke="black" d="M390.87,-292.75C356.47,-280.55 309.28,-263.82 274.54,-251.5"/>
<polygon fill="black" stroke="black" points="275.75,-248.22 265.16,-248.18 273.41,-254.82 275.75,-248.22"/>
</g>
<!-- t1c1 -->
<g id="node19" class="node">
<title>t1c1</title>
<ellipse fill="lightgrey" stroke="black" cx="616" cy="-162" rx="55.55" ry="18"/>
<text text-anchor="middle" x="616" y="-156.57" font-family="Helvetica,sans-Serif" font-size="14.00">benchmark</text>
</g>
<!-- test1&#45;&gt;t1c1 -->
<g id="edge26" class="edge">
<title>test1&#45;&gt;t1c1</title>
<path fill="none" stroke="black" d="M771.89,-219.83C740.91,-208.54 696.09,-192.2 662.45,-179.93"/>
<polygon fill="black" stroke="black" points="663.97,-176.76 653.37,-176.63 661.57,-183.34 663.97,-176.76"/>
</g>
<!-- t1c2 -->
<g id="node20" class="node">
<title>t1c2</title>
<ellipse fill="lightgrey" stroke="black" cx="750" cy="-162" rx="60.05" ry="18"/>
<text text-anchor="middle" x="750" y="-156.57" font-family="Helvetica,sans-Serif" font-size="14.00">double_gyre</text>
</g>
<!-- test1&#45;&gt;t1c2 -->
<g id="edge27" class="edge">
<title>test1&#45;&gt;t1c2</title>
<path fill="none" stroke="black" d="M794.25,-216.41C787.42,-208.16 779.01,-198.01 771.36,-188.78"/>
<polygon fill="black" stroke="black" points="774.09,-186.59 765.02,-181.12 768.7,-191.05 774.09,-186.59"/>
</g>
<!-- t1c3 -->
<g id="node21" class="node">
<title>t1c3</title>
<ellipse fill="lightgrey" stroke="black" cx="867" cy="-162" rx="38.59" ry="18"/>
<text text-anchor="middle" x="867" y="-156.57" font-family="Helvetica,sans-Serif" font-size="14.00">DOME</text>
</g>
<!-- test1&#45;&gt;t1c3 -->
<g id="edge28" class="edge">
<title>test1&#45;&gt;t1c3</title>
<path fill="none" stroke="black" d="M821.98,-216.41C829.21,-207.83 838.18,-197.19 846.21,-187.67"/>
<polygon fill="black" stroke="black" points="848.78,-190.05 852.55,-180.15 843.43,-185.54 848.78,-190.05"/>
</g>
<!-- t1c4 -->
<g id="node22" class="node">
<title>t1c4</title>
<ellipse fill="lightgrey" stroke="black" cx="998" cy="-162" rx="74.52" ry="18"/>
<text text-anchor="middle" x="998" y="-156.57" font-family="Helvetica,sans-Serif" font-size="14.00">flow_downslope</text>
</g>
<!-- test1&#45;&gt;t1c4 -->
<g id="edge29" class="edge">
<title>test1&#45;&gt;t1c4</title>
<path fill="none" stroke="black" d="M843.74,-219.83C873.1,-209.02 915.03,-193.57 947.77,-181.51"/>
<polygon fill="black" stroke="black" points="948.89,-184.82 957.07,-178.08 946.47,-178.25 948.89,-184.82"/>
</g>
<!-- t1c5 -->
<g id="node23" class="node">
<title>t1c5</title>
<ellipse fill="lightgrey" stroke="black" cx="1140" cy="-162" rx="49.07" ry="18"/>
<text text-anchor="middle" x="1140" y="-156.57" font-family="Helvetica,sans-Serif" font-size="14.00">unit_tests</text>
</g>
<!-- test1&#45;&gt;t1c5 -->
<g id="edge30" class="edge">
<title>test1&#45;&gt;t1c5</title>
<path fill="none" stroke="black" d="M857.55,-224.86C912.67,-215.47 1004.19,-198.88 1082,-180 1085.36,-179.18 1088.81,-178.3 1092.28,-177.37"/>
<polygon fill="black" stroke="black" points="1093.16,-180.76 1101.86,-174.72 1091.29,-174.01 1093.16,-180.76"/>
</g>
<!-- t2c1 -->
<g id="node24" class="node">
<title>t2c1</title>
<ellipse fill="lightgrey" stroke="black" cx="436" cy="-162" rx="106.45" ry="18"/>
<text text-anchor="middle" x="436" y="-156.57" font-family="Helvetica,sans-Serif" font-size="14.00">AM2&#45;SIS2&#45;MOM6&#45;1deg</text>
</g>
<!-- test2&#45;&gt;t2c1 -->
<g id="edge31" class="edge">
<title>test2&#45;&gt;t2c1</title>
<path fill="none" stroke="black" d="M436,-215.7C436,-208.41 436,-199.73 436,-191.54"/>
<polygon fill="black" stroke="black" points="439.5,-191.62 436,-181.62 432.5,-191.62 439.5,-191.62"/>
</g>
<!-- t3c1 -->
<g id="node25" class="node">
<title>t3c1</title>
<ellipse fill="lightgrey" stroke="black" cx="62" cy="-162" rx="46.07" ry="18"/>
<text text-anchor="middle" x="62" y="-156.57" font-family="Helvetica,sans-Serif" font-size="14.00">OM4_05</text>
</g>
<!-- test3&#45;&gt;t3c1 -->
<g id="edge32" class="edge">
<title>test3&#45;&gt;t3c1</title>
<path fill="none" stroke="black" d="M195.99,-219.5C169.51,-208.34 131.72,-192.4 103.02,-180.3"/>
<polygon fill="black" stroke="black" points="104.48,-177.11 93.9,-176.45 101.76,-183.56 104.48,-177.11"/>
</g>
<!-- t3c3 -->
<g id="node26" class="node">
<title>t3c3</title>
<ellipse fill="lightgrey" stroke="black" cx="177" cy="-162" rx="51.06" ry="18"/>
<text text-anchor="middle" x="177" y="-156.57" font-family="Helvetica,sans-Serif" font-size="14.00">OM4_025</text>
</g>
<!-- test3&#45;&gt;t3c3 -->
<g id="edge33" class="edge">
<title>test3&#45;&gt;t3c3</title>
<path fill="none" stroke="black" d="M215.65,-216.05C209.7,-207.89 202.44,-197.91 195.81,-188.82"/>
<polygon fill="black" stroke="black" points="198.84,-187.03 190.12,-181.01 193.18,-191.16 198.84,-187.03"/>
</g>
<!-- t3c2 -->
<g id="node27" class="node">
<title>t3c2</title>
<ellipse fill="lightgrey" stroke="black" cx="279" cy="-162" rx="32.6" ry="18"/>
<text text-anchor="middle" x="279" y="-156.57" font-family="Helvetica,sans-Serif" font-size="14.00">Baltic</text>
</g>
<!-- test3&#45;&gt;t3c2 -->
<g id="edge34" class="edge">
<title>test3&#45;&gt;t3c2</title>
<path fill="none" stroke="black" d="M240.35,-216.05C246.47,-207.65 253.99,-197.32 260.77,-188.02"/>
<polygon fill="black" stroke="black" points="263.52,-190.2 266.58,-180.05 257.86,-186.07 263.52,-190.2"/>
</g>
<!-- verify_results -->
<g id="node28" class="node">
<title>verify_results</title>
<polygon fill="lightgrey" stroke="black" points="663,-108 569,-108 569,-72 663,-72 663,-108"/>
<text text-anchor="middle" x="616" y="-84.58" font-family="Helvetica,sans-Serif" font-size="14.00">Verify results</text>
</g>
<!-- t1c1&#45;&gt;verify_results -->
<g id="edge35" class="edge">
<title>t1c1&#45;&gt;verify_results</title>
<path fill="none" stroke="black" d="M616,-143.7C616,-136.41 616,-127.73 616,-119.54"/>
<polygon fill="black" stroke="black" points="619.5,-119.62 616,-109.62 612.5,-119.62 619.5,-119.62"/>
</g>
<!-- t1c2&#45;&gt;verify_results -->
<g id="edge36" class="edge">
<title>t1c2&#45;&gt;verify_results</title>
<path fill="none" stroke="black" d="M720.92,-145.81C702.96,-136.43 679.58,-124.21 659.45,-113.7"/>
<polygon fill="black" stroke="black" points="661.09,-110.61 650.61,-109.08 657.85,-116.81 661.09,-110.61"/>
</g>
<!-- t1c3&#45;&gt;verify_results -->
<g id="edge37" class="edge">
<title>t1c3&#45;&gt;verify_results</title>
<path fill="none" stroke="black" d="M843.63,-147.27C835.98,-143.19 827.3,-139.02 819,-136 771.72,-118.79 715.74,-106.98 674.55,-99.79"/>
<polygon fill="black" stroke="black" points="675.29,-96.36 664.84,-98.14 674.11,-103.26 675.29,-96.36"/>
</g>
<!-- t1c4&#45;&gt;verify_results -->
<g id="edge38" class="edge">
<title>t1c4&#45;&gt;verify_results</title>
<path fill="none" stroke="black" d="M955.23,-146.84C942.4,-142.94 928.21,-138.97 915,-136 832.36,-117.44 735.11,-104.4 674.5,-97.29"/>
<polygon fill="black" stroke="black" points="675.09,-93.84 664.76,-96.17 674.29,-100.79 675.09,-93.84"/>
</g>
<!-- t1c5&#45;&gt;verify_results -->
<g id="edge39" class="edge">
<title>t1c5&#45;&gt;verify_results</title>
<path fill="none" stroke="black" d="M1112,-146.85C1102.68,-142.7 1092.09,-138.59 1082,-136 938.9,-99.21 764.06,-91.98 674.71,-90.88"/>
<polygon fill="black" stroke="black" points="675.01,-87.38 664.98,-90.78 674.94,-94.38 675.01,-87.38"/>
</g>
<!-- t2c1&#45;&gt;verify_results -->
<g id="edge40" class="edge">
<title>t2c1&#45;&gt;verify_results</title>
<path fill="none" stroke="black" d="M477.3,-144.94C502.04,-135.32 533.8,-122.97 560.69,-112.51"/>
<polygon fill="black" stroke="black" points="561.65,-115.89 569.7,-109 559.11,-109.37 561.65,-115.89"/>
</g>
<!-- t3c1&#45;&gt;verify_results -->
<g id="edge41" class="edge">
<title>t3c1&#45;&gt;verify_results</title>
<path fill="none" stroke="black" d="M88.47,-146.79C97.31,-142.64 107.37,-138.55 117,-136 198.71,-114.41 443.9,-99.67 557.3,-93.82"/>
<polygon fill="black" stroke="black" points="557.18,-97.33 566.99,-93.32 556.83,-90.34 557.18,-97.33"/>
</g>
<!-- t3c3&#45;&gt;verify_results -->
<g id="edge42" class="edge">
<title>t3c3&#45;&gt;verify_results</title>
<path fill="none" stroke="black" d="M206.35,-146.87C215.92,-142.78 226.74,-138.69 237,-136 347.95,-106.9 482.16,-96.58 557.43,-92.95"/>
<polygon fill="black" stroke="black" points="557.2,-96.46 567.03,-92.51 556.88,-89.47 557.2,-96.46"/>
</g>
<!-- t3c2&#45;&gt;verify_results -->
<g id="edge43" class="edge">
<title>t3c2&#45;&gt;verify_results</title>
<path fill="none" stroke="black" d="M298.3,-147.39C305.18,-143.13 313.17,-138.81 321,-136 399.81,-107.76 496.66,-97.24 557.38,-93.32"/>
<polygon fill="black" stroke="black" points="557.37,-96.83 567.14,-92.74 556.95,-89.84 557.37,-96.83"/>
</g>
<!-- validate -->
<g id="node29" class="node">
<title>validate</title>
<ellipse fill="lightgrey" stroke="black" cx="616" cy="-18" rx="80.5" ry="18"/>
<text text-anchor="middle" x="616" y="-12.57" font-family="Helvetica,sans-Serif" font-size="14.00">Merge to dev/gfdl</text>
</g>
<!-- verify_results&#45;&gt;validate -->
<g id="edge44" class="edge">
<title>verify_results&#45;&gt;validate</title>
<path fill="none" stroke="black" d="M616,-71.7C616,-64.41 616,-55.73 616,-47.54"/>
<polygon fill="black" stroke="black" points="619.5,-47.62 616,-37.62 612.5,-47.62 619.5,-47.62"/>
</g>
</g>
</svg>
