<?xml version="1.0" encoding="UTF-8" standalone="no"?>
<!DOCTYPE svg PUBLIC "-//W3C//DTD SVG 1.1//EN"
 "http://www.w3.org/Graphics/SVG/1.1/DTD/svg11.dtd">
<!-- Generated by graphviz version 2.40.1 (0)
 -->
<!-- Title: testing Pages: 1 -->
<svg width="886pt" height="572pt"
 viewBox="0.00 0.00 886.00 571.74" xmlns="http://www.w3.org/2000/svg" xmlns:xlink="http://www.w3.org/1999/xlink">
<g id="graph0" class="graph" transform="scale(1 1) rotate(0) translate(4 567.7401)">
<title>testing</title>
<g id="clust8" class="cluster">
<title>cluster_build</title>
<polygon fill="#c0c0c0" stroke="#000000" points="236,-355 236,-430 640,-430 640,-355 236,-355"/>
<text text-anchor="middle" x="602.5" y="-414.8" font-family="Helvetica,sans-Serif" font-size="14.00" fill="#ffffff">Compile</text>
</g>
<g id="clust9" class="cluster">
<title>cluster_test</title>
<polygon fill="#c0c0c0" stroke="#000000" points="8,-136 8,-283 870,-283 870,-136 8,-136"/>
<text text-anchor="middle" x="828.5" y="-267.8" font-family="Helvetica,sans-Serif" font-size="14.00" fill="#ffffff">Run tests</text>
</g>
<!-- submit -->
<g id="node1" class="node">
<title>submit</title>
<ellipse fill="#d3d3d3" stroke="#000000" cx="426" cy="-536.8701" rx="93.1765" ry="26.7407"/>
<text text-anchor="middle" x="426" y="-540.6701" font-family="Helvetica,sans-Serif" font-size="14.00" fill="#000000">Submit to CI</text>
<text text-anchor="middle" x="426" y="-525.6701" font-family="Helvetica,sans-Serif" font-size="14.00" fill="#000000">(GitHub Actions)</text>
</g>
<!-- codestyle -->
<g id="node2" class="node">
<title>codestyle</title>
<ellipse fill="#d3d3d3" stroke="#000000" cx="426" cy="-456" rx="91.784" ry="18"/>
<text text-anchor="middle" x="426" y="-452.3" font-family="Helvetica,sans-Serif" font-size="14.00" fill="#000000">Code Style Check</text>
</g>
<!-- submit&#45;&gt;codestyle -->
<g id="edge1" class="edge">
<title>submit&#45;&gt;codestyle</title>
<path fill="none" stroke="#000000" d="M426,-509.9415C426,-501.6709 426,-492.5487 426,-484.1957"/>
<polygon fill="#000000" stroke="#000000" points="429.5001,-484.1488 426,-474.1488 422.5001,-484.1489 429.5001,-484.1488"/>
</g>
<!-- build1 -->
<g id="node3" class="node">
<title>build1</title>
<ellipse fill="#d3d3d3" stroke="#000000" cx="571" cy="-381" rx="61.1893" ry="18"/>
<text text-anchor="middle" x="571" y="-377.3" font-family="Helvetica,sans-Serif" font-size="14.00" fill="#000000">Symmetric</text>
</g>
<!-- codestyle&#45;&gt;build1 -->
<g id="edge2" class="edge">
<title>codestyle&#45;&gt;build1</title>
<path fill="none" stroke="#000000" d="M476.0265,-440.8324C484.5305,-437.6427 493.1453,-434.0118 501,-430 515.0325,-422.8328 529.4713,-413.1776 541.5634,-404.3328"/>
<polygon fill="#000000" stroke="#000000" points="544.0054,-406.8769 549.9143,-398.0828 539.811,-401.2727 544.0054,-406.8769"/>
</g>
<!-- build2 -->
<g id="node4" class="node">
<title>build2</title>
<ellipse fill="#d3d3d3" stroke="#000000" cx="426" cy="-381" rx="66.0889" ry="18"/>
<text text-anchor="middle" x="426" y="-377.3" font-family="Helvetica,sans-Serif" font-size="14.00" fill="#000000">Asymmetric</text>
</g>
<!-- codestyle&#45;&gt;build2 -->
<g id="edge3" class="edge">
<title>codestyle&#45;&gt;build2</title>
<path fill="none" stroke="#000000" d="M426,-437.8446C426,-429.3401 426,-419.0076 426,-409.4964"/>
<polygon fill="#000000" stroke="#000000" points="429.5001,-409.2481 426,-399.2482 422.5001,-409.2482 429.5001,-409.2481"/>
</g>
<!-- build3 -->
<g id="node5" class="node">
<title>build3</title>
<ellipse fill="#d3d3d3" stroke="#000000" cx="293" cy="-381" rx="48.9926" ry="18"/>
<text text-anchor="middle" x="293" y="-377.3" font-family="Helvetica,sans-Serif" font-size="14.00" fill="#000000">OpenMP</text>
</g>
<!-- codestyle&#45;&gt;build3 -->
<g id="edge4" class="edge">
<title>codestyle&#45;&gt;build3</title>
<path fill="none" stroke="#000000" d="M374.4616,-440.9652C366.3875,-437.8128 358.3053,-434.1594 351,-430 339.0687,-423.2067 327.2451,-413.83 317.4166,-405.0966"/>
<polygon fill="#000000" stroke="#000000" points="319.7335,-402.4724 309.9981,-398.2922 315.0018,-407.631 319.7335,-402.4724"/>
</g>
<!-- build_verify -->
<g id="node6" class="node">
<title>build_verify</title>
<polygon fill="#d3d3d3" stroke="#000000" points="478,-327 374,-327 374,-291 478,-291 478,-327"/>
<text text-anchor="middle" x="426" y="-305.3" font-family="Helvetica,sans-Serif" font-size="14.00" fill="#000000">Verify builds</text>
</g>
<!-- build1&#45;&gt;build_verify -->
<g id="edge5" class="edge">
<title>build1&#45;&gt;build_verify</title>
<path fill="none" stroke="#000000" d="M539.5372,-365.3771C519.6407,-355.4975 493.5959,-342.5649 471.4708,-331.5786"/>
<polygon fill="#000000" stroke="#000000" points="472.7711,-328.3166 462.2579,-327.0039 469.6579,-334.5862 472.7711,-328.3166"/>
</g>
<!-- build2&#45;&gt;build_verify -->
<g id="edge6" class="edge">
<title>build2&#45;&gt;build_verify</title>
<path fill="none" stroke="#000000" d="M426,-362.8314C426,-355.131 426,-345.9743 426,-337.4166"/>
<polygon fill="#000000" stroke="#000000" points="429.5001,-337.4132 426,-327.4133 422.5001,-337.4133 429.5001,-337.4132"/>
</g>
<!-- build3&#45;&gt;build_verify -->
<g id="edge7" class="edge">
<title>build3&#45;&gt;build_verify</title>
<path fill="none" stroke="#000000" d="M320.5577,-366.0816C338.7181,-356.2504 362.861,-343.1805 383.4622,-332.028"/>
<polygon fill="#000000" stroke="#000000" points="385.2167,-335.0582 392.3445,-327.2195 381.8841,-328.9023 385.2167,-335.0582"/>
</g>
<!-- test1 -->
<g id="node7" class="node">
<title>test1</title>
<ellipse fill="#d3d3d3" stroke="#000000" cx="727" cy="-234" rx="71.4873" ry="18"/>
<text text-anchor="middle" x="727" y="-230.3" font-family="Helvetica,sans-Serif" font-size="14.00" fill="#000000">Grid Memory</text>
</g>
<!-- build_verify&#45;&gt;test1 -->
<g id="edge8" class="edge">
<title>build_verify&#45;&gt;test1</title>
<path fill="none" stroke="#000000" d="M478.3493,-302.8253C509.8269,-298.5369 550.5325,-291.9724 586,-283 617.6618,-274.9903 652.3205,-262.9921 679.3526,-252.8732"/>
<polygon fill="#000000" stroke="#000000" points="680.8339,-256.0549 688.947,-249.2412 678.3555,-249.5083 680.8339,-256.0549"/>
</g>
<!-- test2 -->
<g id="node8" class="node">
<title>test2</title>
<ellipse fill="#d3d3d3" stroke="#000000" cx="511" cy="-234" rx="65.7887" ry="18"/>
<text text-anchor="middle" x="511" y="-230.3" font-family="Helvetica,sans-Serif" font-size="14.00" fill="#000000">Dimensions</text>
</g>
<!-- build_verify&#45;&gt;test2 -->
<g id="edge9" class="edge">
<title>build_verify&#45;&gt;test2</title>
<path fill="none" stroke="#000000" d="M446.5761,-290.8446C457.7807,-280.9582 471.7849,-268.6016 483.8719,-257.9365"/>
<polygon fill="#000000" stroke="#000000" points="486.3066,-260.456 491.4893,-251.2153 481.6752,-255.2071 486.3066,-260.456"/>
</g>
<!-- test3 -->
<g id="node9" class="node">
<title>test3</title>
<ellipse fill="#d3d3d3" stroke="#000000" cx="354" cy="-234" rx="49.2915" ry="18"/>
<text text-anchor="middle" x="354" y="-230.3" font-family="Helvetica,sans-Serif" font-size="14.00" fill="#000000">Rotation</text>
</g>
<!-- build_verify&#45;&gt;test3 -->
<g id="edge10" class="edge">
<title>build_verify&#45;&gt;test3</title>
<path fill="none" stroke="#000000" d="M408.5708,-290.8446C399.2607,-281.1465 387.6686,-269.0714 377.5659,-258.5478"/>
<polygon fill="#000000" stroke="#000000" points="379.9769,-256.0054 370.5267,-251.2153 374.9272,-260.8531 379.9769,-256.0054"/>
</g>
<!-- test4 -->
<g id="node10" class="node">
<title>test4</title>
<ellipse fill="#d3d3d3" stroke="#000000" cx="151" cy="-234" rx="66.8882" ry="18"/>
<text text-anchor="middle" x="151" y="-230.3" font-family="Helvetica,sans-Serif" font-size="14.00" fill="#000000">Initialization</text>
</g>
<!-- build_verify&#45;&gt;test4 -->
<g id="edge11" class="edge">
<title>build_verify&#45;&gt;test4</title>
<path fill="none" stroke="#000000" d="M373.7734,-300.1403C349.8973,-295.6852 321.3457,-289.787 296,-283 263.3959,-274.2693 227.4481,-262.1389 199.502,-252.1321"/>
<polygon fill="#000000" stroke="#000000" points="200.5638,-248.7943 189.9695,-248.6902 198.1865,-255.3783 200.5638,-248.7943"/>
</g>
<!-- t1_1 -->
<g id="node11" class="node">
<title>t1_1</title>
<ellipse fill="#d3d3d3" stroke="#000000" cx="691" cy="-162" rx="27" ry="18"/>
<text text-anchor="middle" x="691" y="-158.3" font-family="Helvetica,sans-Serif" font-size="14.00" fill="#000000">tc1</text>
</g>
<!-- test1&#45;&gt;t1_1 -->
<g id="edge12" class="edge">
<title>test1&#45;&gt;t1_1</title>
<path fill="none" stroke="#000000" d="M717.9157,-215.8314C713.7726,-207.5451 708.7863,-197.5727 704.2374,-188.4748"/>
<polygon fill="#000000" stroke="#000000" points="707.3115,-186.7967 699.7089,-179.4177 701.0505,-189.9273 707.3115,-186.7967"/>
</g>
<!-- t2_1 -->
<g id="node12" class="node">
<title>t2_1</title>
<ellipse fill="#d3d3d3" stroke="#000000" cx="763" cy="-162" rx="27" ry="18"/>
<text text-anchor="middle" x="763" y="-158.3" font-family="Helvetica,sans-Serif" font-size="14.00" fill="#000000">tc2</text>
</g>
<!-- test1&#45;&gt;t2_1 -->
<g id="edge13" class="edge">
<title>test1&#45;&gt;t2_1</title>
<path fill="none" stroke="#000000" d="M736.0843,-215.8314C740.2274,-207.5451 745.2137,-197.5727 749.7626,-188.4748"/>
<polygon fill="#000000" stroke="#000000" points="752.9495,-189.9273 754.2911,-179.4177 746.6885,-186.7967 752.9495,-189.9273"/>
</g>
<!-- t3_1 -->
<g id="node13" class="node">
<title>t3_1</title>
<ellipse fill="#d3d3d3" stroke="#000000" cx="835" cy="-162" rx="27" ry="18"/>
<text text-anchor="middle" x="835" y="-158.3" font-family="Helvetica,sans-Serif" font-size="14.00" fill="#000000">tc3</text>
</g>
<!-- test1&#45;&gt;t3_1 -->
<g id="edge14" class="edge">
<title>test1&#45;&gt;t3_1</title>
<path fill="none" stroke="#000000" d="M752.3212,-217.1192C768.7798,-206.1468 790.2456,-191.8363 807.1799,-180.5467"/>
<polygon fill="#000000" stroke="#000000" points="809.1929,-183.4113 815.5719,-174.9521 805.3099,-177.5869 809.1929,-183.4113"/>
</g>
<!-- t1_2 -->
<g id="node14" class="node">
<title>t1_2</title>
<ellipse fill="#d3d3d3" stroke="#000000" cx="475" cy="-162" rx="27" ry="18"/>
<text text-anchor="middle" x="475" y="-158.3" font-family="Helvetica,sans-Serif" font-size="14.00" fill="#000000">tc1</text>
</g>
<!-- test2&#45;&gt;t1_2 -->
<g id="edge15" class="edge">
<title>test2&#45;&gt;t1_2</title>
<path fill="none" stroke="#000000" d="M501.9157,-215.8314C497.7726,-207.5451 492.7863,-197.5727 488.2374,-188.4748"/>
<polygon fill="#000000" stroke="#000000" points="491.3115,-186.7967 483.7089,-179.4177 485.0505,-189.9273 491.3115,-186.7967"/>
</g>
<!-- t2_2 -->
<g id="node15" class="node">
<title>t2_2</title>
<ellipse fill="#d3d3d3" stroke="#000000" cx="547" cy="-162" rx="27" ry="18"/>
<text text-anchor="middle" x="547" y="-158.3" font-family="Helvetica,sans-Serif" font-size="14.00" fill="#000000">tc2</text>
</g>
<!-- test2&#45;&gt;t2_2 -->
<g id="edge16" class="edge">
<title>test2&#45;&gt;t2_2</title>
<path fill="none" stroke="#000000" d="M520.0843,-215.8314C524.2274,-207.5451 529.2137,-197.5727 533.7626,-188.4748"/>
<polygon fill="#000000" stroke="#000000" points="536.9495,-189.9273 538.2911,-179.4177 530.6885,-186.7967 536.9495,-189.9273"/>
</g>
<!-- t3_2 -->
<g id="node16" class="node">
<title>t3_2</title>
<ellipse fill="#d3d3d3" stroke="#000000" cx="619" cy="-162" rx="27" ry="18"/>
<text text-anchor="middle" x="619" y="-158.3" font-family="Helvetica,sans-Serif" font-size="14.00" fill="#000000">tc3</text>
</g>
<!-- test2&#45;&gt;t3_2 -->
<g id="edge17" class="edge">
<title>test2&#45;&gt;t3_2</title>
<path fill="none" stroke="#000000" d="M536.0488,-217.3008C552.6046,-206.2636 574.3151,-191.7899 591.3724,-180.4184"/>
<polygon fill="#000000" stroke="#000000" points="593.4372,-183.2484 599.8162,-174.7892 589.5542,-177.4241 593.4372,-183.2484"/>
</g>
<!-- t1_3 -->
<g id="node17" class="node">
<title>t1_3</title>
<ellipse fill="#d3d3d3" stroke="#000000" cx="259" cy="-162" rx="27" ry="18"/>
<text text-anchor="middle" x="259" y="-158.3" font-family="Helvetica,sans-Serif" font-size="14.00" fill="#000000">tc1</text>
</g>
<!-- test3&#45;&gt;t1_3 -->
<g id="edge18" class="edge">
<title>test3&#45;&gt;t1_3</title>
<path fill="none" stroke="#000000" d="M332.443,-217.6621C318.4397,-207.049 300.0969,-193.1471 285.246,-181.8917"/>
<polygon fill="#000000" stroke="#000000" points="287.0485,-178.8662 276.9647,-175.6154 282.8204,-184.445 287.0485,-178.8662"/>
</g>
<!-- t2_3 -->
<g id="node18" class="node">
<title>t2_3</title>
<ellipse fill="#d3d3d3" stroke="#000000" cx="331" cy="-162" rx="27" ry="18"/>
<text text-anchor="middle" x="331" y="-158.3" font-family="Helvetica,sans-Serif" font-size="14.00" fill="#000000">tc2</text>
</g>
<!-- test3&#45;&gt;t2_3 -->
<g id="edge19" class="edge">
<title>test3&#45;&gt;t2_3</title>
<path fill="none" stroke="#000000" d="M348.1961,-215.8314C345.6435,-207.8406 342.59,-198.2819 339.7692,-189.4514"/>
<polygon fill="#000000" stroke="#000000" points="343.0994,-188.3741 336.7223,-179.9134 336.4313,-190.5043 343.0994,-188.3741"/>
</g>
<!-- t3_3 -->
<g id="node19" class="node">
<title>t3_3</title>
<ellipse fill="#d3d3d3" stroke="#000000" cx="403" cy="-162" rx="27" ry="18"/>
<text text-anchor="middle" x="403" y="-158.3" font-family="Helvetica,sans-Serif" font-size="14.00" fill="#000000">tc3</text>
</g>
<!-- test3&#45;&gt;t3_3 -->
<g id="edge20" class="edge">
<title>test3&#45;&gt;t3_3</title>
<path fill="none" stroke="#000000" d="M366.1124,-216.2022C372.1011,-207.4025 379.4298,-196.6338 385.9724,-187.0202"/>
<polygon fill="#000000" stroke="#000000" points="388.966,-188.8422 391.6988,-178.6058 383.179,-184.9038 388.966,-188.8422"/>
</g>
<!-- t1_4 -->
<g id="node20" class="node">
<title>t1_4</title>
<ellipse fill="#d3d3d3" stroke="#000000" cx="43" cy="-162" rx="27" ry="18"/>
<text text-anchor="middle" x="43" y="-158.3" font-family="Helvetica,sans-Serif" font-size="14.00" fill="#000000">tc1</text>
</g>
<!-- test4&#45;&gt;t1_4 -->
<g id="edge21" class="edge">
<title>test4&#45;&gt;t1_4</title>
<path fill="none" stroke="#000000" d="M125.9512,-217.3008C109.3954,-206.2636 87.6849,-191.7899 70.6276,-180.4184"/>
<polygon fill="#000000" stroke="#000000" points="72.4458,-177.4241 62.1838,-174.7892 68.5628,-183.2484 72.4458,-177.4241"/>
</g>
<!-- t2_4 -->
<g id="node21" class="node">
<title>t2_4</title>
<ellipse fill="#d3d3d3" stroke="#000000" cx="115" cy="-162" rx="27" ry="18"/>
<text text-anchor="middle" x="115" y="-158.3" font-family="Helvetica,sans-Serif" font-size="14.00" fill="#000000">tc2</text>
</g>
<!-- test4&#45;&gt;t2_4 -->
<g id="edge22" class="edge">
<title>test4&#45;&gt;t2_4</title>
<path fill="none" stroke="#000000" d="M141.9157,-215.8314C137.7726,-207.5451 132.7863,-197.5727 128.2374,-188.4748"/>
<polygon fill="#000000" stroke="#000000" points="131.3115,-186.7967 123.7089,-179.4177 125.0505,-189.9273 131.3115,-186.7967"/>
</g>
<!-- t3_4 -->
<g id="node22" class="node">
<title>t3_4</title>
<ellipse fill="#d3d3d3" stroke="#000000" cx="187" cy="-162" rx="27" ry="18"/>
<text text-anchor="middle" x="187" y="-158.3" font-family="Helvetica,sans-Serif" font-size="14.00" fill="#000000">tc3</text>
</g>
<!-- test4&#45;&gt;t3_4 -->
<g id="edge23" class="edge">
<title>test4&#45;&gt;t3_4</title>
<path fill="none" stroke="#000000" d="M160.0843,-215.8314C164.2274,-207.5451 169.2137,-197.5727 173.7626,-188.4748"/>
<polygon fill="#000000" stroke="#000000" points="176.9495,-189.9273 178.2911,-179.4177 170.6885,-186.7967 176.9495,-189.9273"/>
</g>
<!-- verify_results -->
<g id="node23" class="node">
<title>verify_results</title>
<polygon fill="#d3d3d3" stroke="#000000" points="494,-108 384,-108 384,-72 494,-72 494,-108"/>
<text text-anchor="middle" x="439" y="-86.3" font-family="Helvetica,sans-Serif" font-size="14.00" fill="#000000">Verify results</text>
</g>
<!-- t1_1&#45;&gt;verify_results -->
<g id="edge24" class="edge">
<title>t1_1&#45;&gt;verify_results</title>
<path fill="none" stroke="#000000" d="M674.3184,-147.7446C668.5188,-143.4088 661.765,-139.0021 655,-136 606.8813,-114.6466 548.243,-102.9661 504.2116,-96.7252"/>
<polygon fill="#000000" stroke="#000000" points="504.5803,-93.2432 494.1999,-95.3638 503.6371,-100.1794 504.5803,-93.2432"/>
</g>
<!-- t2_1&#45;&gt;verify_results -->
<g id="edge25" class="edge">
<title>t2_1&#45;&gt;verify_results</title>
<path fill="none" stroke="#000000" d="M746.4062,-147.5396C740.6125,-143.1901 733.84,-138.8271 727,-136 687.807,-119.8008 576.594,-105.1057 504.3935,-96.8822"/>
<polygon fill="#000000" stroke="#000000" points="504.3661,-93.3571 494.0373,-95.7165 503.583,-100.3132 504.3661,-93.3571"/>
</g>
<!-- t3_1&#45;&gt;verify_results -->
<g id="edge26" class="edge">
<title>t3_1&#45;&gt;verify_results</title>
<path fill="none" stroke="#000000" d="M818.4571,-147.4137C812.6667,-143.0559 805.8834,-138.7197 799,-136 746.8596,-115.3986 593.2526,-101.211 504.4394,-94.4751"/>
<polygon fill="#000000" stroke="#000000" points="504.4381,-90.9653 494.205,-93.7101 503.9163,-97.9458 504.4381,-90.9653"/>
</g>
<!-- t1_2&#45;&gt;verify_results -->
<g id="edge27" class="edge">
<title>t1_2&#45;&gt;verify_results</title>
<path fill="none" stroke="#000000" d="M466.2854,-144.5708C462.1772,-136.3544 457.1804,-126.3608 452.5911,-117.1821"/>
<polygon fill="#000000" stroke="#000000" points="455.613,-115.3996 448.0103,-108.0206 449.352,-118.5301 455.613,-115.3996"/>
</g>
<!-- t2_2&#45;&gt;verify_results -->
<g id="edge28" class="edge">
<title>t2_2&#45;&gt;verify_results</title>
<path fill="none" stroke="#000000" d="M528.8286,-148.5695C523.1651,-144.4667 516.8659,-139.9874 511,-136 500.0618,-128.5648 488.0087,-120.7286 476.9442,-113.6727"/>
<polygon fill="#000000" stroke="#000000" points="478.6421,-110.605 468.3229,-108.2039 474.8925,-116.516 478.6421,-110.605"/>
</g>
<!-- t3_2&#45;&gt;verify_results -->
<g id="edge29" class="edge">
<title>t3_2&#45;&gt;verify_results</title>
<path fill="none" stroke="#000000" d="M601.7695,-147.8644C596.0422,-143.6376 589.4699,-139.2649 583,-136 558.2819,-123.5266 529.4819,-113.5218 504.1618,-106.0693"/>
<polygon fill="#000000" stroke="#000000" points="504.8576,-102.6279 494.2803,-103.2366 502.9286,-109.3569 504.8576,-102.6279"/>
</g>
<!-- t1_3&#45;&gt;verify_results -->
<g id="edge30" class="edge">
<title>t1_3&#45;&gt;verify_results</title>
<path fill="none" stroke="#000000" d="M276.2305,-147.8644C281.9578,-143.6376 288.5301,-139.2649 295,-136 319.7181,-123.5266 348.5181,-113.5218 373.8382,-106.0693"/>
<polygon fill="#000000" stroke="#000000" points="375.0714,-109.3569 383.7197,-103.2366 373.1424,-102.6279 375.0714,-109.3569"/>
</g>
<!-- t2_3&#45;&gt;verify_results -->
<g id="edge31" class="edge">
<title>t2_3&#45;&gt;verify_results</title>
<path fill="none" stroke="#000000" d="M349.1714,-148.5695C354.8349,-144.4667 361.1341,-139.9874 367,-136 377.9382,-128.5648 389.9913,-120.7286 401.0558,-113.6727"/>
<polygon fill="#000000" stroke="#000000" points="403.1075,-116.516 409.6771,-108.2039 399.3579,-110.605 403.1075,-116.516"/>
</g>
<!-- t3_3&#45;&gt;verify_results -->
<g id="edge32" class="edge">
<title>t3_3&#45;&gt;verify_results</title>
<path fill="none" stroke="#000000" d="M411.7146,-144.5708C415.8228,-136.3544 420.8196,-126.3608 425.4089,-117.1821"/>
<polygon fill="#000000" stroke="#000000" points="428.648,-118.5301 429.9897,-108.0206 422.387,-115.3996 428.648,-118.5301"/>
</g>
<!-- t1_4&#45;&gt;verify_results -->
<g id="edge33" class="edge">
<title>t1_4&#45;&gt;verify_results</title>
<path fill="none" stroke="#000000" d="M59.5429,-147.4137C65.3333,-143.0559 72.1166,-138.7197 79,-136 131.1404,-115.3986 284.7474,-101.211 373.5606,-94.4751"/>
<polygon fill="#000000" stroke="#000000" points="374.0837,-97.9458 383.795,-93.7101 373.5619,-90.9653 374.0837,-97.9458"/>
</g>
<!-- t2_4&#45;&gt;verify_results -->
<g id="edge34" class="edge">
<title>t2_4&#45;&gt;verify_results</title>
<path fill="none" stroke="#000000" d="M131.5938,-147.5396C137.3875,-143.1901 144.16,-138.8271 151,-136 190.193,-119.8008 301.406,-105.1057 373.6065,-96.8822"/>
<polygon fill="#000000" stroke="#000000" points="374.417,-100.3132 383.9627,-95.7165 373.6339,-93.3571 374.417,-100.3132"/>
</g>
<!-- t3_4&#45;&gt;verify_results -->
<g id="edge35" class="edge">
<title>t3_4&#45;&gt;verify_results</title>
<path fill="none" stroke="#000000" d="M203.6816,-147.7446C209.4812,-143.4088 216.235,-139.0021 223,-136 271.1187,-114.6466 329.757,-102.9661 373.7884,-96.7252"/>
<polygon fill="#000000" stroke="#000000" points="374.3629,-100.1794 383.8001,-95.3638 373.4197,-93.2432 374.3629,-100.1794"/>
</g>
<!-- validate -->
<g id="node24" class="node">
<title>validate</title>
<ellipse fill="#d3d3d3" stroke="#000000" cx="439" cy="-18" rx="83.3857" ry="18"/>
<text text-anchor="middle" x="439" y="-14.3" font-family="Helvetica,sans-Serif" font-size="14.00" fill="#000000">Local validation</text>
</g>
<!-- verify_results&#45;&gt;validate -->
<g id="edge36" class="edge">
<title>verify_results&#45;&gt;validate</title>
<path fill="none" stroke="#000000" d="M439,-71.8314C439,-64.131 439,-54.9743 439,-46.4166"/>
<polygon fill="#000000" stroke="#000000" points="442.5001,-46.4132 439,-36.4133 435.5001,-46.4133 442.5001,-46.4132"/>
</g>
</g>
</svg>
