<?xml version="1.0" encoding="UTF-8" standalone="no"?>
<!DOCTYPE svg PUBLIC "-//W3C//DTD SVG 1.1//EN"
 "http://www.w3.org/Graphics/SVG/1.1/DTD/svg11.dtd">
<!-- Generated by graphviz version 9.0.0 (0)
 -->
<!-- Title: testing Pages: 1 -->
<svg width="886pt" height="575pt"
 viewBox="0.00 0.00 886.00 575.36" xmlns="http://www.w3.org/2000/svg" xmlns:xlink="http://www.w3.org/1999/xlink">
<g id="graph0" class="graph" transform="scale(1 1) rotate(0) translate(4 571.36)">
<title>testing</title>
<g id="clust8" class="cluster">
<title>cluster_build</title>
<polygon fill="grey" stroke="black" points="254,-355.75 254,-431.5 626,-431.5 626,-355.75 254,-355.75"/>
<text text-anchor="middle" x="592.88" y="-414.2" font-family="Helvetica,sans-Serif" font-size="14.00" fill="white">Compile</text>
</g>
<g id="clust9" class="cluster">
<title>cluster_test</title>
<polygon fill="grey" stroke="black" points="8,-136 8,-283.75 870,-283.75 870,-136 8,-136"/>
<text text-anchor="middle" x="833.5" y="-266.45" font-family="Helvetica,sans-Serif" font-size="14.00" fill="white">Run tests</text>
</g>
<!-- submit -->
<g id="node1" class="node">
<title>submit</title>
<ellipse fill="lightgrey" stroke="black" cx="433" cy="-539.43" rx="81.85" ry="27.93"/>
<text text-anchor="middle" x="433" y="-541.88" font-family="Helvetica,sans-Serif" font-size="14.00">Submit to CI</text>
<text text-anchor="middle" x="433" y="-526.13" font-family="Helvetica,sans-Serif" font-size="14.00">(GitHub Actions)</text>
</g>
<!-- codestyle -->
<g id="node2" class="node">
<title>codestyle</title>
<ellipse fill="lightgrey" stroke="black" cx="433" cy="-457.5" rx="82.5" ry="18"/>
<text text-anchor="middle" x="433" y="-452.07" font-family="Helvetica,sans-Serif" font-size="14.00">Code Style Check</text>
</g>
<!-- submit&#45;&gt;codestyle -->
<g id="edge1" class="edge">
<title>submit&#45;&gt;codestyle</title>
<path fill="none" stroke="black" d="M433,-511.37C433,-503.55 433,-494.99 433,-487.08"/>
<polygon fill="black" stroke="black" points="436.5,-487.27 433,-477.27 429.5,-487.27 436.5,-487.27"/>
</g>
<!-- build1 -->
<g id="node3" class="node">
<title>build1</title>
<ellipse fill="lightgrey" stroke="black" cx="564" cy="-381.75" rx="54.06" ry="18"/>
<text text-anchor="middle" x="564" y="-376.32" font-family="Helvetica,sans-Serif" font-size="14.00">Symmetric</text>
</g>
<!-- codestyle&#45;&gt;build1 -->
<g id="edge2" class="edge">
<title>codestyle&#45;&gt;build1</title>
<path fill="none" stroke="black" d="M478.13,-442.13C485.94,-439.02 493.85,-435.46 501,-431.5 513.63,-424.51 526.44,-415.11 537.18,-406.43"/>
<polygon fill="black" stroke="black" points="539.42,-409.12 544.87,-400.04 534.94,-403.74 539.42,-409.12"/>
</g>
<!-- build2 -->
<g id="node4" class="node">
<title>build2</title>
<ellipse fill="lightgrey" stroke="black" cx="433" cy="-381.75" rx="58.55" ry="18"/>
<text text-anchor="middle" x="433" y="-376.32" font-family="Helvetica,sans-Serif" font-size="14.00">Asymmetric</text>
</g>
<!-- codestyle&#45;&gt;build2 -->
<g id="edge3" class="edge">
<title>codestyle&#45;&gt;build2</title>
<path fill="none" stroke="black" d="M433,-439.02C433,-430.76 433,-420.67 433,-411.34"/>
<polygon fill="black" stroke="black" points="436.5,-411.62 433,-401.62 429.5,-411.62 436.5,-411.62"/>
</g>
<!-- build3 -->
<g id="node5" class="node">
<title>build3</title>
<ellipse fill="lightgrey" stroke="black" cx="309" cy="-381.75" rx="47.07" ry="18"/>
<text text-anchor="middle" x="309" y="-376.32" font-family="Helvetica,sans-Serif" font-size="14.00">OpenMP</text>
</g>
<!-- codestyle&#45;&gt;build3 -->
<g id="edge4" class="edge">
<title>codestyle&#45;&gt;build3</title>
<path fill="none" stroke="black" d="M386.96,-442.18C379.4,-439.1 371.82,-435.54 365,-431.5 353.45,-424.67 342.03,-415.33 332.55,-406.65"/>
<polygon fill="black" stroke="black" points="335.2,-404.34 325.53,-400 330.38,-409.42 335.2,-404.34"/>
</g>
<!-- build_verify -->
<g id="node6" class="node">
<title>build_verify</title>
<polygon fill="lightgrey" stroke="black" points="477.75,-327.75 388.25,-327.75 388.25,-291.75 477.75,-291.75 477.75,-327.75"/>
<text text-anchor="middle" x="433" y="-304.32" font-family="Helvetica,sans-Serif" font-size="14.00">Verify builds</text>
</g>
<!-- build1&#45;&gt;build_verify -->
<g id="edge5" class="edge">
<title>build1&#45;&gt;build_verify</title>
<path fill="none" stroke="black" d="M536.22,-365.9C518.57,-356.47 495.37,-344.08 475.44,-333.43"/>
<polygon fill="black" stroke="black" points="477.17,-330.38 466.7,-328.76 473.87,-336.56 477.17,-330.38"/>
</g>
<!-- build2&#45;&gt;build_verify -->
<g id="edge6" class="edge">
<title>build2&#45;&gt;build_verify</title>
<path fill="none" stroke="black" d="M433,-363.45C433,-356.16 433,-347.48 433,-339.29"/>
<polygon fill="black" stroke="black" points="436.5,-339.37 433,-329.37 429.5,-339.37 436.5,-339.37"/>
</g>
<!-- build3&#45;&gt;build_verify -->
<g id="edge7" class="edge">
<title>build3&#45;&gt;build_verify</title>
<path fill="none" stroke="black" d="M334.69,-366.25C351.29,-356.88 373.24,-344.48 392.2,-333.78"/>
<polygon fill="black" stroke="black" points="393.77,-336.92 400.76,-328.95 390.33,-330.82 393.77,-336.92"/>
</g>
<!-- test1 -->
<g id="node7" class="node">
<title>test1</title>
<ellipse fill="lightgrey" stroke="black" cx="727" cy="-234" rx="64.04" ry="18"/>
<text text-anchor="middle" x="727" y="-228.57" font-family="Helvetica,sans-Serif" font-size="14.00">Grid Memory</text>
</g>
<!-- build_verify&#45;&gt;test1 -->
<g id="edge8" class="edge">
<title>build_verify&#45;&gt;test1</title>
<path fill="none" stroke="black" d="M478.09,-302.7C506.89,-298.42 544.9,-291.97 578,-283.75 612.2,-275.26 649.91,-262.89 678.84,-252.73"/>
<polygon fill="black" stroke="black" points="679.79,-256.11 688.05,-249.47 677.45,-249.51 679.79,-256.11"/>
</g>
<!-- test2 -->
<g id="node8" class="node">
<title>test2</title>
<ellipse fill="lightgrey" stroke="black" cx="511" cy="-234" rx="58.05" ry="18"/>
<text text-anchor="middle" x="511" y="-228.57" font-family="Helvetica,sans-Serif" font-size="14.00">Dimensions</text>
</g>
<!-- build_verify&#45;&gt;test2 -->
<g id="edge9" class="edge">
<title>build_verify&#45;&gt;test2</title>
<path fill="none" stroke="black" d="M451.48,-291.27C461.61,-281.7 474.31,-269.69 485.38,-259.23"/>
<polygon fill="black" stroke="black" points="487.49,-262.05 492.35,-252.63 482.68,-256.96 487.49,-262.05"/>
</g>
<!-- test3 -->
<g id="node9" class="node">
<title>test3</title>
<ellipse fill="lightgrey" stroke="black" cx="361" cy="-234" rx="44.08" ry="18"/>
<text text-anchor="middle" x="361" y="-228.57" font-family="Helvetica,sans-Serif" font-size="14.00">Rotation</text>
</g>
<!-- build_verify&#45;&gt;test3 -->
<g id="edge10" class="edge">
<title>build_verify&#45;&gt;test3</title>
<path fill="none" stroke="black" d="M415.94,-291.27C406.55,-281.66 394.77,-269.59 384.52,-259.09"/>
<polygon fill="black" stroke="black" points="387.26,-256.89 377.77,-252.18 382.25,-261.78 387.26,-256.89"/>
</g>
<!-- test4 -->
<g id="node10" class="node">
<title>test4</title>
<ellipse fill="lightgrey" stroke="black" cx="151" cy="-234" rx="57.55" ry="18"/>
<text text-anchor="middle" x="151" y="-228.57" font-family="Helvetica,sans-Serif" font-size="14.00">Initialization</text>
</g>
<!-- build_verify&#45;&gt;test4 -->
<g id="edge11" class="edge">
<title>build_verify&#45;&gt;test4</title>
<path fill="none" stroke="black" d="M387.91,-300.9C364.02,-296.45 334.27,-290.44 308,-283.75 271.3,-274.41 230.46,-261.65 199.63,-251.53"/>
<polygon fill="black" stroke="black" points="200.79,-248.23 190.19,-248.41 198.59,-254.87 200.79,-248.23"/>
</g>
<!-- t1_1 -->
<g id="node11" class="node">
<title>t1_1</title>
<ellipse fill="lightgrey" stroke="black" cx="691" cy="-162" rx="27" ry="18"/>
<text text-anchor="middle" x="691" y="-156.57" font-family="Helvetica,sans-Serif" font-size="14.00">tc1</text>
</g>
<!-- test1&#45;&gt;t1_1 -->
<g id="edge12" class="edge">
<title>test1&#45;&gt;t1_1</title>
<path fill="none" stroke="black" d="M718.1,-215.7C714.02,-207.75 709.08,-198.16 704.55,-189.34"/>
<polygon fill="black" stroke="black" points="707.68,-187.78 700,-180.49 701.46,-190.98 707.68,-187.78"/>
</g>
<!-- t2_1 -->
<g id="node12" class="node">
<title>t2_1</title>
<ellipse fill="lightgrey" stroke="black" cx="763" cy="-162" rx="27" ry="18"/>
<text text-anchor="middle" x="763" y="-156.57" font-family="Helvetica,sans-Serif" font-size="14.00">tc2</text>
</g>
<!-- test1&#45;&gt;t2_1 -->
<g id="edge13" class="edge">
<title>test1&#45;&gt;t2_1</title>
<path fill="none" stroke="black" d="M735.9,-215.7C739.98,-207.75 744.92,-198.16 749.45,-189.34"/>
<polygon fill="black" stroke="black" points="752.54,-190.98 754,-180.49 746.32,-187.78 752.54,-190.98"/>
</g>
<!-- t3_1 -->
<g id="node13" class="node">
<title>t3_1</title>
<ellipse fill="lightgrey" stroke="black" cx="835" cy="-162" rx="27" ry="18"/>
<text text-anchor="middle" x="835" y="-156.57" font-family="Helvetica,sans-Serif" font-size="14.00">tc3</text>
</g>
<!-- test1&#45;&gt;t3_1 -->
<g id="edge14" class="edge">
<title>test1&#45;&gt;t3_1</title>
<path fill="none" stroke="black" d="M751.78,-216.94C768.12,-206.35 789.58,-192.44 806.62,-181.4"/>
<polygon fill="black" stroke="black" points="808.3,-184.47 814.79,-176.1 804.5,-178.6 808.3,-184.47"/>
</g>
<!-- t1_2 -->
<g id="node14" class="node">
<title>t1_2</title>
<ellipse fill="lightgrey" stroke="black" cx="475" cy="-162" rx="27" ry="18"/>
<text text-anchor="middle" x="475" y="-156.57" font-family="Helvetica,sans-Serif" font-size="14.00">tc1</text>
</g>
<!-- test2&#45;&gt;t1_2 -->
<g id="edge15" class="edge">
<title>test2&#45;&gt;t1_2</title>
<path fill="none" stroke="black" d="M502.29,-216.05C498.16,-208.03 493.13,-198.26 488.52,-189.3"/>
<polygon fill="black" stroke="black" points="491.76,-187.95 484.08,-180.65 485.54,-191.15 491.76,-187.95"/>
</g>
<!-- t2_2 -->
<g id="node15" class="node">
<title>t2_2</title>
<ellipse fill="lightgrey" stroke="black" cx="547" cy="-162" rx="27" ry="18"/>
<text text-anchor="middle" x="547" y="-156.57" font-family="Helvetica,sans-Serif" font-size="14.00">tc2</text>
</g>
<!-- test2&#45;&gt;t2_2 -->
<g id="edge16" class="edge">
<title>test2&#45;&gt;t2_2</title>
<path fill="none" stroke="black" d="M519.71,-216.05C523.84,-208.03 528.87,-198.26 533.48,-189.3"/>
<polygon fill="black" stroke="black" points="536.46,-191.15 537.92,-180.65 530.24,-187.95 536.46,-191.15"/>
</g>
<!-- t3_2 -->
<g id="node16" class="node">
<title>t3_2</title>
<ellipse fill="lightgrey" stroke="black" cx="619" cy="-162" rx="27" ry="18"/>
<text text-anchor="middle" x="619" y="-156.57" font-family="Helvetica,sans-Serif" font-size="14.00">tc3</text>
</g>
<!-- test2&#45;&gt;t3_2 -->
<g id="edge17" class="edge">
<title>test2&#45;&gt;t3_2</title>
<path fill="none" stroke="black" d="M535.24,-217.29C551.67,-206.64 573.44,-192.53 590.67,-181.36"/>
<polygon fill="black" stroke="black" points="592.45,-184.38 598.94,-176 588.65,-178.5 592.45,-184.38"/>
</g>
<!-- t1_3 -->
<g id="node17" class="node">
<title>t1_3</title>
<ellipse fill="lightgrey" stroke="black" cx="259" cy="-162" rx="27" ry="18"/>
<text text-anchor="middle" x="259" y="-156.57" font-family="Helvetica,sans-Serif" font-size="14.00">tc1</text>
</g>
<!-- test3&#45;&gt;t1_3 -->
<g id="edge18" class="edge">
<title>test3&#45;&gt;t1_3</title>
<path fill="none" stroke="black" d="M339.12,-217.98C323.75,-207.44 303.09,-193.25 286.59,-181.93"/>
<polygon fill="black" stroke="black" points="288.91,-179.28 278.68,-176.51 284.94,-185.05 288.91,-179.28"/>
</g>
<!-- t2_3 -->
<g id="node18" class="node">
<title>t2_3</title>
<ellipse fill="lightgrey" stroke="black" cx="331" cy="-162" rx="27" ry="18"/>
<text text-anchor="middle" x="331" y="-156.57" font-family="Helvetica,sans-Serif" font-size="14.00">tc2</text>
</g>
<!-- test3&#45;&gt;t2_3 -->
<g id="edge19" class="edge">
<title>test3&#45;&gt;t2_3</title>
<path fill="none" stroke="black" d="M353.74,-216.05C350.42,-208.32 346.41,-198.96 342.69,-190.27"/>
<polygon fill="black" stroke="black" points="345.95,-188.99 338.79,-181.18 339.51,-191.75 345.95,-188.99"/>
</g>
<!-- t3_3 -->
<g id="node19" class="node">
<title>t3_3</title>
<ellipse fill="lightgrey" stroke="black" cx="403" cy="-162" rx="27" ry="18"/>
<text text-anchor="middle" x="403" y="-156.57" font-family="Helvetica,sans-Serif" font-size="14.00">tc3</text>
</g>
<!-- test3&#45;&gt;t3_3 -->
<g id="edge20" class="edge">
<title>test3&#45;&gt;t3_3</title>
<path fill="none" stroke="black" d="M371.17,-216.05C376.11,-207.82 382.15,-197.76 387.63,-188.61"/>
<polygon fill="black" stroke="black" points="390.58,-190.5 392.72,-180.13 384.58,-186.9 390.58,-190.5"/>
</g>
<!-- t1_4 -->
<g id="node20" class="node">
<title>t1_4</title>
<ellipse fill="lightgrey" stroke="black" cx="43" cy="-162" rx="27" ry="18"/>
<text text-anchor="middle" x="43" y="-156.57" font-family="Helvetica,sans-Serif" font-size="14.00">tc1</text>
</g>
<!-- test4&#45;&gt;t1_4 -->
<g id="edge21" class="edge">
<title>test4&#45;&gt;t1_4</title>
<path fill="none" stroke="black" d="M126.76,-217.29C110.33,-206.64 88.56,-192.53 71.33,-181.36"/>
<polygon fill="black" stroke="black" points="73.35,-178.5 63.06,-176 69.55,-184.38 73.35,-178.5"/>
</g>
<!-- t2_4 -->
<g id="node21" class="node">
<title>t2_4</title>
<ellipse fill="lightgrey" stroke="black" cx="115" cy="-162" rx="27" ry="18"/>
<text text-anchor="middle" x="115" y="-156.57" font-family="Helvetica,sans-Serif" font-size="14.00">tc2</text>
</g>
<!-- test4&#45;&gt;t2_4 -->
<g id="edge22" class="edge">
<title>test4&#45;&gt;t2_4</title>
<path fill="none" stroke="black" d="M142.29,-216.05C138.16,-208.03 133.13,-198.26 128.52,-189.3"/>
<polygon fill="black" stroke="black" points="131.76,-187.95 124.08,-180.65 125.54,-191.15 131.76,-187.95"/>
</g>
<!-- t3_4 -->
<g id="node22" class="node">
<title>t3_4</title>
<ellipse fill="lightgrey" stroke="black" cx="187" cy="-162" rx="27" ry="18"/>
<text text-anchor="middle" x="187" y="-156.57" font-family="Helvetica,sans-Serif" font-size="14.00">tc3</text>
</g>
<!-- test4&#45;&gt;t3_4 -->
<g id="edge23" class="edge">
<title>test4&#45;&gt;t3_4</title>
<path fill="none" stroke="black" d="M159.71,-216.05C163.84,-208.03 168.87,-198.26 173.48,-189.3"/>
<polygon fill="black" stroke="black" points="176.46,-191.15 177.92,-180.65 170.24,-187.95 176.46,-191.15"/>
</g>
<!-- verify_results -->
<g id="node23" class="node">
<title>verify_results</title>
<polygon fill="lightgrey" stroke="black" points="486,-108 392,-108 392,-72 486,-72 486,-108"/>
<text text-anchor="middle" x="439" y="-84.58" font-family="Helvetica,sans-Serif" font-size="14.00">Verify results</text>
</g>
<!-- t1_1&#45;&gt;verify_results -->
<g id="edge24" class="edge">
<title>t1_1&#45;&gt;verify_results</title>
<path fill="none" stroke="black" d="M674.62,-147.55C668.73,-143.3 661.85,-138.95 655,-136 604.18,-114.14 541.95,-102.62 497.36,-96.74"/>
<polygon fill="black" stroke="black" points="498,-93.29 487.64,-95.51 497.13,-100.23 498,-93.29"/>
</g>
<!-- t2_1&#45;&gt;verify_results -->
<g id="edge25" class="edge">
<title>t2_1&#45;&gt;verify_results</title>
<path fill="none" stroke="black" d="M746.7,-147.35C740.82,-143.09 733.92,-138.77 727,-136 651.58,-105.79 557.49,-95.77 497.8,-92.5"/>
<polygon fill="black" stroke="black" points="498.01,-89.01 487.85,-92.01 497.67,-96 498.01,-89.01"/>
</g>
<!-- t3_1&#45;&gt;verify_results -->
<g id="edge26" class="edge">
<title>t3_1&#45;&gt;verify_results</title>
<path fill="none" stroke="black" d="M818.75,-147.23C812.87,-142.96 805.96,-138.67 799,-136 745.31,-115.44 585.13,-101.32 497.64,-94.91"/>
<polygon fill="black" stroke="black" points="498.04,-91.43 487.82,-94.2 497.54,-98.41 498.04,-91.43"/>
</g>
<!-- t1_2&#45;&gt;verify_results -->
<g id="edge27" class="edge">
<title>t1_2&#45;&gt;verify_results</title>
<path fill="none" stroke="black" d="M466.65,-144.76C462.59,-136.87 457.6,-127.16 452.98,-118.18"/>
<polygon fill="black" stroke="black" points="456.18,-116.76 448.5,-109.47 449.96,-119.96 456.18,-116.76"/>
</g>
<!-- t2_2&#45;&gt;verify_results -->
<g id="edge28" class="edge">
<title>t2_2&#45;&gt;verify_results</title>
<path fill="none" stroke="black" d="M529.17,-148.37C523.41,-144.35 516.97,-139.94 511,-136 500.16,-128.86 488.26,-121.3 477.32,-114.47"/>
<polygon fill="black" stroke="black" points="479.21,-111.53 468.87,-109.22 475.52,-117.47 479.21,-111.53"/>
</g>
<!-- t3_2&#45;&gt;verify_results -->
<g id="edge29" class="edge">
<title>t3_2&#45;&gt;verify_results</title>
<path fill="none" stroke="black" d="M602.08,-147.67C596.26,-143.53 589.56,-139.21 583,-136 555.91,-122.75 524.06,-112.31 497.21,-104.84"/>
<polygon fill="black" stroke="black" points="498.45,-101.55 487.88,-102.32 496.62,-108.31 498.45,-101.55"/>
</g>
<!-- t1_3&#45;&gt;verify_results -->
<g id="edge30" class="edge">
<title>t1_3&#45;&gt;verify_results</title>
<path fill="none" stroke="black" d="M275.92,-147.67C281.74,-143.53 288.44,-139.21 295,-136 322.09,-122.75 353.94,-112.31 380.79,-104.84"/>
<polygon fill="black" stroke="black" points="381.38,-108.31 390.12,-102.32 379.55,-101.55 381.38,-108.31"/>
</g>
<!-- t2_3&#45;&gt;verify_results -->
<g id="edge31" class="edge">
<title>t2_3&#45;&gt;verify_results</title>
<path fill="none" stroke="black" d="M348.83,-148.37C354.59,-144.35 361.03,-139.94 367,-136 377.84,-128.86 389.74,-121.3 400.68,-114.47"/>
<polygon fill="black" stroke="black" points="402.48,-117.47 409.13,-109.22 398.79,-111.53 402.48,-117.47"/>
</g>
<!-- t3_3&#45;&gt;verify_results -->
<g id="edge32" class="edge">
<title>t3_3&#45;&gt;verify_results</title>
<path fill="none" stroke="black" d="M411.35,-144.76C415.41,-136.87 420.4,-127.16 425.02,-118.18"/>
<polygon fill="black" stroke="black" points="428.04,-119.96 429.5,-109.47 421.82,-116.76 428.04,-119.96"/>
</g>
<!-- t1_4&#45;&gt;verify_results -->
<g id="edge33" class="edge">
<title>t1_4&#45;&gt;verify_results</title>
<path fill="none" stroke="black" d="M59.25,-147.23C65.13,-142.96 72.04,-138.67 79,-136 132.69,-115.44 292.87,-101.32 380.36,-94.91"/>
<polygon fill="black" stroke="black" points="380.46,-98.41 390.18,-94.2 379.96,-91.43 380.46,-98.41"/>
</g>
<!-- t2_4&#45;&gt;verify_results -->
<g id="edge34" class="edge">
<title>t2_4&#45;&gt;verify_results</title>
<path fill="none" stroke="black" d="M131.3,-147.35C137.18,-143.09 144.08,-138.77 151,-136 226.42,-105.79 320.51,-95.77 380.2,-92.5"/>
<polygon fill="black" stroke="black" points="380.33,-96 390.15,-92.01 379.99,-89.01 380.33,-96"/>
</g>
<!-- t3_4&#45;&gt;verify_results -->
<g id="edge35" class="edge">
<title>t3_4&#45;&gt;verify_results</title>
<path fill="none" stroke="black" d="M203.38,-147.55C209.27,-143.3 216.15,-138.95 223,-136 273.82,-114.14 336.05,-102.62 380.64,-96.74"/>
<polygon fill="black" stroke="black" points="380.87,-100.23 390.36,-95.51 380,-93.29 380.87,-100.23"/>
</g>
<!-- validate -->
<g id="node24" class="node">
<title>validate</title>
<ellipse fill="lightgrey" stroke="black" cx="439" cy="-18" rx="72.52" ry="18"/>
<text text-anchor="middle" x="439" y="-12.57" font-family="Helvetica,sans-Serif" font-size="14.00">Local validation</text>
</g>
<!-- verify_results&#45;&gt;validate -->
<g id="edge36" class="edge">
<title>verify_results&#45;&gt;validate</title>
<path fill="none" stroke="black" d="M439,-71.7C439,-64.41 439,-55.73 439,-47.54"/>
<polygon fill="black" stroke="black" points="442.5,-47.62 439,-37.62 435.5,-47.62 442.5,-47.62"/>
</g>
</g>
</svg>
