<?xml version="1.0" encoding="UTF-8" standalone="no"?>
<!DOCTYPE svg PUBLIC "-//W3C//DTD SVG 1.1//EN"
 "http://www.w3.org/Graphics/SVG/1.1/DTD/svg11.dtd">
<!-- Generated by graphviz version 9.0.0 (0)
 -->
<!-- Title: rot_stencil Pages: 1 -->
<svg width="182pt" height="301pt"
 viewBox="0.00 0.00 182.24 300.96" xmlns="http://www.w3.org/2000/svg" xmlns:xlink="http://www.w3.org/1999/xlink">
<g id="graph0" class="graph" transform="scale(1 1) rotate(0) translate(4 296.96)">
<title>rot_stencil</title>
<!-- 00 -->
<g id="node1" class="node">
<title>00</title>
<ellipse fill="#6baed6" stroke="black" cx="23.12" cy="-23.12" rx="23.12" ry="23.12"/>
<text text-anchor="middle" x="23.12" y="-17.7" font-family="Helvetica,sans-Serif" font-size="14.00" fill="white">0,0</text>
</g>
<!-- 01 -->
<g id="node5" class="node">
<title>01</title>
<ellipse fill="#74c476" stroke="black" cx="87.12" cy="-23.12" rx="23.12" ry="23.12"/>
<text text-anchor="middle" x="87.12" y="-17.7" font-family="Helvetica,sans-Serif" font-size="14.00" fill="white">0,1</text>
</g>
<!-- 00&#45;&#45;01 -->
<g id="edge7" class="edge">
<title>00&#45;&#45;01</title>
<path fill="none" stroke="black" d="M46.62,-23.12C52.32,-23.12 58.01,-23.12 63.71,-23.12"/>
</g>
<!-- 10 -->
<g id="node2" class="node">
<title>10</title>
<ellipse fill="#4292c6" stroke="black" cx="23.12" cy="-105.36" rx="23.12" ry="23.12"/>
<text text-anchor="middle" x="23.12" y="-99.94" font-family="Helvetica,sans-Serif" font-size="14.00" fill="white">1,0</text>
</g>
<!-- 10&#45;&#45;00 -->
<g id="edge11" class="edge">
<title>10&#45;&#45;00</title>
<path fill="none" stroke="black" d="M23.12,-82.01C23.12,-70.97 23.12,-57.69 23.12,-46.63"/>
</g>
<!-- 11 -->
<g id="node6" class="node">
<title>11</title>
<ellipse fill="#41ab5d" stroke="black" cx="87.12" cy="-105.36" rx="23.12" ry="23.12"/>
<text text-anchor="middle" x="87.12" y="-99.94" font-family="Helvetica,sans-Serif" font-size="14.00" fill="white">1,1</text>
</g>
<!-- 10&#45;&#45;11 -->
<g id="edge5" class="edge">
<title>10&#45;&#45;11</title>
<path fill="none" stroke="black" d="M46.62,-105.36C52.32,-105.36 58.01,-105.36 63.71,-105.36"/>
</g>
<!-- 20 -->
<g id="node3" class="node">
<title>20</title>
<ellipse fill="#2171b5" stroke="black" cx="23.12" cy="-187.6" rx="23.12" ry="23.12"/>
<text text-anchor="middle" x="23.12" y="-182.18" font-family="Helvetica,sans-Serif" font-size="14.00" fill="white">2,0</text>
</g>
<!-- 20&#45;&#45;10 -->
<g id="edge10" class="edge">
<title>20&#45;&#45;10</title>
<path fill="none" stroke="black" d="M23.12,-164.25C23.12,-153.21 23.12,-139.93 23.12,-128.87"/>
</g>
<!-- 21 -->
<g id="node7" class="node">
<title>21</title>
<ellipse fill="#238b45" stroke="black" cx="87.12" cy="-187.6" rx="23.12" ry="23.12"/>
<text text-anchor="middle" x="87.12" y="-182.18" font-family="Helvetica,sans-Serif" font-size="14.00" fill="white">2,1</text>
</g>
<!-- 20&#45;&#45;21 -->
<g id="edge3" class="edge">
<title>20&#45;&#45;21</title>
<path fill="none" stroke="black" d="M46.62,-187.6C52.32,-187.6 58.01,-187.6 63.71,-187.6"/>
</g>
<!-- 30 -->
<g id="node4" class="node">
<title>30</title>
<ellipse fill="#084594" stroke="black" cx="23.12" cy="-269.84" rx="23.12" ry="23.12"/>
<text text-anchor="middle" x="23.12" y="-264.42" font-family="Helvetica,sans-Serif" font-size="14.00" fill="white">3,0</text>
</g>
<!-- 30&#45;&#45;20 -->
<g id="edge9" class="edge">
<title>30&#45;&#45;20</title>
<path fill="none" stroke="black" d="M23.12,-246.49C23.12,-235.45 23.12,-222.17 23.12,-211.11"/>
</g>
<!-- 31 -->
<g id="node8" class="node">
<title>31</title>
<ellipse fill="#005a32" stroke="black" cx="87.12" cy="-269.84" rx="23.12" ry="23.12"/>
<text text-anchor="middle" x="87.12" y="-264.42" font-family="Helvetica,sans-Serif" font-size="14.00" fill="white">3,1</text>
</g>
<!-- 30&#45;&#45;31 -->
<g id="edge1" class="edge">
<title>30&#45;&#45;31</title>
<path fill="none" stroke="black" d="M46.62,-269.84C52.32,-269.84 58.01,-269.84 63.71,-269.84"/>
</g>
<!-- 02 -->
<g id="node9" class="node">
<title>02</title>
<ellipse fill="#fb6a4a" stroke="black" cx="151.12" cy="-23.12" rx="23.12" ry="23.12"/>
<text text-anchor="middle" x="151.12" y="-17.7" font-family="Helvetica,sans-Serif" font-size="14.00" fill="white">0,2</text>
</g>
<!-- 01&#45;&#45;02 -->
<g id="edge8" class="edge">
<title>01&#45;&#45;02</title>
<path fill="none" stroke="black" d="M110.62,-23.12C116.32,-23.12 122.01,-23.12 127.71,-23.12"/>
</g>
<!-- 11&#45;&#45;01 -->
<g id="edge14" class="edge">
<title>11&#45;&#45;01</title>
<path fill="none" stroke="black" d="M87.12,-82.01C87.12,-70.97 87.12,-57.69 87.12,-46.63"/>
</g>
<!-- 12 -->
<g id="node10" class="node">
<title>12</title>
<ellipse fill="#ef3b2c" stroke="black" cx="151.12" cy="-105.36" rx="23.12" ry="23.12"/>
<text text-anchor="middle" x="151.12" y="-99.94" font-family="Helvetica,sans-Serif" font-size="14.00" fill="white">1,2</text>
</g>
<!-- 11&#45;&#45;12 -->
<g id="edge6" class="edge">
<title>11&#45;&#45;12</title>
<path fill="none" stroke="black" d="M110.62,-105.36C116.32,-105.36 122.01,-105.36 127.71,-105.36"/>
</g>
<!-- 21&#45;&#45;11 -->
<g id="edge13" class="edge">
<title>21&#45;&#45;11</title>
<path fill="none" stroke="black" d="M87.12,-164.25C87.12,-153.21 87.12,-139.93 87.12,-128.87"/>
</g>
<!-- 22 -->
<g id="node11" class="node">
<title>22</title>
<ellipse fill="#cb181d" stroke="black" cx="151.12" cy="-187.6" rx="23.12" ry="23.12"/>
<text text-anchor="middle" x="151.12" y="-182.18" font-family="Helvetica,sans-Serif" font-size="14.00" fill="white">2,2</text>
</g>
<!-- 21&#45;&#45;22 -->
<g id="edge4" class="edge">
<title>21&#45;&#45;22</title>
<path fill="none" stroke="black" d="M110.62,-187.6C116.32,-187.6 122.01,-187.6 127.71,-187.6"/>
</g>
<!-- 31&#45;&#45;21 -->
<g id="edge12" class="edge">
<title>31&#45;&#45;21</title>
<path fill="none" stroke="black" d="M87.12,-246.49C87.12,-235.45 87.12,-222.17 87.12,-211.11"/>
</g>
<!-- 32 -->
<g id="node12" class="node">
<title>32</title>
<ellipse fill="#99000d" stroke="black" cx="151.12" cy="-269.84" rx="23.12" ry="23.12"/>
<text text-anchor="middle" x="151.12" y="-264.42" font-family="Helvetica,sans-Serif" font-size="14.00" fill="white">3,2</text>
</g>
<!-- 31&#45;&#45;32 -->
<g id="edge2" class="edge">
<title>31&#45;&#45;32</title>
<path fill="none" stroke="black" d="M110.62,-269.84C116.32,-269.84 122.01,-269.84 127.71,-269.84"/>
</g>
<!-- 12&#45;&#45;02 -->
<g id="edge17" class="edge">
<title>12&#45;&#45;02</title>
<path fill="none" stroke="black" d="M151.12,-82.01C151.12,-70.97 151.12,-57.69 151.12,-46.63"/>
</g>
<!-- 22&#45;&#45;12 -->
<g id="edge16" class="edge">
<title>22&#45;&#45;12</title>
<path fill="none" stroke="black" d="M151.12,-164.25C151.12,-153.21 151.12,-139.93 151.12,-128.87"/>
</g>
<!-- 32&#45;&#45;22 -->
<g id="edge15" class="edge">
<title>32&#45;&#45;22</title>
<path fill="none" stroke="black" d="M151.12,-246.49C151.12,-235.45 151.12,-222.17 151.12,-211.11"/>
</g>
</g>
</svg>
