<?xml version="1.0" encoding="UTF-8" standalone="no"?>
<!DOCTYPE svg PUBLIC "-//W3C//DTD SVG 1.1//EN"
 "http://www.w3.org/Graphics/SVG/1.1/DTD/svg11.dtd">
<!-- Generated by graphviz version 9.0.0 (0)
 -->
<!-- Title: stencil Pages: 1 -->
<svg width="246pt" height="219pt"
 viewBox="0.00 0.00 246.24 218.72" xmlns="http://www.w3.org/2000/svg" xmlns:xlink="http://www.w3.org/1999/xlink">
<g id="graph0" class="graph" transform="scale(1 1) rotate(0) translate(4 214.72)">
<title>stencil</title>
<!-- 00 -->
<g id="node1" class="node">
<title>00</title>
<ellipse fill="#fb6a4a" stroke="black" cx="23.12" cy="-23.12" rx="23.12" ry="23.12"/>
<text text-anchor="middle" x="23.12" y="-17.7" font-family="Helvetica,sans-Serif" font-size="14.00" fill="white">0,0</text>
</g>
<!-- 01 -->
<g id="node2" class="node">
<title>01</title>
<ellipse fill="#ef3b2c" stroke="black" cx="87.12" cy="-23.12" rx="23.12" ry="23.12"/>
<text text-anchor="middle" x="87.12" y="-17.7" font-family="Helvetica,sans-Serif" font-size="14.00" fill="white">0,1</text>
</g>
<!-- 00&#45;&#45;01 -->
<g id="edge7" class="edge">
<title>00&#45;&#45;01</title>
<path fill="none" stroke="black" d="M46.62,-23.12C52.32,-23.12 58.01,-23.12 63.71,-23.12"/>
</g>
<!-- 02 -->
<g id="node3" class="node">
<title>02</title>
<ellipse fill="#cb181d" stroke="black" cx="151.12" cy="-23.12" rx="23.12" ry="23.12"/>
<text text-anchor="middle" x="151.12" y="-17.7" font-family="Helvetica,sans-Serif" font-size="14.00" fill="white">0,2</text>
</g>
<!-- 01&#45;&#45;02 -->
<g id="edge8" class="edge">
<title>01&#45;&#45;02</title>
<path fill="none" stroke="black" d="M110.62,-23.12C116.32,-23.12 122.01,-23.12 127.71,-23.12"/>
</g>
<!-- 03 -->
<g id="node4" class="node">
<title>03</title>
<ellipse fill="#99000d" stroke="black" cx="215.12" cy="-23.12" rx="23.12" ry="23.12"/>
<text text-anchor="middle" x="215.12" y="-17.7" font-family="Helvetica,sans-Serif" font-size="14.00" fill="white">0,3</text>
</g>
<!-- 02&#45;&#45;03 -->
<g id="edge9" class="edge">
<title>02&#45;&#45;03</title>
<path fill="none" stroke="black" d="M174.62,-23.12C180.32,-23.12 186.01,-23.12 191.71,-23.12"/>
</g>
<!-- 10 -->
<g id="node5" class="node">
<title>10</title>
<ellipse fill="#74c476" stroke="black" cx="23.12" cy="-105.36" rx="23.12" ry="23.12"/>
<text text-anchor="middle" x="23.12" y="-99.94" font-family="Helvetica,sans-Serif" font-size="14.00" fill="white">1,0</text>
</g>
<!-- 10&#45;&#45;00 -->
<g id="edge11" class="edge">
<title>10&#45;&#45;00</title>
<path fill="none" stroke="black" d="M23.12,-82.01C23.12,-70.97 23.12,-57.69 23.12,-46.63"/>
</g>
<!-- 11 -->
<g id="node6" class="node">
<title>11</title>
<ellipse fill="#41ab5d" stroke="black" cx="87.12" cy="-105.36" rx="23.12" ry="23.12"/>
<text text-anchor="middle" x="87.12" y="-99.94" font-family="Helvetica,sans-Serif" font-size="14.00" fill="white">1,1</text>
</g>
<!-- 10&#45;&#45;11 -->
<g id="edge4" class="edge">
<title>10&#45;&#45;11</title>
<path fill="none" stroke="black" d="M46.62,-105.36C52.32,-105.36 58.01,-105.36 63.71,-105.36"/>
</g>
<!-- 11&#45;&#45;01 -->
<g id="edge13" class="edge">
<title>11&#45;&#45;01</title>
<path fill="none" stroke="black" d="M87.12,-82.01C87.12,-70.97 87.12,-57.69 87.12,-46.63"/>
</g>
<!-- 12 -->
<g id="node7" class="node">
<title>12</title>
<ellipse fill="#238b45" stroke="black" cx="151.12" cy="-105.36" rx="23.12" ry="23.12"/>
<text text-anchor="middle" x="151.12" y="-99.94" font-family="Helvetica,sans-Serif" font-size="14.00" fill="white">1,2</text>
</g>
<!-- 11&#45;&#45;12 -->
<g id="edge5" class="edge">
<title>11&#45;&#45;12</title>
<path fill="none" stroke="black" d="M110.62,-105.36C116.32,-105.36 122.01,-105.36 127.71,-105.36"/>
</g>
<!-- 12&#45;&#45;02 -->
<g id="edge15" class="edge">
<title>12&#45;&#45;02</title>
<path fill="none" stroke="black" d="M151.12,-82.01C151.12,-70.97 151.12,-57.69 151.12,-46.63"/>
</g>
<!-- 13 -->
<g id="node8" class="node">
<title>13</title>
<ellipse fill="#005a32" stroke="black" cx="215.12" cy="-105.36" rx="23.12" ry="23.12"/>
<text text-anchor="middle" x="215.12" y="-99.94" font-family="Helvetica,sans-Serif" font-size="14.00" fill="white">1,3</text>
</g>
<!-- 12&#45;&#45;13 -->
<g id="edge6" class="edge">
<title>12&#45;&#45;13</title>
<path fill="none" stroke="black" d="M174.62,-105.36C180.32,-105.36 186.01,-105.36 191.71,-105.36"/>
</g>
<!-- 13&#45;&#45;03 -->
<g id="edge17" class="edge">
<title>13&#45;&#45;03</title>
<path fill="none" stroke="black" d="M215.12,-82.01C215.12,-70.97 215.12,-57.69 215.12,-46.63"/>
</g>
<!-- 20 -->
<g id="node9" class="node">
<title>20</title>
<ellipse fill="#6baed6" stroke="black" cx="23.12" cy="-187.6" rx="23.12" ry="23.12"/>
<text text-anchor="middle" x="23.12" y="-182.18" font-family="Helvetica,sans-Serif" font-size="14.00" fill="white">2,0</text>
</g>
<!-- 20&#45;&#45;10 -->
<g id="edge10" class="edge">
<title>20&#45;&#45;10</title>
<path fill="none" stroke="black" d="M23.12,-164.25C23.12,-153.21 23.12,-139.93 23.12,-128.87"/>
</g>
<!-- 21 -->
<g id="node10" class="node">
<title>21</title>
<ellipse fill="#4292c6" stroke="black" cx="87.12" cy="-187.6" rx="23.12" ry="23.12"/>
<text text-anchor="middle" x="87.12" y="-182.18" font-family="Helvetica,sans-Serif" font-size="14.00" fill="white">2,1</text>
</g>
<!-- 20&#45;&#45;21 -->
<g id="edge1" class="edge">
<title>20&#45;&#45;21</title>
<path fill="none" stroke="black" d="M46.62,-187.6C52.32,-187.6 58.01,-187.6 63.71,-187.6"/>
</g>
<!-- 21&#45;&#45;11 -->
<g id="edge12" class="edge">
<title>21&#45;&#45;11</title>
<path fill="none" stroke="black" d="M87.12,-164.25C87.12,-153.21 87.12,-139.93 87.12,-128.87"/>
</g>
<!-- 22 -->
<g id="node11" class="node">
<title>22</title>
<ellipse fill="#2171b5" stroke="black" cx="151.12" cy="-187.6" rx="23.12" ry="23.12"/>
<text text-anchor="middle" x="151.12" y="-182.18" font-family="Helvetica,sans-Serif" font-size="14.00" fill="white">2,2</text>
</g>
<!-- 21&#45;&#45;22 -->
<g id="edge2" class="edge">
<title>21&#45;&#45;22</title>
<path fill="none" stroke="black" d="M110.62,-187.6C116.32,-187.6 122.01,-187.6 127.71,-187.6"/>
</g>
<!-- 22&#45;&#45;12 -->
<g id="edge14" class="edge">
<title>22&#45;&#45;12</title>
<path fill="none" stroke="black" d="M151.12,-164.25C151.12,-153.21 151.12,-139.93 151.12,-128.87"/>
</g>
<!-- 23 -->
<g id="node12" class="node">
<title>23</title>
<ellipse fill="#084594" stroke="black" cx="215.12" cy="-187.6" rx="23.12" ry="23.12"/>
<text text-anchor="middle" x="215.12" y="-182.18" font-family="Helvetica,sans-Serif" font-size="14.00" fill="white">2,3</text>
</g>
<!-- 22&#45;&#45;23 -->
<g id="edge3" class="edge">
<title>22&#45;&#45;23</title>
<path fill="none" stroke="black" d="M174.62,-187.6C180.32,-187.6 186.01,-187.6 191.71,-187.6"/>
</g>
<!-- 23&#45;&#45;13 -->
<g id="edge16" class="edge">
<title>23&#45;&#45;13</title>
<path fill="none" stroke="black" d="M215.12,-164.25C215.12,-153.21 215.12,-139.93 215.12,-128.87"/>
</g>
</g>
</svg>
