<?xml version="1.0" encoding="UTF-8" standalone="no"?>
<!DOCTYPE svg PUBLIC "-//W3C//DTD SVG 1.1//EN"
 "http://www.w3.org/Graphics/SVG/1.1/DTD/svg11.dtd">
<!-- Generated by graphviz version 9.0.0 (0)
 -->
<!-- Title: rotation Pages: 1 -->
<svg width="652pt" height="44pt"
 viewBox="0.00 0.00 652.00 44.00" xmlns="http://www.w3.org/2000/svg" xmlns:xlink="http://www.w3.org/1999/xlink">
<g id="graph0" class="graph" transform="scale(1 1) rotate(0) translate(4 40)">
<title>rotation</title>
<!-- mem1 -->
<g id="node1" class="node">
<title>mem1</title>
<polygon fill="lightgrey" stroke="none" points="313,-36 0,-36 0,0 313,0 313,-36"/>
<polygon fill="#fb6a4a" stroke="none" points="8,-7.12 8,-28.88 32.75,-28.88 32.75,-7.12 8,-7.12"/>
<polygon fill="none" stroke="black" points="8,-7.12 8,-28.88 32.75,-28.88 32.75,-7.12 8,-7.12"/>
<text text-anchor="start" x="11" y="-12.57" font-family="Helvetica,sans-Serif" font-size="14.00" fill="white">0,0</text>
<polygon fill="#ef3b2c" stroke="none" points="32.75,-7.12 32.75,-28.88 57.5,-28.88 57.5,-7.12 32.75,-7.12"/>
<polygon fill="none" stroke="black" points="32.75,-7.12 32.75,-28.88 57.5,-28.88 57.5,-7.12 32.75,-7.12"/>
<text text-anchor="start" x="35.75" y="-12.57" font-family="Helvetica,sans-Serif" font-size="14.00" fill="white">0,1</text>
<polygon fill="#cb181d" stroke="none" points="57.5,-7.12 57.5,-28.88 82.25,-28.88 82.25,-7.12 57.5,-7.12"/>
<polygon fill="none" stroke="black" points="57.5,-7.12 57.5,-28.88 82.25,-28.88 82.25,-7.12 57.5,-7.12"/>
<text text-anchor="start" x="60.5" y="-12.57" font-family="Helvetica,sans-Serif" font-size="14.00" fill="white">0,2</text>
<polygon fill="#99000d" stroke="none" points="82.25,-7.12 82.25,-28.88 107,-28.88 107,-7.12 82.25,-7.12"/>
<polygon fill="none" stroke="black" points="82.25,-7.12 82.25,-28.88 107,-28.88 107,-7.12 82.25,-7.12"/>
<text text-anchor="start" x="85.25" y="-12.57" font-family="Helvetica,sans-Serif" font-size="14.00" fill="white">0,3</text>
<polygon fill="#74c476" stroke="none" points="107,-7.12 107,-28.88 131.75,-28.88 131.75,-7.12 107,-7.12"/>
<polygon fill="none" stroke="black" points="107,-7.12 107,-28.88 131.75,-28.88 131.75,-7.12 107,-7.12"/>
<text text-anchor="start" x="110" y="-12.57" font-family="Helvetica,sans-Serif" font-size="14.00" fill="white">1,0</text>
<polygon fill="#41ab5d" stroke="none" points="131.75,-7.12 131.75,-28.88 156.5,-28.88 156.5,-7.12 131.75,-7.12"/>
<polygon fill="none" stroke="black" points="131.75,-7.12 131.75,-28.88 156.5,-28.88 156.5,-7.12 131.75,-7.12"/>
<text text-anchor="start" x="134.75" y="-12.57" font-family="Helvetica,sans-Serif" font-size="14.00" fill="white">1,1</text>
<polygon fill="#238b45" stroke="none" points="156.5,-7.12 156.5,-28.88 181.25,-28.88 181.25,-7.12 156.5,-7.12"/>
<polygon fill="none" stroke="black" points="156.5,-7.12 156.5,-28.88 181.25,-28.88 181.25,-7.12 156.5,-7.12"/>
<text text-anchor="start" x="159.5" y="-12.57" font-family="Helvetica,sans-Serif" font-size="14.00" fill="white">1,2</text>
<polygon fill="#005a32" stroke="none" points="181.25,-7.12 181.25,-28.88 206,-28.88 206,-7.12 181.25,-7.12"/>
<polygon fill="none" stroke="black" points="181.25,-7.12 181.25,-28.88 206,-28.88 206,-7.12 181.25,-7.12"/>
<text text-anchor="start" x="184.25" y="-12.57" font-family="Helvetica,sans-Serif" font-size="14.00" fill="white">1,3</text>
<polygon fill="#6baed6" stroke="none" points="206,-7.12 206,-28.88 230.75,-28.88 230.75,-7.12 206,-7.12"/>
<polygon fill="none" stroke="black" points="206,-7.12 206,-28.88 230.75,-28.88 230.75,-7.12 206,-7.12"/>
<text text-anchor="start" x="209" y="-12.57" font-family="Helvetica,sans-Serif" font-size="14.00" fill="white">2,0</text>
<polygon fill="#4292c6" stroke="none" points="230.75,-7.12 230.75,-28.88 255.5,-28.88 255.5,-7.12 230.75,-7.12"/>
<polygon fill="none" stroke="black" points="230.75,-7.12 230.75,-28.88 255.5,-28.88 255.5,-7.12 230.75,-7.12"/>
<text text-anchor="start" x="233.75" y="-12.57" font-family="Helvetica,sans-Serif" font-size="14.00" fill="white">2,1</text>
<polygon fill="#2171b5" stroke="none" points="255.5,-7.12 255.5,-28.88 280.25,-28.88 280.25,-7.12 255.5,-7.12"/>
<polygon fill="none" stroke="black" points="255.5,-7.12 255.5,-28.88 280.25,-28.88 280.25,-7.12 255.5,-7.12"/>
<text text-anchor="start" x="258.5" y="-12.57" font-family="Helvetica,sans-Serif" font-size="14.00" fill="white">2,2</text>
<polygon fill="#084594" stroke="none" points="280.25,-7.12 280.25,-28.88 305,-28.88 305,-7.12 280.25,-7.12"/>
<polygon fill="none" stroke="black" points="280.25,-7.12 280.25,-28.88 305,-28.88 305,-7.12 280.25,-7.12"/>
<text text-anchor="start" x="283.25" y="-12.57" font-family="Helvetica,sans-Serif" font-size="14.00" fill="white">2,3</text>
</g>
<!-- mem2 -->
<g id="node2" class="node">
<title>mem2</title>
<polygon fill="lightgrey" stroke="none" points="644,-36 331,-36 331,0 644,0 644,-36"/>
<polygon fill="#6baed6" stroke="none" points="339,-7.12 339,-28.88 363.75,-28.88 363.75,-7.12 339,-7.12"/>
<polygon fill="none" stroke="black" points="339,-7.12 339,-28.88 363.75,-28.88 363.75,-7.12 339,-7.12"/>
<text text-anchor="start" x="342" y="-12.57" font-family="Helvetica,sans-Serif" font-size="14.00" fill="white">0,0</text>
<polygon fill="#74c476" stroke="none" points="363.75,-7.12 363.75,-28.88 388.5,-28.88 388.5,-7.12 363.75,-7.12"/>
<polygon fill="none" stroke="black" points="363.75,-7.12 363.75,-28.88 388.5,-28.88 388.5,-7.12 363.75,-7.12"/>
<text text-anchor="start" x="366.75" y="-12.57" font-family="Helvetica,sans-Serif" font-size="14.00" fill="white">0,1</text>
<polygon fill="#fb6a4a" stroke="none" points="388.5,-7.12 388.5,-28.88 413.25,-28.88 413.25,-7.12 388.5,-7.12"/>
<polygon fill="none" stroke="black" points="388.5,-7.12 388.5,-28.88 413.25,-28.88 413.25,-7.12 388.5,-7.12"/>
<text text-anchor="start" x="391.5" y="-12.57" font-family="Helvetica,sans-Serif" font-size="14.00" fill="white">0,2</text>
<polygon fill="#4292c6" stroke="none" points="413.25,-7.12 413.25,-28.88 438,-28.88 438,-7.12 413.25,-7.12"/>
<polygon fill="none" stroke="black" points="413.25,-7.12 413.25,-28.88 438,-28.88 438,-7.12 413.25,-7.12"/>
<text text-anchor="start" x="416.25" y="-12.57" font-family="Helvetica,sans-Serif" font-size="14.00" fill="white">1,0</text>
<polygon fill="#41ab5d" stroke="none" points="438,-7.12 438,-28.88 462.75,-28.88 462.75,-7.12 438,-7.12"/>
<polygon fill="none" stroke="black" points="438,-7.12 438,-28.88 462.75,-28.88 462.75,-7.12 438,-7.12"/>
<text text-anchor="start" x="441" y="-12.57" font-family="Helvetica,sans-Serif" font-size="14.00" fill="white">1,1</text>
<polygon fill="#ef3b2c" stroke="none" points="462.75,-7.12 462.75,-28.88 487.5,-28.88 487.5,-7.12 462.75,-7.12"/>
<polygon fill="none" stroke="black" points="462.75,-7.12 462.75,-28.88 487.5,-28.88 487.5,-7.12 462.75,-7.12"/>
<text text-anchor="start" x="465.75" y="-12.57" font-family="Helvetica,sans-Serif" font-size="14.00" fill="white">1,2</text>
<polygon fill="#2171b5" stroke="none" points="487.5,-7.12 487.5,-28.88 512.25,-28.88 512.25,-7.12 487.5,-7.12"/>
<polygon fill="none" stroke="black" points="487.5,-7.12 487.5,-28.88 512.25,-28.88 512.25,-7.12 487.5,-7.12"/>
<text text-anchor="start" x="490.5" y="-12.57" font-family="Helvetica,sans-Serif" font-size="14.00" fill="white">2,0</text>
<polygon fill="#238b45" stroke="none" points="512.25,-7.12 512.25,-28.88 537,-28.88 537,-7.12 512.25,-7.12"/>
<polygon fill="none" stroke="black" points="512.25,-7.12 512.25,-28.88 537,-28.88 537,-7.12 512.25,-7.12"/>
<text text-anchor="start" x="515.25" y="-12.57" font-family="Helvetica,sans-Serif" font-size="14.00" fill="white">2,1</text>
<polygon fill="#cb181d" stroke="none" points="537,-7.12 537,-28.88 561.75,-28.88 561.75,-7.12 537,-7.12"/>
<polygon fill="none" stroke="black" points="537,-7.12 537,-28.88 561.75,-28.88 561.75,-7.12 537,-7.12"/>
<text text-anchor="start" x="540" y="-12.57" font-family="Helvetica,sans-Serif" font-size="14.00" fill="white">2,2</text>
<polygon fill="#084594" stroke="none" points="561.75,-7.12 561.75,-28.88 586.5,-28.88 586.5,-7.12 561.75,-7.12"/>
<polygon fill="none" stroke="black" points="561.75,-7.12 561.75,-28.88 586.5,-28.88 586.5,-7.12 561.75,-7.12"/>
<text text-anchor="start" x="564.75" y="-12.57" font-family="Helvetica,sans-Serif" font-size="14.00" fill="white">3,0</text>
<polygon fill="#005a32" stroke="none" points="586.5,-7.12 586.5,-28.88 611.25,-28.88 611.25,-7.12 586.5,-7.12"/>
<polygon fill="none" stroke="black" points="586.5,-7.12 586.5,-28.88 611.25,-28.88 611.25,-7.12 586.5,-7.12"/>
<text text-anchor="start" x="589.5" y="-12.57" font-family="Helvetica,sans-Serif" font-size="14.00" fill="white">3,1</text>
<polygon fill="#99000d" stroke="none" points="611.25,-7.12 611.25,-28.88 636,-28.88 636,-7.12 611.25,-7.12"/>
<polygon fill="none" stroke="black" points="611.25,-7.12 611.25,-28.88 636,-28.88 636,-7.12 611.25,-7.12"/>
<text text-anchor="start" x="614.25" y="-12.57" font-family="Helvetica,sans-Serif" font-size="14.00" fill="white">3,2</text>
</g>
</g>
</svg>
