<?xml version="1.0" encoding="UTF-8" standalone="no"?>
<!DOCTYPE svg PUBLIC "-//W3C//DTD SVG 1.1//EN"
 "http://www.w3.org/Graphics/SVG/1.1/DTD/svg11.dtd">
<!-- Generated by graphviz version 9.0.0 (0)
 -->
<!-- Title: stencil Pages: 1 -->
<svg width="206pt" height="260pt"
 viewBox="0.00 0.00 206.00 260.00" xmlns="http://www.w3.org/2000/svg" xmlns:xlink="http://www.w3.org/1999/xlink">
<g id="graph0" class="graph" transform="scale(1 1) rotate(0) translate(4 256)">
<title>stencil</title>
<!-- 11 -->
<g id="node1" class="node">
<title>11</title>
<ellipse fill="#e41a1c" stroke="black" cx="72" cy="-162" rx="18" ry="18"/>
<text text-anchor="middle" x="72" y="-156.57" font-family="Helvetica,sans-Serif" font-size="14.00" fill="white">A</text>
</g>
<!-- 12 -->
<g id="node2" class="node">
<title>12</title>
<ellipse fill="#4daf4a" stroke="black" cx="126" cy="-162" rx="18" ry="18"/>
<text text-anchor="middle" x="126" y="-156.57" font-family="Helvetica,sans-Serif" font-size="14.00" fill="white">B</text>
</g>
<!-- 11&#45;&#45;12 -->
<g id="edge5" class="edge">
<title>11&#45;&#45;12</title>
<path fill="none" stroke="black" d="M90.14,-162C95.93,-162 101.72,-162 107.51,-162"/>
</g>
<!-- 21 -->
<g id="node3" class="node">
<title>21</title>
<ellipse fill="#984ea3" stroke="black" cx="72" cy="-90" rx="18" ry="18"/>
<text text-anchor="middle" x="72" y="-84.58" font-family="Helvetica,sans-Serif" font-size="14.00" fill="white">C</text>
</g>
<!-- 11&#45;&#45;21 -->
<g id="edge17" class="edge">
<title>11&#45;&#45;21</title>
<path fill="none" stroke="black" d="M72,-143.7C72,-132.85 72,-118.92 72,-108.1"/>
</g>
<!-- 22 -->
<g id="node4" class="node">
<title>22</title>
<ellipse fill="#ff7f00" stroke="black" cx="126" cy="-90" rx="18" ry="18"/>
<text text-anchor="middle" x="126" y="-84.58" font-family="Helvetica,sans-Serif" font-size="14.00" fill="white">D</text>
</g>
<!-- 12&#45;&#45;22 -->
<g id="edge20" class="edge">
<title>12&#45;&#45;22</title>
<path fill="none" stroke="black" d="M126,-143.7C126,-132.85 126,-118.92 126,-108.1"/>
</g>
<!-- 13 -->
<g id="node10" class="node">
<title>13</title>
<ellipse fill="white" stroke="black" cx="180" cy="-162" rx="18" ry="18"/>
</g>
<!-- 12&#45;&#45;13 -->
<g id="edge6" class="edge">
<title>12&#45;&#45;13</title>
<path fill="none" stroke="black" d="M144.14,-162C149.93,-162 155.72,-162 161.51,-162"/>
</g>
<!-- 21&#45;&#45;22 -->
<g id="edge8" class="edge">
<title>21&#45;&#45;22</title>
<path fill="none" stroke="black" d="M90.14,-90C95.93,-90 101.72,-90 107.51,-90"/>
</g>
<!-- 31 -->
<g id="node14" class="node">
<title>31</title>
<ellipse fill="white" stroke="black" cx="72" cy="-18" rx="18" ry="18"/>
</g>
<!-- 21&#45;&#45;31 -->
<g id="edge18" class="edge">
<title>21&#45;&#45;31</title>
<path fill="none" stroke="black" d="M72,-71.7C72,-60.85 72,-46.92 72,-36.1"/>
</g>
<!-- 23 -->
<g id="node12" class="node">
<title>23</title>
<ellipse fill="white" stroke="black" cx="180" cy="-90" rx="18" ry="18"/>
</g>
<!-- 22&#45;&#45;23 -->
<g id="edge9" class="edge">
<title>22&#45;&#45;23</title>
<path fill="none" stroke="black" d="M144.14,-90C149.93,-90 155.72,-90 161.51,-90"/>
</g>
<!-- 32 -->
<g id="node15" class="node">
<title>32</title>
<ellipse fill="white" stroke="black" cx="126" cy="-18" rx="18" ry="18"/>
</g>
<!-- 22&#45;&#45;32 -->
<g id="edge21" class="edge">
<title>22&#45;&#45;32</title>
<path fill="none" stroke="black" d="M126,-71.7C126,-60.85 126,-46.92 126,-36.1"/>
</g>
<!-- 00 -->
<g id="node5" class="node">
<title>00</title>
<ellipse fill="white" stroke="black" cx="18" cy="-234" rx="18" ry="18"/>
</g>
<!-- 01 -->
<g id="node6" class="node">
<title>01</title>
<ellipse fill="white" stroke="black" cx="72" cy="-234" rx="18" ry="18"/>
</g>
<!-- 00&#45;&#45;01 -->
<g id="edge1" class="edge">
<title>00&#45;&#45;01</title>
<path fill="none" stroke="black" d="M36.14,-234C41.93,-234 47.72,-234 53.51,-234"/>
</g>
<!-- 10 -->
<g id="node9" class="node">
<title>10</title>
<ellipse fill="white" stroke="black" cx="18" cy="-162" rx="18" ry="18"/>
</g>
<!-- 00&#45;&#45;10 -->
<g id="edge13" class="edge">
<title>00&#45;&#45;10</title>
<path fill="none" stroke="black" d="M18,-215.7C18,-204.85 18,-190.92 18,-180.1"/>
</g>
<!-- 01&#45;&#45;11 -->
<g id="edge16" class="edge">
<title>01&#45;&#45;11</title>
<path fill="none" stroke="black" d="M72,-215.7C72,-204.85 72,-190.92 72,-180.1"/>
</g>
<!-- 02 -->
<g id="node7" class="node">
<title>02</title>
<ellipse fill="white" stroke="black" cx="126" cy="-234" rx="18" ry="18"/>
</g>
<!-- 01&#45;&#45;02 -->
<g id="edge2" class="edge">
<title>01&#45;&#45;02</title>
<path fill="none" stroke="black" d="M90.14,-234C95.93,-234 101.72,-234 107.51,-234"/>
</g>
<!-- 02&#45;&#45;12 -->
<g id="edge19" class="edge">
<title>02&#45;&#45;12</title>
<path fill="none" stroke="black" d="M126,-215.7C126,-204.85 126,-190.92 126,-180.1"/>
</g>
<!-- 03 -->
<g id="node8" class="node">
<title>03</title>
<ellipse fill="white" stroke="black" cx="180" cy="-234" rx="18" ry="18"/>
</g>
<!-- 02&#45;&#45;03 -->
<g id="edge3" class="edge">
<title>02&#45;&#45;03</title>
<path fill="none" stroke="black" d="M144.14,-234C149.93,-234 155.72,-234 161.51,-234"/>
</g>
<!-- 03&#45;&#45;13 -->
<g id="edge22" class="edge">
<title>03&#45;&#45;13</title>
<path fill="none" stroke="black" d="M180,-215.7C180,-204.85 180,-190.92 180,-180.1"/>
</g>
<!-- 10&#45;&#45;11 -->
<g id="edge4" class="edge">
<title>10&#45;&#45;11</title>
<path fill="none" stroke="black" d="M36.14,-162C41.93,-162 47.72,-162 53.51,-162"/>
</g>
<!-- 20 -->
<g id="node11" class="node">
<title>20</title>
<ellipse fill="white" stroke="black" cx="18" cy="-90" rx="18" ry="18"/>
</g>
<!-- 10&#45;&#45;20 -->
<g id="edge14" class="edge">
<title>10&#45;&#45;20</title>
<path fill="none" stroke="black" d="M18,-143.7C18,-132.85 18,-118.92 18,-108.1"/>
</g>
<!-- 13&#45;&#45;23 -->
<g id="edge23" class="edge">
<title>13&#45;&#45;23</title>
<path fill="none" stroke="black" d="M180,-143.7C180,-132.85 180,-118.92 180,-108.1"/>
</g>
<!-- 20&#45;&#45;21 -->
<g id="edge7" class="edge">
<title>20&#45;&#45;21</title>
<path fill="none" stroke="black" d="M36.14,-90C41.93,-90 47.72,-90 53.51,-90"/>
</g>
<!-- 30 -->
<g id="node13" class="node">
<title>30</title>
<ellipse fill="white" stroke="black" cx="18" cy="-18" rx="18" ry="18"/>
</g>
<!-- 20&#45;&#45;30 -->
<g id="edge15" class="edge">
<title>20&#45;&#45;30</title>
<path fill="none" stroke="black" d="M18,-71.7C18,-60.85 18,-46.92 18,-36.1"/>
</g>
<!-- 33 -->
<g id="node16" class="node">
<title>33</title>
<ellipse fill="white" stroke="black" cx="180" cy="-18" rx="18" ry="18"/>
</g>
<!-- 23&#45;&#45;33 -->
<g id="edge24" class="edge">
<title>23&#45;&#45;33</title>
<path fill="none" stroke="black" d="M180,-71.7C180,-60.85 180,-46.92 180,-36.1"/>
</g>
<!-- 30&#45;&#45;31 -->
<g id="edge10" class="edge">
<title>30&#45;&#45;31</title>
<path fill="none" stroke="black" d="M36.14,-18C41.93,-18 47.72,-18 53.51,-18"/>
</g>
<!-- 31&#45;&#45;32 -->
<g id="edge11" class="edge">
<title>31&#45;&#45;32</title>
<path fill="none" stroke="black" d="M90.14,-18C95.93,-18 101.72,-18 107.51,-18"/>
</g>
<!-- 32&#45;&#45;33 -->
<g id="edge12" class="edge">
<title>32&#45;&#45;33</title>
<path fill="none" stroke="black" d="M144.14,-18C149.93,-18 155.72,-18 161.51,-18"/>
</g>
</g>
</svg>
