<?xml version="1.0" encoding="UTF-8" standalone="no"?>
<!DOCTYPE svg PUBLIC "-//W3C//DTD SVG 1.1//EN"
 "http://www.w3.org/Graphics/SVG/1.1/DTD/svg11.dtd">
<!-- Generated by graphviz version 9.0.0 (0)
 -->
<!-- Title: stencil Pages: 1 -->
<svg width="98pt" height="116pt"
 viewBox="0.00 0.00 98.00 116.00" xmlns="http://www.w3.org/2000/svg" xmlns:xlink="http://www.w3.org/1999/xlink">
<g id="graph0" class="graph" transform="scale(1 1) rotate(0) translate(4 112)">
<title>stencil</title>
<!-- 11 -->
<g id="node1" class="node">
<title>11</title>
<ellipse fill="red" stroke="black" cx="18" cy="-90" rx="18" ry="18"/>
<text text-anchor="middle" x="18" y="-84.58" font-family="Helvetica,sans-Serif" font-size="14.00" fill="white">A</text>
</g>
<!-- 12 -->
<g id="node2" class="node">
<title>12</title>
<ellipse fill="blue" stroke="black" cx="72" cy="-90" rx="18" ry="18"/>
<text text-anchor="middle" x="72" y="-84.58" font-family="Helvetica,sans-Serif" font-size="14.00" fill="white">B</text>
</g>
<!-- 11&#45;&#45;12 -->
<g id="edge1" class="edge">
<title>11&#45;&#45;12</title>
<path fill="none" stroke="black" d="M36.14,-90C41.93,-90 47.72,-90 53.51,-90"/>
</g>
<!-- 21 -->
<g id="node3" class="node">
<title>21</title>
<ellipse fill="blue" stroke="black" cx="18" cy="-18" rx="18" ry="18"/>
<text text-anchor="middle" x="18" y="-12.57" font-family="Helvetica,sans-Serif" font-size="14.00" fill="white">C</text>
</g>
<!-- 11&#45;&#45;21 -->
<g id="edge3" class="edge">
<title>11&#45;&#45;21</title>
<path fill="none" stroke="black" d="M18,-71.7C18,-60.85 18,-46.92 18,-36.1"/>
</g>
<!-- 22 -->
<g id="node4" class="node">
<title>22</title>
<ellipse fill="red" stroke="black" cx="72" cy="-18" rx="18" ry="18"/>
<text text-anchor="middle" x="72" y="-12.57" font-family="Helvetica,sans-Serif" font-size="14.00" fill="white">D</text>
</g>
<!-- 12&#45;&#45;22 -->
<g id="edge4" class="edge">
<title>12&#45;&#45;22</title>
<path fill="none" stroke="black" d="M72,-71.7C72,-60.85 72,-46.92 72,-36.1"/>
</g>
<!-- 21&#45;&#45;22 -->
<g id="edge2" class="edge">
<title>21&#45;&#45;22</title>
<path fill="none" stroke="black" d="M36.14,-18C41.93,-18 47.72,-18 53.51,-18"/>
</g>
</g>
</svg>
